G04 Layer_Physical_Order=1*
G04 Layer_Color=255*
%FSLAX25Y25*%
%MOIN*%
G70*
G01*
G75*
%ADD10R,0.02559X0.04134*%
%ADD11R,0.06000X0.04000*%
%ADD12R,0.04000X0.06000*%
%ADD13R,0.03347X0.03347*%
%ADD14R,0.01575X0.03150*%
%ADD15R,0.13386X0.07283*%
%ADD16R,0.03347X0.03347*%
%ADD17R,0.04921X0.04331*%
%ADD18R,0.10630X0.03937*%
%ADD19R,0.07087X0.05905*%
%ADD20R,0.05905X0.07087*%
%ADD21R,0.01400X0.05800*%
%ADD22R,0.02165X0.00984*%
G04:AMPARAMS|DCode=23|XSize=9.84mil|YSize=21.65mil|CornerRadius=2.46mil|HoleSize=0mil|Usage=FLASHONLY|Rotation=90.000|XOffset=0mil|YOffset=0mil|HoleType=Round|Shape=RoundedRectangle|*
%AMROUNDEDRECTD23*
21,1,0.00984,0.01673,0,0,90.0*
21,1,0.00492,0.02165,0,0,90.0*
1,1,0.00492,0.00837,0.00246*
1,1,0.00492,0.00837,-0.00246*
1,1,0.00492,-0.00837,-0.00246*
1,1,0.00492,-0.00837,0.00246*
%
%ADD23ROUNDEDRECTD23*%
G04:AMPARAMS|DCode=24|XSize=11.81mil|YSize=31.5mil|CornerRadius=2.95mil|HoleSize=0mil|Usage=FLASHONLY|Rotation=90.000|XOffset=0mil|YOffset=0mil|HoleType=Round|Shape=RoundedRectangle|*
%AMROUNDEDRECTD24*
21,1,0.01181,0.02559,0,0,90.0*
21,1,0.00591,0.03150,0,0,90.0*
1,1,0.00591,0.01279,0.00295*
1,1,0.00591,0.01279,-0.00295*
1,1,0.00591,-0.01279,-0.00295*
1,1,0.00591,-0.01279,0.00295*
%
%ADD24ROUNDEDRECTD24*%
G04:AMPARAMS|DCode=25|XSize=11.81mil|YSize=31.5mil|CornerRadius=2.95mil|HoleSize=0mil|Usage=FLASHONLY|Rotation=0.000|XOffset=0mil|YOffset=0mil|HoleType=Round|Shape=RoundedRectangle|*
%AMROUNDEDRECTD25*
21,1,0.01181,0.02559,0,0,0.0*
21,1,0.00591,0.03150,0,0,0.0*
1,1,0.00591,0.00295,-0.01279*
1,1,0.00591,-0.00295,-0.01279*
1,1,0.00591,-0.00295,0.01279*
1,1,0.00591,0.00295,0.01279*
%
%ADD25ROUNDEDRECTD25*%
%ADD26R,0.01181X0.03150*%
%ADD27R,0.01200X0.03200*%
G04:AMPARAMS|DCode=28|XSize=12mil|YSize=32mil|CornerRadius=3mil|HoleSize=0mil|Usage=FLASHONLY|Rotation=0.000|XOffset=0mil|YOffset=0mil|HoleType=Round|Shape=RoundedRectangle|*
%AMROUNDEDRECTD28*
21,1,0.01200,0.02600,0,0,0.0*
21,1,0.00600,0.03200,0,0,0.0*
1,1,0.00600,0.00300,-0.01300*
1,1,0.00600,-0.00300,-0.01300*
1,1,0.00600,-0.00300,0.01300*
1,1,0.00600,0.00300,0.01300*
%
%ADD28ROUNDEDRECTD28*%
G04:AMPARAMS|DCode=29|XSize=12mil|YSize=32mil|CornerRadius=3mil|HoleSize=0mil|Usage=FLASHONLY|Rotation=270.000|XOffset=0mil|YOffset=0mil|HoleType=Round|Shape=RoundedRectangle|*
%AMROUNDEDRECTD29*
21,1,0.01200,0.02600,0,0,270.0*
21,1,0.00600,0.03200,0,0,270.0*
1,1,0.00600,-0.01300,-0.00300*
1,1,0.00600,-0.01300,0.00300*
1,1,0.00600,0.01300,0.00300*
1,1,0.00600,0.01300,-0.00300*
%
%ADD29ROUNDEDRECTD29*%
%ADD30R,0.01968X0.01968*%
%ADD31R,0.05315X0.01575*%
%ADD32R,0.07480X0.07087*%
%ADD33R,0.10630X0.06299*%
%ADD34R,0.08000X0.06000*%
%ADD35R,0.17000X0.17000*%
%ADD36R,0.03386X0.01024*%
G04:AMPARAMS|DCode=37|XSize=10.24mil|YSize=33.86mil|CornerRadius=2.56mil|HoleSize=0mil|Usage=FLASHONLY|Rotation=90.000|XOffset=0mil|YOffset=0mil|HoleType=Round|Shape=RoundedRectangle|*
%AMROUNDEDRECTD37*
21,1,0.01024,0.02874,0,0,90.0*
21,1,0.00512,0.03386,0,0,90.0*
1,1,0.00512,0.01437,0.00256*
1,1,0.00512,0.01437,-0.00256*
1,1,0.00512,-0.01437,-0.00256*
1,1,0.00512,-0.01437,0.00256*
%
%ADD37ROUNDEDRECTD37*%
G04:AMPARAMS|DCode=38|XSize=10.24mil|YSize=33.86mil|CornerRadius=2.56mil|HoleSize=0mil|Usage=FLASHONLY|Rotation=0.000|XOffset=0mil|YOffset=0mil|HoleType=Round|Shape=RoundedRectangle|*
%AMROUNDEDRECTD38*
21,1,0.01024,0.02874,0,0,0.0*
21,1,0.00512,0.03386,0,0,0.0*
1,1,0.00512,0.00256,-0.01437*
1,1,0.00512,-0.00256,-0.01437*
1,1,0.00512,-0.00256,0.01437*
1,1,0.00512,0.00256,0.01437*
%
%ADD38ROUNDEDRECTD38*%
%ADD39C,0.02000*%
%ADD40C,0.01000*%
%ADD41C,0.01500*%
%ADD42C,0.01200*%
%ADD43C,0.06000*%
%ADD44C,0.02362*%
%ADD45C,0.04331*%
%ADD46C,0.04134*%
%ADD47O,0.07480X0.03740*%
%ADD48C,0.01968*%
G36*
X18518Y204517D02*
X18625Y204508D01*
X18733Y204494D01*
X18839Y204474D01*
X18944Y204449D01*
X19048Y204418D01*
X19150Y204382D01*
X19250Y204341D01*
X19348Y204294D01*
X19443Y204243D01*
X19535Y204186D01*
X19624Y204125D01*
X19710Y204059D01*
X19793Y203989D01*
X19871Y203914D01*
X19945Y203836D01*
X20016Y203753D01*
X20082Y203668D01*
X20143Y203578D01*
X20199Y203486D01*
X20251Y203391D01*
X20298Y203293D01*
X20339Y203193D01*
X20375Y203092D01*
X20406Y202988D01*
X20431Y202883D01*
X20451Y202776D01*
X20465Y202669D01*
X20473Y202561D01*
X20476Y202453D01*
X20473Y202345D01*
X20465Y202237D01*
X20451Y202129D01*
X20431Y202023D01*
X20406Y201918D01*
X20375Y201814D01*
X20339Y201712D01*
X20298Y201612D01*
X20251Y201514D01*
X20199Y201419D01*
X20143Y201327D01*
X20082Y201238D01*
X20016Y201152D01*
X19945Y201070D01*
X19871Y200991D01*
X19793Y200917D01*
X19710Y200847D01*
X19624Y200781D01*
X19535Y200719D01*
X19443Y200663D01*
X19348Y200611D01*
X19250Y200565D01*
X19150Y200523D01*
X19048Y200487D01*
X18944Y200456D01*
X18839Y200431D01*
X18733Y200411D01*
X18625Y200397D01*
X18518Y200389D01*
X18409Y200386D01*
X17622D01*
X17514Y200389D01*
X17406Y200397D01*
X17299Y200411D01*
X17192Y200431D01*
X17087Y200456D01*
X16983Y200487D01*
X16881Y200523D01*
X16781Y200565D01*
X16684Y200611D01*
X16589Y200663D01*
X16496Y200719D01*
X16407Y200781D01*
X16321Y200847D01*
X16239Y200917D01*
X16161Y200991D01*
X16086Y201070D01*
X16016Y201152D01*
X15950Y201238D01*
X15889Y201327D01*
X15832Y201419D01*
X15780Y201514D01*
X15734Y201612D01*
X15692Y201712D01*
X15656Y201814D01*
X15626Y201918D01*
X15600Y202023D01*
X15581Y202129D01*
X15566Y202237D01*
X15558Y202345D01*
X15555Y202453D01*
X15558Y202561D01*
X15566Y202669D01*
X15581Y202776D01*
X15600Y202883D01*
X15626Y202988D01*
X15656Y203092D01*
X15692Y203193D01*
X15734Y203293D01*
X15780Y203391D01*
X15832Y203486D01*
X15889Y203578D01*
X15950Y203668D01*
X16016Y203753D01*
X16086Y203836D01*
X16161Y203914D01*
X16239Y203989D01*
X16321Y204059D01*
X16407Y204125D01*
X16496Y204186D01*
X16589Y204243D01*
X16684Y204294D01*
X16781Y204341D01*
X16881Y204382D01*
X16983Y204418D01*
X17087Y204449D01*
X17192Y204474D01*
X17299Y204494D01*
X17406Y204508D01*
X17514Y204517D01*
X17622Y204520D01*
X18409D01*
X18518Y204517D01*
D02*
G37*
G36*
X9945Y195465D02*
X9942Y195361D01*
X9934Y195259D01*
X9921Y195157D01*
X9902Y195055D01*
X9878Y194955D01*
X9849Y194856D01*
X9814Y194759D01*
X9775Y194664D01*
X9730Y194571D01*
X9681Y194480D01*
X9627Y194392D01*
X9569Y194307D01*
X9506Y194226D01*
X9439Y194147D01*
X9368Y194073D01*
X9294Y194002D01*
X9215Y193935D01*
X9133Y193872D01*
X9048Y193814D01*
X8961Y193760D01*
X8870Y193711D01*
X8777Y193666D01*
X8682Y193627D01*
X8585Y193592D01*
X8486Y193563D01*
X8386Y193539D01*
X8284Y193520D01*
X8182Y193507D01*
X8079Y193499D01*
X7976Y193496D01*
X4433D01*
X4330Y193499D01*
X4227Y193507D01*
X4125Y193520D01*
X4024Y193539D01*
X3924Y193563D01*
X3825Y193592D01*
X3728Y193627D01*
X3632Y193666D01*
X3539Y193711D01*
X3449Y193760D01*
X3361Y193814D01*
X3276Y193872D01*
X3194Y193935D01*
X3116Y194002D01*
X3041Y194073D01*
X2970Y194147D01*
X2903Y194226D01*
X2840Y194307D01*
X2782Y194392D01*
X2728Y194480D01*
X2679Y194571D01*
X2635Y194664D01*
X2595Y194759D01*
X2561Y194856D01*
X2532Y194955D01*
X2508Y195055D01*
X2489Y195157D01*
X2475Y195259D01*
X2467Y195361D01*
X2465Y195465D01*
Y201764D01*
X9945D01*
Y195465D01*
D02*
G37*
G36*
X241406Y218831D02*
Y213410D01*
X242678D01*
X243654Y211811D01*
X244105Y209938D01*
Y209273D01*
X243605Y208935D01*
X242972Y209061D01*
X242461D01*
X242177Y209004D01*
X241481Y209700D01*
X226914D01*
X221260Y215354D01*
X211512D01*
X211100Y215409D01*
X210688Y215354D01*
X207087D01*
X205700Y216741D01*
Y217511D01*
X207480Y219291D01*
X240945D01*
X241406Y218831D01*
D02*
G37*
G36*
X196100Y218755D02*
X189000Y213422D01*
X189000Y202700D01*
X195276Y196424D01*
X195276Y194448D01*
X194922Y194095D01*
X190551D01*
X129100Y194500D01*
X126200Y195195D01*
Y198505D01*
X125753Y199101D01*
X125697Y199530D01*
X125193Y200747D01*
X124391Y201791D01*
X123347Y202593D01*
X122632Y202889D01*
X117525Y208962D01*
X117502Y209137D01*
X116998Y210353D01*
X116197Y211398D01*
X115152Y212199D01*
X114616Y212421D01*
X110662Y217123D01*
X110662Y219485D01*
X111450Y220272D01*
X124048D01*
X124442Y219879D01*
Y208068D01*
X126527Y205983D01*
Y205162D01*
X127347D01*
X127985Y204524D01*
X128477D01*
X129100Y204724D01*
X153543D01*
X153981Y205162D01*
X156157D01*
Y207078D01*
X156330Y207101D01*
X157104Y207421D01*
X157769Y207931D01*
X158279Y208596D01*
X158599Y209370D01*
X158661Y209843D01*
X163779Y214961D01*
X178347D01*
X183071Y219685D01*
Y241000D01*
X185800Y244100D01*
X196100D01*
Y218755D01*
D02*
G37*
G36*
X194095Y186614D02*
Y6693D01*
X187402Y0D01*
X3937D01*
X0Y3937D01*
Y187402D01*
X4331Y191732D01*
X124800D01*
X124991Y191270D01*
X102486Y168766D01*
X102006Y168139D01*
X101703Y167409D01*
X101600Y166626D01*
Y156528D01*
X101051D01*
Y153460D01*
X98599Y151008D01*
X61466D01*
X60683Y150905D01*
X59954Y150603D01*
X59327Y150122D01*
X59327Y150122D01*
X52683Y143478D01*
X52202Y142851D01*
X51900Y142122D01*
X51797Y141339D01*
Y114961D01*
Y106299D01*
X51900Y105516D01*
X52202Y104786D01*
X52683Y104160D01*
X54671Y102171D01*
X55298Y101690D01*
X56028Y101388D01*
X56811Y101285D01*
X66504D01*
Y99358D01*
X77591D01*
Y106839D01*
Y116744D01*
X66504D01*
Y114817D01*
X59246D01*
X57849Y116214D01*
Y140085D01*
X62720Y144956D01*
X99852D01*
X100636Y145060D01*
X101100Y145252D01*
X101261Y145193D01*
X101600Y144943D01*
Y142456D01*
X101703Y141673D01*
X102006Y140943D01*
X102486Y140316D01*
X103009Y139793D01*
Y135839D01*
X85598D01*
Y124752D01*
X110465D01*
Y135839D01*
X109061D01*
Y141047D01*
X109061Y141047D01*
X108958Y141830D01*
X108656Y142560D01*
X108175Y143186D01*
X107652Y143710D01*
Y149181D01*
X108398D01*
Y156528D01*
X107652D01*
Y165373D01*
X134011Y191732D01*
X188976D01*
X194095Y186614D01*
D02*
G37*
G36*
X219600Y162100D02*
X219600Y140200D01*
X226935Y132865D01*
Y125435D01*
X219600Y118100D01*
X219262Y117762D01*
X219262Y117762D01*
X207000Y105500D01*
Y87000D01*
X207000Y87000D01*
X201500Y81500D01*
X198500D01*
X196134Y83866D01*
Y107566D01*
Y107569D01*
Y122534D01*
X196930Y123330D01*
X213579D01*
Y123579D01*
X215400Y125400D01*
X215300Y125500D01*
Y130200D01*
X212300Y133200D01*
X211070D01*
X210830Y133299D01*
X210000Y133408D01*
X209170Y133299D01*
X208930Y133200D01*
X206900D01*
X205900Y134200D01*
Y175147D01*
X206362Y175338D01*
X219600Y162100D01*
D02*
G37*
G36*
X226482Y185374D02*
X226440Y185166D01*
Y184654D01*
X226442Y184642D01*
X224200Y182400D01*
Y178200D01*
X220900D01*
Y180500D01*
X226021Y185621D01*
X226482Y185374D01*
D02*
G37*
G36*
X274200Y153600D02*
X274200Y131100D01*
X267000Y123900D01*
X238600Y123900D01*
X234500Y128000D01*
X234500Y134588D01*
X238200Y137200D01*
X246300Y137200D01*
X256000Y127500D01*
X267200D01*
X270500Y130800D01*
Y134369D01*
X270820Y134787D01*
X271123Y135517D01*
X271226Y136300D01*
Y140304D01*
X271291Y140800D01*
X271182Y141630D01*
X270861Y142404D01*
X270500Y142875D01*
Y153400D01*
X270913Y153610D01*
X274190D01*
X274200Y153600D01*
D02*
G37*
G36*
X85456Y213044D02*
X79944D01*
Y218556D01*
X85456D01*
Y213044D01*
D02*
G37*
G36*
X70111Y237726D02*
X69908Y223549D01*
X64502D01*
X63099Y224953D01*
Y226524D01*
X56636D01*
X56431Y226981D01*
X58694Y229521D01*
Y238689D01*
X60662Y239564D01*
X67355D01*
X70111Y237726D01*
D02*
G37*
G36*
X8079Y230501D02*
X8182Y230493D01*
X8284Y230480D01*
X8386Y230461D01*
X8486Y230437D01*
X8585Y230408D01*
X8682Y230373D01*
X8777Y230334D01*
X8870Y230289D01*
X8961Y230240D01*
X9048Y230186D01*
X9133Y230128D01*
X9215Y230065D01*
X9294Y229998D01*
X9368Y229927D01*
X9439Y229853D01*
X9506Y229774D01*
X9569Y229693D01*
X9627Y229608D01*
X9681Y229520D01*
X9730Y229429D01*
X9775Y229336D01*
X9814Y229241D01*
X9849Y229144D01*
X9878Y229045D01*
X9902Y228945D01*
X9921Y228843D01*
X9934Y228741D01*
X9942Y228639D01*
X9945Y228535D01*
Y222236D01*
X2465D01*
Y228535D01*
X2467Y228639D01*
X2475Y228741D01*
X2489Y228843D01*
X2508Y228945D01*
X2532Y229045D01*
X2561Y229144D01*
X2595Y229241D01*
X2635Y229336D01*
X2679Y229429D01*
X2728Y229520D01*
X2782Y229608D01*
X2840Y229693D01*
X2903Y229774D01*
X2970Y229853D01*
X3041Y229927D01*
X3116Y229998D01*
X3194Y230065D01*
X3276Y230128D01*
X3361Y230186D01*
X3449Y230240D01*
X3539Y230289D01*
X3632Y230334D01*
X3728Y230373D01*
X3825Y230408D01*
X3924Y230437D01*
X4024Y230461D01*
X4125Y230480D01*
X4227Y230493D01*
X4330Y230501D01*
X4433Y230504D01*
X7976D01*
X8079Y230501D01*
D02*
G37*
G36*
X51900Y244100D02*
X53700Y242500D01*
Y238200D01*
X52796Y237400D01*
X42469D01*
Y236521D01*
X42110Y236172D01*
X41200Y236200D01*
Y235900D01*
X37400Y232100D01*
X37600Y231900D01*
Y231214D01*
X37569Y231174D01*
X37267Y230445D01*
X37164Y229661D01*
Y226700D01*
X29536D01*
X26000Y231563D01*
Y240349D01*
X30889Y244100D01*
X51900Y244100D01*
D02*
G37*
G36*
X156800Y233068D02*
Y225320D01*
X156002Y224271D01*
X150884D01*
X150361Y224167D01*
X149798D01*
X149617Y224633D01*
X153900Y228570D01*
Y232153D01*
X153300Y232753D01*
X153279Y232804D01*
X152769Y233469D01*
X152104Y233979D01*
X152053Y234000D01*
X151214Y234839D01*
X149941D01*
Y235196D01*
X141941D01*
Y234623D01*
X140190Y232871D01*
Y223866D01*
X139803Y223549D01*
X139550Y223599D01*
X138778D01*
X138713Y223612D01*
X135933D01*
X135140Y224405D01*
Y229800D01*
X133812D01*
X133103Y230509D01*
X110793D01*
X109481Y228540D01*
Y225194D01*
X108000Y223620D01*
Y211900D01*
X105338Y209238D01*
X104883Y209131D01*
X104883Y209131D01*
X104883Y209131D01*
X102369D01*
X102291Y209209D01*
X93100Y209300D01*
X90662Y211738D01*
X90853Y212200D01*
X99400D01*
X100807Y213607D01*
X100820Y218698D01*
Y221453D01*
X101607Y222241D01*
X103969D01*
X104182Y222453D01*
X106749D01*
Y223020D01*
Y224067D01*
Y225021D01*
X107119Y225391D01*
Y229721D01*
X106077Y230506D01*
X106078Y230509D01*
X97670D01*
X95241Y232938D01*
Y235725D01*
X81764D01*
Y228379D01*
X82184D01*
Y227016D01*
X81684Y226809D01*
X80741Y227753D01*
Y239170D01*
X81135Y239564D01*
X82184D01*
X152394Y239564D01*
X156800Y233068D01*
D02*
G37*
G36*
X18518Y223611D02*
X18625Y223603D01*
X18733Y223589D01*
X18839Y223569D01*
X18944Y223544D01*
X19048Y223513D01*
X19150Y223477D01*
X19250Y223435D01*
X19348Y223389D01*
X19443Y223337D01*
X19535Y223281D01*
X19624Y223219D01*
X19710Y223153D01*
X19793Y223083D01*
X19871Y223009D01*
X19945Y222930D01*
X20016Y222848D01*
X20082Y222762D01*
X20143Y222673D01*
X20199Y222581D01*
X20251Y222486D01*
X20298Y222388D01*
X20339Y222288D01*
X20375Y222186D01*
X20406Y222082D01*
X20431Y221977D01*
X20451Y221871D01*
X20465Y221763D01*
X20473Y221655D01*
X20476Y221547D01*
X20473Y221439D01*
X20465Y221331D01*
X20451Y221224D01*
X20431Y221117D01*
X20406Y221012D01*
X20375Y220908D01*
X20339Y220807D01*
X20298Y220707D01*
X20251Y220609D01*
X20199Y220514D01*
X20143Y220422D01*
X20082Y220332D01*
X20016Y220247D01*
X19945Y220164D01*
X19871Y220086D01*
X19793Y220011D01*
X19710Y219941D01*
X19624Y219875D01*
X19535Y219814D01*
X19443Y219757D01*
X19348Y219706D01*
X19250Y219659D01*
X19150Y219618D01*
X19048Y219582D01*
X18944Y219551D01*
X18839Y219526D01*
X18733Y219506D01*
X18625Y219492D01*
X18518Y219483D01*
X18409Y219480D01*
X17622D01*
X17514Y219483D01*
X17406Y219492D01*
X17299Y219506D01*
X17192Y219526D01*
X17087Y219551D01*
X16983Y219582D01*
X16881Y219618D01*
X16781Y219659D01*
X16684Y219706D01*
X16589Y219757D01*
X16496Y219814D01*
X16407Y219875D01*
X16321Y219941D01*
X16239Y220011D01*
X16161Y220086D01*
X16086Y220164D01*
X16016Y220247D01*
X15950Y220332D01*
X15889Y220422D01*
X15832Y220514D01*
X15780Y220609D01*
X15734Y220707D01*
X15692Y220807D01*
X15656Y220908D01*
X15626Y221012D01*
X15600Y221117D01*
X15581Y221224D01*
X15566Y221331D01*
X15558Y221439D01*
X15555Y221547D01*
X15558Y221655D01*
X15566Y221763D01*
X15581Y221871D01*
X15600Y221977D01*
X15626Y222082D01*
X15656Y222186D01*
X15692Y222288D01*
X15734Y222388D01*
X15780Y222486D01*
X15832Y222581D01*
X15889Y222673D01*
X15950Y222762D01*
X16016Y222848D01*
X16086Y222930D01*
X16161Y223009D01*
X16239Y223083D01*
X16321Y223153D01*
X16407Y223219D01*
X16496Y223281D01*
X16589Y223337D01*
X16684Y223389D01*
X16781Y223435D01*
X16881Y223477D01*
X16983Y223513D01*
X17087Y223544D01*
X17192Y223569D01*
X17299Y223589D01*
X17406Y223603D01*
X17514Y223611D01*
X17622Y223614D01*
X18409D01*
X18518Y223611D01*
D02*
G37*
G36*
X279496Y214205D02*
Y209783D01*
X279647D01*
X282677Y208268D01*
X287402D01*
X288583Y207087D01*
Y187795D01*
X287402Y186614D01*
X282579D01*
X281102Y187500D01*
X281004Y201673D01*
X280248Y202429D01*
Y204815D01*
X277862D01*
X276772Y205906D01*
Y212598D01*
X275590Y213779D01*
Y213386D01*
X263976D01*
X263759Y213319D01*
X261214D01*
Y212536D01*
X258498Y211700D01*
X253112Y211112D01*
X253041Y211051D01*
X252371Y210918D01*
X251671Y210450D01*
X251171Y210639D01*
Y211964D01*
X252544Y213410D01*
X260465D01*
Y214567D01*
X261024D01*
X261243Y214723D01*
X261267Y214728D01*
X262094Y215281D01*
X262272Y215459D01*
X262402Y215551D01*
X267020Y215618D01*
X275200D01*
X275590Y215354D01*
Y215354D01*
X275984Y215748D01*
X277953D01*
X279496Y214205D01*
D02*
G37*
%LPC*%
G36*
X18409Y203732D02*
X17622D01*
X17555Y203731D01*
X17488Y203725D01*
X17422Y203716D01*
X17356Y203704D01*
X17291Y203689D01*
X17227Y203670D01*
X17164Y203647D01*
X17102Y203622D01*
X17041Y203593D01*
X16982Y203561D01*
X16925Y203526D01*
X16870Y203488D01*
X16817Y203447D01*
X16766Y203404D01*
X16717Y203358D01*
X16671Y203309D01*
X16628Y203258D01*
X16587Y203205D01*
X16549Y203150D01*
X16514Y203093D01*
X16482Y203034D01*
X16453Y202973D01*
X16428Y202911D01*
X16405Y202848D01*
X16386Y202784D01*
X16371Y202719D01*
X16358Y202653D01*
X16350Y202587D01*
X16344Y202520D01*
X16342Y202453D01*
X16344Y202386D01*
X16350Y202319D01*
X16358Y202253D01*
X16371Y202187D01*
X16386Y202122D01*
X16405Y202057D01*
X16428Y201994D01*
X16453Y201932D01*
X16482Y201872D01*
X16514Y201813D01*
X16549Y201756D01*
X16587Y201701D01*
X16628Y201647D01*
X16671Y201597D01*
X16717Y201548D01*
X16766Y201502D01*
X16817Y201458D01*
X16870Y201418D01*
X16925Y201380D01*
X16982Y201345D01*
X17041Y201313D01*
X17102Y201284D01*
X17164Y201258D01*
X17227Y201236D01*
X17291Y201217D01*
X17356Y201201D01*
X17422Y201189D01*
X17488Y201180D01*
X17555Y201175D01*
X17622Y201173D01*
X18409D01*
X18476Y201175D01*
X18543Y201180D01*
X18610Y201189D01*
X18676Y201201D01*
X18741Y201217D01*
X18805Y201236D01*
X18868Y201258D01*
X18930Y201284D01*
X18990Y201313D01*
X19049Y201345D01*
X19106Y201380D01*
X19162Y201418D01*
X19215Y201458D01*
X19266Y201502D01*
X19314Y201548D01*
X19360Y201597D01*
X19404Y201647D01*
X19445Y201701D01*
X19483Y201756D01*
X19518Y201813D01*
X19549Y201872D01*
X19578Y201932D01*
X19604Y201994D01*
X19626Y202057D01*
X19645Y202122D01*
X19661Y202187D01*
X19673Y202253D01*
X19682Y202319D01*
X19687Y202386D01*
X19689Y202453D01*
X19687Y202520D01*
X19682Y202587D01*
X19673Y202653D01*
X19661Y202719D01*
X19645Y202784D01*
X19626Y202848D01*
X19604Y202911D01*
X19578Y202973D01*
X19549Y203034D01*
X19518Y203093D01*
X19483Y203150D01*
X19445Y203205D01*
X19404Y203258D01*
X19360Y203309D01*
X19314Y203358D01*
X19266Y203404D01*
X19215Y203447D01*
X19162Y203488D01*
X19106Y203526D01*
X19049Y203561D01*
X18990Y203593D01*
X18930Y203622D01*
X18868Y203647D01*
X18805Y203670D01*
X18741Y203689D01*
X18676Y203704D01*
X18610Y203716D01*
X18543Y203725D01*
X18476Y203731D01*
X18409Y203732D01*
D02*
G37*
G36*
X7976Y199795D02*
X4433D01*
X4371Y199794D01*
X4310Y199789D01*
X4248Y199781D01*
X4188Y199769D01*
X4127Y199755D01*
X4068Y199738D01*
X4010Y199717D01*
X3953Y199693D01*
X3897Y199667D01*
X3842Y199637D01*
X3790Y199605D01*
X3739Y199570D01*
X3690Y199532D01*
X3643Y199492D01*
X3598Y199449D01*
X3555Y199405D01*
X3515Y199357D01*
X3478Y199308D01*
X3443Y199257D01*
X3410Y199205D01*
X3381Y199150D01*
X3354Y199095D01*
X3330Y199037D01*
X3310Y198979D01*
X3292Y198920D01*
X3278Y198860D01*
X3266Y198799D01*
X3258Y198738D01*
X3254Y198676D01*
X3252Y198614D01*
Y197728D01*
X3254Y197667D01*
X3258Y197605D01*
X3266Y197544D01*
X3278Y197483D01*
X3292Y197423D01*
X3310Y197363D01*
X3330Y197305D01*
X3354Y197248D01*
X3381Y197192D01*
X3410Y197138D01*
X3443Y197085D01*
X3478Y197034D01*
X3515Y196985D01*
X3555Y196938D01*
X3598Y196893D01*
X3643Y196851D01*
X3690Y196810D01*
X3739Y196773D01*
X3790Y196738D01*
X3842Y196705D01*
X3897Y196676D01*
X3953Y196649D01*
X4010Y196626D01*
X4068Y196605D01*
X4127Y196588D01*
X4188Y196573D01*
X4248Y196562D01*
X4310Y196554D01*
X4371Y196549D01*
X4433Y196547D01*
X8075D01*
X8132Y196549D01*
X8188Y196553D01*
X8244Y196561D01*
X8300Y196571D01*
X8355Y196584D01*
X8409Y196600D01*
X8463Y196619D01*
X8515Y196641D01*
X8566Y196665D01*
X8616Y196692D01*
X8664Y196722D01*
X8711Y196754D01*
X8756Y196789D01*
X8799Y196825D01*
X8840Y196864D01*
X8879Y196906D01*
X8916Y196949D01*
X8951Y196994D01*
X8983Y197040D01*
X9012Y197089D01*
X9040Y197138D01*
X9064Y197190D01*
X9086Y197242D01*
X9104Y197295D01*
X9121Y197350D01*
X9134Y197405D01*
X9144Y197460D01*
X9152Y197517D01*
X9156Y197573D01*
X9157Y197630D01*
Y198614D01*
X9156Y198676D01*
X9151Y198738D01*
X9143Y198799D01*
X9132Y198860D01*
X9117Y198920D01*
X9100Y198979D01*
X9079Y199037D01*
X9055Y199095D01*
X9029Y199150D01*
X8999Y199205D01*
X8967Y199257D01*
X8932Y199308D01*
X8894Y199357D01*
X8854Y199405D01*
X8811Y199449D01*
X8767Y199492D01*
X8720Y199532D01*
X8671Y199570D01*
X8620Y199605D01*
X8567Y199637D01*
X8513Y199667D01*
X8457Y199693D01*
X8400Y199717D01*
X8341Y199738D01*
X8282Y199755D01*
X8222Y199769D01*
X8161Y199781D01*
X8100Y199789D01*
X8038Y199794D01*
X7976Y199795D01*
D02*
G37*
G36*
X129559Y116744D02*
X118473D01*
Y106839D01*
Y99358D01*
Y91878D01*
X129559D01*
Y99358D01*
Y101251D01*
X140690D01*
X140989Y101021D01*
X141763Y100701D01*
X142594Y100591D01*
X143076Y100655D01*
X143576Y100255D01*
Y100227D01*
X157024D01*
Y100534D01*
X157530Y100601D01*
X158304Y100921D01*
X158969Y101431D01*
X159479Y102096D01*
X159799Y102870D01*
X159908Y103700D01*
X159799Y104530D01*
X159479Y105304D01*
X158969Y105969D01*
X158304Y106479D01*
X157530Y106799D01*
X157024Y106866D01*
Y107573D01*
X143576D01*
Y107345D01*
X143076Y106945D01*
X142594Y107009D01*
X141763Y106899D01*
X140989Y106579D01*
X140690Y106349D01*
X129559D01*
Y109451D01*
X140792D01*
X141092Y109221D01*
X141865Y108901D01*
X142696Y108791D01*
X143178Y108855D01*
X143678Y108627D01*
Y108627D01*
X157127D01*
Y109027D01*
X157200Y109091D01*
X158030Y109201D01*
X158804Y109521D01*
X159469Y110031D01*
X159979Y110696D01*
X160299Y111470D01*
X160408Y112300D01*
X160299Y113130D01*
X159979Y113904D01*
X159469Y114569D01*
X158804Y115079D01*
X158030Y115399D01*
X157200Y115508D01*
X157127Y115573D01*
Y115973D01*
X143678D01*
Y115545D01*
X143178Y115145D01*
X142696Y115208D01*
X141865Y115099D01*
X141092Y114779D01*
X140792Y114549D01*
X129559D01*
Y116744D01*
D02*
G37*
G36*
X110465Y83870D02*
X85598D01*
Y72783D01*
X88526D01*
Y64264D01*
X86327D01*
Y56918D01*
Y50815D01*
X99803D01*
Y58162D01*
X93673D01*
Y64264D01*
X93624D01*
Y72783D01*
X110465D01*
Y83870D01*
D02*
G37*
G36*
X7976Y227453D02*
X4335D01*
X4278Y227451D01*
X4222Y227447D01*
X4165Y227439D01*
X4109Y227429D01*
X4054Y227416D01*
X4000Y227400D01*
X3947Y227381D01*
X3894Y227359D01*
X3843Y227335D01*
X3793Y227308D01*
X3745Y227278D01*
X3698Y227246D01*
X3653Y227211D01*
X3610Y227175D01*
X3569Y227136D01*
X3530Y227095D01*
X3493Y227051D01*
X3459Y227007D01*
X3427Y226960D01*
X3397Y226911D01*
X3370Y226862D01*
X3346Y226810D01*
X3324Y226758D01*
X3305Y226705D01*
X3289Y226650D01*
X3276Y226595D01*
X3265Y226539D01*
X3258Y226483D01*
X3254Y226427D01*
X3252Y226370D01*
Y225386D01*
X3254Y225324D01*
X3258Y225262D01*
X3266Y225201D01*
X3278Y225140D01*
X3292Y225080D01*
X3310Y225021D01*
X3330Y224963D01*
X3354Y224905D01*
X3381Y224850D01*
X3410Y224795D01*
X3443Y224743D01*
X3478Y224692D01*
X3515Y224642D01*
X3555Y224595D01*
X3598Y224551D01*
X3643Y224508D01*
X3690Y224468D01*
X3739Y224430D01*
X3790Y224395D01*
X3842Y224363D01*
X3897Y224334D01*
X3953Y224307D01*
X4010Y224283D01*
X4068Y224262D01*
X4127Y224245D01*
X4188Y224231D01*
X4248Y224219D01*
X4310Y224211D01*
X4371Y224206D01*
X4433Y224205D01*
X7976D01*
X8038Y224206D01*
X8100Y224211D01*
X8161Y224219D01*
X8222Y224231D01*
X8282Y224245D01*
X8341Y224262D01*
X8400Y224283D01*
X8457Y224307D01*
X8513Y224334D01*
X8567Y224363D01*
X8620Y224395D01*
X8671Y224430D01*
X8720Y224468D01*
X8767Y224508D01*
X8811Y224551D01*
X8854Y224595D01*
X8894Y224642D01*
X8932Y224692D01*
X8967Y224743D01*
X8999Y224795D01*
X9029Y224850D01*
X9055Y224905D01*
X9079Y224963D01*
X9100Y225021D01*
X9117Y225080D01*
X9132Y225140D01*
X9143Y225201D01*
X9151Y225262D01*
X9156Y225324D01*
X9157Y225386D01*
Y226272D01*
X9156Y226333D01*
X9151Y226395D01*
X9143Y226456D01*
X9132Y226517D01*
X9117Y226577D01*
X9100Y226637D01*
X9079Y226695D01*
X9055Y226752D01*
X9029Y226808D01*
X8999Y226862D01*
X8967Y226915D01*
X8932Y226966D01*
X8894Y227015D01*
X8854Y227062D01*
X8811Y227107D01*
X8767Y227149D01*
X8720Y227189D01*
X8671Y227227D01*
X8620Y227262D01*
X8567Y227294D01*
X8513Y227324D01*
X8457Y227351D01*
X8400Y227374D01*
X8341Y227395D01*
X8282Y227413D01*
X8222Y227427D01*
X8161Y227438D01*
X8100Y227446D01*
X8038Y227451D01*
X7976Y227453D01*
D02*
G37*
G36*
X18409Y222827D02*
X17622D01*
X17555Y222825D01*
X17488Y222820D01*
X17422Y222811D01*
X17356Y222799D01*
X17291Y222783D01*
X17227Y222764D01*
X17164Y222742D01*
X17102Y222716D01*
X17041Y222687D01*
X16982Y222655D01*
X16925Y222620D01*
X16870Y222582D01*
X16817Y222542D01*
X16766Y222498D01*
X16717Y222452D01*
X16671Y222403D01*
X16628Y222353D01*
X16587Y222299D01*
X16549Y222244D01*
X16514Y222187D01*
X16482Y222128D01*
X16453Y222068D01*
X16428Y222006D01*
X16405Y221943D01*
X16386Y221878D01*
X16371Y221813D01*
X16358Y221747D01*
X16350Y221681D01*
X16344Y221614D01*
X16342Y221547D01*
X16344Y221480D01*
X16350Y221413D01*
X16358Y221347D01*
X16371Y221281D01*
X16386Y221216D01*
X16405Y221152D01*
X16428Y221089D01*
X16453Y221027D01*
X16482Y220966D01*
X16514Y220907D01*
X16549Y220850D01*
X16587Y220795D01*
X16628Y220742D01*
X16671Y220691D01*
X16717Y220642D01*
X16766Y220596D01*
X16817Y220553D01*
X16870Y220512D01*
X16925Y220474D01*
X16982Y220439D01*
X17041Y220407D01*
X17102Y220378D01*
X17164Y220353D01*
X17227Y220330D01*
X17291Y220311D01*
X17356Y220296D01*
X17422Y220284D01*
X17488Y220275D01*
X17555Y220269D01*
X17622Y220268D01*
X18409D01*
X18476Y220269D01*
X18543Y220275D01*
X18610Y220284D01*
X18676Y220296D01*
X18741Y220311D01*
X18805Y220330D01*
X18868Y220353D01*
X18930Y220378D01*
X18990Y220407D01*
X19049Y220439D01*
X19106Y220474D01*
X19162Y220512D01*
X19215Y220553D01*
X19266Y220596D01*
X19314Y220642D01*
X19360Y220691D01*
X19404Y220742D01*
X19445Y220795D01*
X19483Y220850D01*
X19518Y220907D01*
X19549Y220966D01*
X19578Y221027D01*
X19604Y221089D01*
X19626Y221152D01*
X19645Y221216D01*
X19661Y221281D01*
X19673Y221347D01*
X19682Y221413D01*
X19687Y221480D01*
X19689Y221547D01*
X19687Y221614D01*
X19682Y221681D01*
X19673Y221747D01*
X19661Y221813D01*
X19645Y221878D01*
X19626Y221943D01*
X19604Y222006D01*
X19578Y222068D01*
X19549Y222128D01*
X19518Y222187D01*
X19483Y222244D01*
X19445Y222299D01*
X19404Y222353D01*
X19360Y222403D01*
X19314Y222452D01*
X19266Y222498D01*
X19215Y222542D01*
X19162Y222582D01*
X19106Y222620D01*
X19049Y222655D01*
X18990Y222687D01*
X18930Y222716D01*
X18868Y222742D01*
X18805Y222764D01*
X18741Y222783D01*
X18676Y222799D01*
X18610Y222811D01*
X18543Y222820D01*
X18476Y222825D01*
X18409Y222827D01*
D02*
G37*
%LPD*%
D10*
X295640Y141769D02*
D03*
Y125431D02*
D03*
X287175Y141769D02*
D03*
Y125431D02*
D03*
X282776Y213850D02*
D03*
Y230188D02*
D03*
X291240Y213850D02*
D03*
Y230188D02*
D03*
D11*
X66961Y217000D02*
D03*
Y225000D02*
D03*
X121339Y217800D02*
D03*
Y225800D02*
D03*
X130140D02*
D03*
Y217800D02*
D03*
D12*
X100883Y204131D02*
D03*
X92883D02*
D03*
X201900Y136200D02*
D03*
X209900D02*
D03*
X201900Y144200D02*
D03*
X209900D02*
D03*
X201900Y152200D02*
D03*
X209900D02*
D03*
X137941Y230196D02*
D03*
X145941D02*
D03*
X50353Y198898D02*
D03*
X42353D02*
D03*
X65154D02*
D03*
X57154D02*
D03*
D13*
X153339Y218749D02*
D03*
Y224851D02*
D03*
X113418Y224505D02*
D03*
Y218402D02*
D03*
X91568Y225950D02*
D03*
Y232052D02*
D03*
X96946Y220024D02*
D03*
Y226127D02*
D03*
X85438Y225950D02*
D03*
Y232052D02*
D03*
X103076Y220024D02*
D03*
Y226127D02*
D03*
X73261Y199505D02*
D03*
Y205607D02*
D03*
X76946Y232127D02*
D03*
Y226024D02*
D03*
X59425Y216749D02*
D03*
Y222851D02*
D03*
X231713Y151949D02*
D03*
Y158051D02*
D03*
X224600Y151949D02*
D03*
Y158051D02*
D03*
X296500Y97051D02*
D03*
Y90949D02*
D03*
Y103449D02*
D03*
Y109551D02*
D03*
X227185Y217146D02*
D03*
Y223248D02*
D03*
X221185Y217146D02*
D03*
Y223248D02*
D03*
X215185Y217146D02*
D03*
Y223248D02*
D03*
X209185Y217146D02*
D03*
Y223248D02*
D03*
X222516Y176575D02*
D03*
Y170472D02*
D03*
X268179Y232172D02*
D03*
Y226070D02*
D03*
X209906Y120901D02*
D03*
Y127003D02*
D03*
X203906Y120901D02*
D03*
Y127003D02*
D03*
X197956Y120901D02*
D03*
Y127003D02*
D03*
X274309Y232172D02*
D03*
Y226070D02*
D03*
X90000Y54489D02*
D03*
Y60591D02*
D03*
X96130Y54489D02*
D03*
Y60591D02*
D03*
X250984Y217083D02*
D03*
Y223186D02*
D03*
X256791Y217083D02*
D03*
Y223186D02*
D03*
X245079Y217083D02*
D03*
Y223186D02*
D03*
X233185Y217146D02*
D03*
Y223248D02*
D03*
X239185Y217146D02*
D03*
Y223248D02*
D03*
D14*
X25021Y209241D02*
D03*
Y214359D02*
D03*
D15*
X171477Y200000D02*
D03*
Y229134D02*
D03*
D16*
X65451Y208700D02*
D03*
X59349D02*
D03*
X81306Y198619D02*
D03*
X87409D02*
D03*
X275951Y181213D02*
D03*
X269849D02*
D03*
X245963Y167409D02*
D03*
X252065D02*
D03*
X257213D02*
D03*
X263315D02*
D03*
X201498Y189700D02*
D03*
X207600D02*
D03*
X204649Y182297D02*
D03*
X210751D02*
D03*
X208151Y197400D02*
D03*
X202049D02*
D03*
X208166Y203109D02*
D03*
X202064D02*
D03*
X278366Y140858D02*
D03*
X272264D02*
D03*
X153454Y112300D02*
D03*
X147351D02*
D03*
X264559Y189012D02*
D03*
X270661D02*
D03*
X264559Y195012D02*
D03*
X270661D02*
D03*
X282661Y189012D02*
D03*
X276559D02*
D03*
X282661Y195012D02*
D03*
X276559D02*
D03*
X272264Y152136D02*
D03*
X278366D02*
D03*
X272264Y146989D02*
D03*
X278366D02*
D03*
X272342Y157283D02*
D03*
X278445D02*
D03*
X104724Y152854D02*
D03*
X98622D02*
D03*
X276575Y201142D02*
D03*
X282677D02*
D03*
X270669D02*
D03*
X264567D02*
D03*
X263315Y160297D02*
D03*
X257213D02*
D03*
X252065D02*
D03*
X245963D02*
D03*
X153351Y103900D02*
D03*
X147249D02*
D03*
X213314Y203109D02*
D03*
X219416D02*
D03*
X213299Y195997D02*
D03*
X219401D02*
D03*
X266051Y117500D02*
D03*
X259949D02*
D03*
X281051Y118000D02*
D03*
X274949D02*
D03*
X275851Y174100D02*
D03*
X269749D02*
D03*
D17*
X261014Y233490D02*
D03*
X248810D02*
D03*
X236398Y117500D02*
D03*
X248602D02*
D03*
D18*
X268529Y219587D02*
D03*
Y209350D02*
D03*
D19*
X72047Y119272D02*
D03*
Y111791D02*
D03*
Y104311D02*
D03*
Y96831D02*
D03*
Y89350D02*
D03*
X124016D02*
D03*
Y96831D02*
D03*
Y104311D02*
D03*
Y111791D02*
D03*
Y119272D02*
D03*
D20*
X83071Y78327D02*
D03*
X90551D02*
D03*
X98032D02*
D03*
X105512D02*
D03*
X112992D02*
D03*
Y130295D02*
D03*
X105512D02*
D03*
X98032D02*
D03*
X90551D02*
D03*
X83071D02*
D03*
D21*
X45169Y232500D02*
D03*
X47669D02*
D03*
X50269D02*
D03*
X52769D02*
D03*
Y209500D02*
D03*
X50269D02*
D03*
X47669D02*
D03*
X45169D02*
D03*
D22*
X138713Y223032D02*
D03*
D23*
Y221063D02*
D03*
Y219095D02*
D03*
Y217126D02*
D03*
X144028Y223032D02*
D03*
Y221063D02*
D03*
Y219095D02*
D03*
Y217126D02*
D03*
D24*
X266335Y147812D02*
D03*
Y145843D02*
D03*
Y149780D02*
D03*
X256295Y147812D02*
D03*
Y149780D02*
D03*
Y145843D02*
D03*
D25*
X265252Y142792D02*
D03*
X263283D02*
D03*
X261315D02*
D03*
X259347D02*
D03*
X257378D02*
D03*
X261315Y152831D02*
D03*
X263283D02*
D03*
X259347D02*
D03*
X257378D02*
D03*
D26*
X265252D02*
D03*
D27*
X79700Y210000D02*
D03*
D28*
X81700D02*
D03*
X83700D02*
D03*
X85700D02*
D03*
Y221600D02*
D03*
X83700D02*
D03*
X81700D02*
D03*
X79700D02*
D03*
D29*
X88500Y212800D02*
D03*
Y214800D02*
D03*
Y216800D02*
D03*
Y218800D02*
D03*
X76900D02*
D03*
Y216800D02*
D03*
Y214800D02*
D03*
Y212800D02*
D03*
D30*
X81420Y214521D02*
D03*
Y217079D02*
D03*
X83979D02*
D03*
Y214521D02*
D03*
D31*
X16736Y212000D02*
D03*
Y214559D02*
D03*
Y209441D02*
D03*
Y217118D02*
D03*
Y206882D02*
D03*
D32*
X6205Y216528D02*
D03*
Y207472D02*
D03*
D33*
X133842Y210312D02*
D03*
Y199288D02*
D03*
X148842Y210312D02*
D03*
Y199288D02*
D03*
D34*
X33382Y209900D02*
D03*
Y198900D02*
D03*
X33595Y229710D02*
D03*
Y218709D02*
D03*
D35*
X243701Y191800D02*
D03*
D36*
X230177Y202627D02*
D03*
D37*
Y200658D02*
D03*
Y198690D02*
D03*
Y196721D02*
D03*
Y194753D02*
D03*
Y192784D02*
D03*
Y190816D02*
D03*
Y188847D02*
D03*
Y186879D02*
D03*
Y184910D02*
D03*
Y182942D02*
D03*
Y180973D02*
D03*
X257224D02*
D03*
Y182942D02*
D03*
Y184910D02*
D03*
Y186879D02*
D03*
Y188847D02*
D03*
Y190816D02*
D03*
Y192784D02*
D03*
Y194753D02*
D03*
Y196721D02*
D03*
Y198690D02*
D03*
Y200658D02*
D03*
Y202627D02*
D03*
D38*
X232874Y178276D02*
D03*
X234842D02*
D03*
X236811D02*
D03*
X238779D02*
D03*
X240748D02*
D03*
X242717D02*
D03*
X244685D02*
D03*
X246654D02*
D03*
X248622D02*
D03*
X250591D02*
D03*
X252559D02*
D03*
X254528D02*
D03*
Y205324D02*
D03*
X252559D02*
D03*
X250591D02*
D03*
X248622D02*
D03*
X246654D02*
D03*
X244685D02*
D03*
X242717D02*
D03*
X240748D02*
D03*
X238779D02*
D03*
X236811D02*
D03*
X234842D02*
D03*
X232874D02*
D03*
D39*
X209500Y160839D02*
X216831Y149508D01*
X206000Y90000D02*
Y110000D01*
X291500Y59000D02*
X295000Y62500D01*
X295500Y18000D02*
Y22000D01*
X296000Y22500D01*
X291500Y40000D02*
X294000Y42500D01*
X220500Y132239D02*
X222740Y130000D01*
X241800Y127200D02*
X249444D01*
X239867Y129133D02*
X241800Y127200D01*
X239867Y129133D02*
X240734Y130000D01*
X216831Y141611D02*
X220500Y137942D01*
Y132239D02*
Y137942D01*
X23284Y225419D02*
X23484Y225219D01*
X23284Y225419D02*
Y228050D01*
X59500Y213000D02*
Y216074D01*
X59300Y216274D02*
X59500Y216074D01*
X59425Y216749D02*
X59600Y216574D01*
X66961Y217000D02*
X67000Y213000D01*
X87150Y203516D02*
X92268D01*
X92883Y204131D01*
X245399Y135900D02*
X251772Y129527D01*
X244000Y135900D02*
X245399D01*
X40986Y237100D02*
X48931D01*
X23416Y218916D02*
Y225150D01*
X22515Y218015D02*
X23416Y218916D01*
X21150Y217129D02*
X22515Y218015D01*
X16836Y217129D02*
X21150D01*
X25021Y214359D01*
X23416Y225150D02*
X23484Y225219D01*
X28462Y223500D02*
X33208Y218754D01*
X29480Y209900D02*
X33382D01*
X25021Y214359D02*
X29480Y209900D01*
X40190Y213100D02*
Y229661D01*
Y201062D02*
Y213100D01*
X36990Y209900D02*
X40190Y213100D01*
X33382Y209900D02*
X36990D01*
X152821Y210200D02*
X155500D01*
X155064Y217024D02*
X156332D01*
X145933Y199433D02*
X146300Y199800D01*
X145733Y199233D02*
X145933Y199433D01*
X137433D02*
X145933D01*
X278461Y157300D02*
X281900D01*
X278366Y146989D02*
X281800D01*
X278366Y152136D02*
X282000D01*
X65500Y204900D02*
X65583Y204983D01*
X66961Y225000D02*
X70700D01*
X64500D02*
X66961D01*
X133853Y210300D02*
X140600D01*
X151902Y211119D02*
X152821Y210200D01*
X81700Y227854D02*
X81964Y228119D01*
X83700Y225666D02*
X84058Y226024D01*
X250492Y128248D02*
X251772Y129527D01*
X249444Y127200D02*
X250492Y128248D01*
X63176Y226324D02*
X64500Y225000D01*
X65154Y198898D02*
X65156Y198900D01*
X69300D01*
X73261Y195561D02*
Y199505D01*
X81207Y195500D02*
Y198520D01*
X199300Y197400D02*
X202049D01*
X198300Y198400D02*
X199300Y197400D01*
X215100Y223333D02*
X215185Y223248D01*
Y223231D02*
Y223248D01*
X221000Y223433D02*
X221185Y223248D01*
X221000Y223433D02*
Y227600D01*
X226900Y223533D02*
X227185Y223248D01*
X226900Y223533D02*
Y227500D01*
X233185Y223248D02*
X233200Y223263D01*
Y227300D01*
X239247Y223186D02*
X239600D01*
X239247D02*
X239600Y222833D01*
X239185Y223248D02*
X239247Y223186D01*
X239600Y222833D02*
Y223186D01*
X245000Y223264D02*
Y227300D01*
X250900Y223270D02*
Y227200D01*
X256606Y223000D02*
X256791Y223186D01*
X264800Y225900D02*
X268009D01*
X274439Y226200D02*
X278000D01*
X276559Y185941D02*
Y189012D01*
X270661Y187739D02*
X272400Y186000D01*
X276559Y191859D02*
Y195012D01*
X270661Y191961D02*
Y195012D01*
X255442Y204882D02*
X260388D01*
X255205Y205118D02*
X255442Y204882D01*
X276859Y181500D02*
X280200D01*
X204500Y182446D02*
Y186100D01*
X198400Y144200D02*
X201900D01*
X203600Y127309D02*
Y131000D01*
X210000Y127097D02*
Y130200D01*
X198100Y136200D02*
X201900D01*
X215016Y134184D02*
X218500Y130700D01*
Y120000D02*
Y130700D01*
X216000Y120000D02*
X218500D01*
X213980D02*
X216000D01*
X198400Y152200D02*
X201900D01*
X278445Y157283D02*
X278461Y157300D01*
X101152Y204400D02*
X106800D01*
X100883Y204131D02*
X101152Y204400D01*
X81964Y228119D02*
X84058Y226024D01*
X81964Y228119D02*
Y234471D01*
X83093Y235600D01*
X68383Y225300D02*
Y230757D01*
X65339Y233800D02*
X68383Y230757D01*
X209185Y223248D02*
X209202Y223231D01*
X222516Y167693D02*
Y170472D01*
X221555Y166732D02*
X222516Y167693D01*
X74977Y232127D02*
X76946D01*
X73457Y230607D02*
X74977Y232127D01*
X148842Y210312D02*
X151095D01*
X263779Y214567D02*
X275590D01*
X277559Y212598D01*
X262823Y213610D02*
X263779Y214567D01*
X277559Y206260D02*
X282410Y201409D01*
X277559Y206260D02*
Y212598D01*
X282410Y201409D02*
X282677Y201142D01*
X282366Y201409D02*
X282410D01*
X282661Y189012D02*
Y195012D01*
Y201114D01*
X252065Y160297D02*
X257213D01*
X238848Y216809D02*
X239185Y217146D01*
X238848Y213364D02*
Y216809D01*
X271568Y152831D02*
X272264Y152136D01*
Y146989D02*
Y152136D01*
X121339Y209800D02*
X131339Y199800D01*
X121339Y209800D02*
Y217800D01*
X114288D02*
X121339D01*
X104626Y152756D02*
X104724Y152854D01*
X99852Y147982D02*
X104626Y152756D01*
X61466Y147982D02*
X99852D01*
X216831Y141611D02*
Y149508D01*
X209906Y120901D02*
X213079D01*
X213980Y120000D01*
X206000Y110000D02*
X216000Y120000D01*
X203906Y120901D02*
X209906D01*
X104626Y142456D02*
X106035Y141047D01*
X104626Y142456D02*
Y152756D01*
X54823Y141339D02*
X61466Y147982D01*
X54823Y114961D02*
Y141339D01*
X199956Y120901D02*
X203906D01*
X54823Y114961D02*
X57992Y111791D01*
X54823Y106299D02*
Y114961D01*
Y106299D02*
X56811Y104311D01*
X137897Y199233D02*
X145733D01*
X40190Y201062D02*
X42353Y198898D01*
X165028Y199433D02*
X165074Y199479D01*
X72686Y200079D02*
X73261Y199505D01*
X92883Y202587D02*
X97670Y197800D01*
X92883Y202587D02*
Y204131D01*
X83093Y235600D02*
X95335D01*
X99017Y231918D01*
X162326Y199479D02*
X165028D01*
X153339Y224851D02*
X153969Y225481D01*
X103076Y220024D02*
X109087Y226036D01*
X99017Y231918D02*
X109087D01*
X151095Y210312D02*
X151902Y211119D01*
X153339Y218749D02*
X155064Y217024D01*
X57992Y111791D02*
X72047D01*
X56811Y104311D02*
X72047D01*
X109087Y226036D02*
Y231918D01*
X137941D02*
X141194Y235170D01*
X197500Y182635D02*
Y192984D01*
X201498Y189700D02*
Y193702D01*
X20950Y230384D02*
X23284Y228050D01*
X18729Y230384D02*
X20950D01*
X9724Y239389D02*
X18729Y230384D01*
X7000Y239389D02*
X9724D01*
X153969Y227328D02*
X154700Y228059D01*
X153969Y225481D02*
Y227328D01*
X141900Y235700D02*
X150900D01*
X137941Y230196D02*
Y231918D01*
X211500Y225529D02*
Y226000D01*
X215100Y223333D02*
Y226400D01*
X195126Y231268D02*
X196535Y232677D01*
X193802Y219018D02*
X194600Y219816D01*
X195126D02*
Y231268D01*
X194600Y219816D02*
X195126D01*
Y219619D02*
X200868D01*
X209185Y217146D02*
X215185D01*
X198000Y203300D02*
X201546D01*
X205913Y212200D02*
X211100D01*
X208612Y217719D02*
X209185Y217146D01*
X203413Y214700D02*
X205913Y212200D01*
X200868Y219619D02*
X202768Y217719D01*
X208612D01*
X196300Y214700D02*
X203413D01*
X191157Y198843D02*
X191300Y198700D01*
X191784D01*
X197500Y192984D01*
X201498Y193702D02*
X201595Y193800D01*
X201700D01*
X253669Y213610D02*
X254579Y212700D01*
X275235Y174716D02*
X275551Y174400D01*
X259500Y113300D02*
Y117051D01*
X259949Y117500D01*
X274500Y113300D02*
Y117551D01*
X274449Y117500D02*
X274500Y117551D01*
X274949Y118000D01*
X236000Y111300D02*
Y116700D01*
X222740Y130000D02*
X222839Y130100D01*
X225200D01*
X240634D02*
X240734Y130000D01*
X236300Y130100D02*
X240634D01*
X250492Y128248D02*
X252840Y125900D01*
X267500D01*
X273214Y131614D01*
X272264Y140858D02*
Y146989D01*
X268083Y140800D02*
X268200Y140683D01*
X197500Y182635D02*
X206119Y174015D01*
X209500Y164200D01*
Y160839D02*
Y164200D01*
X249987Y155187D02*
Y158219D01*
X252065Y160297D01*
X268200Y136300D02*
Y140683D01*
X264600Y131100D02*
Y132700D01*
X268200Y136300D01*
X84390Y206276D02*
X87150Y203516D01*
X84100Y206276D02*
X84390D01*
X253669Y213118D02*
Y213610D01*
X250922Y210039D02*
Y210371D01*
X253669Y213118D01*
X130140Y217800D02*
X131339D01*
X133600D01*
X134700Y216700D01*
X97670Y197800D02*
X120825D01*
X104068Y213383D02*
Y220198D01*
Y212694D02*
Y213383D01*
Y212694D02*
X104830Y211932D01*
X109087Y231918D02*
X137941D01*
X65839Y225300D02*
X68383D01*
X33595Y229710D02*
X40986Y237100D01*
X81207Y198520D02*
X81417Y198730D01*
X65583Y204983D02*
Y208700D01*
X59300Y216274D02*
X59600Y216574D01*
X296686Y109551D02*
Y113500D01*
X198000Y127003D02*
Y131100D01*
X274500Y117551D02*
Y118000D01*
X201546Y203300D02*
X201846Y203600D01*
X202200Y203246D01*
X275551Y174400D02*
X279800D01*
X209202Y223231D02*
X211500Y225529D01*
X239600Y223186D02*
Y227200D01*
X256606Y223000D02*
X260900D01*
X248700Y233590D02*
X253010D01*
X106035Y130295D02*
Y141047D01*
X104626Y152756D02*
Y166626D01*
X199649Y83649D02*
X206000Y90000D01*
X208000Y134235D02*
Y144200D01*
X209500Y144700D02*
Y160839D01*
X104626Y166626D02*
X137433Y199433D01*
X145933D02*
X165028D01*
X113339Y218749D02*
X114288Y217800D01*
X169942Y198843D02*
X188257Y217157D01*
X169942Y198843D02*
X191157D01*
X238848Y213364D02*
X242126Y210086D01*
X214001Y217291D02*
X238001D01*
X282366Y201409D02*
X282661Y201114D01*
X253669Y213610D02*
X262823D01*
D40*
X286206Y20714D02*
X296000Y30508D01*
Y32500D01*
X286206Y52210D02*
X286496Y52500D01*
X296000D01*
X290000Y90000D02*
X296000Y84000D01*
X269092Y90000D02*
X290000D01*
X296000Y72500D02*
Y84000D01*
X294500Y93000D02*
X296500Y91000D01*
X248592Y93000D02*
X294500D01*
X216500Y85000D02*
Y105000D01*
X212235Y88475D02*
Y105251D01*
X199592Y75832D02*
X212235Y88475D01*
X296500Y97051D02*
Y103449D01*
X281051Y118000D02*
X284551Y121500D01*
X264102Y121102D02*
X270359D01*
X264051Y121051D02*
X264102Y121102D01*
X266051Y117500D02*
Y121051D01*
X216500Y105000D02*
X231800Y120300D01*
Y146600D01*
X229484Y122500D02*
Y141616D01*
X212235Y105251D02*
X229484Y122500D01*
X224400Y146700D02*
X229484Y141616D01*
X270359Y121102D02*
X274654Y125397D01*
X103233Y213528D02*
X103578Y213873D01*
X238360Y149340D02*
X253200Y134500D01*
X294000Y42500D02*
X296000D01*
X295000Y62500D02*
X296000D01*
X66961Y213039D02*
X67000Y213000D01*
X87100Y210000D02*
X88800Y208300D01*
X85700Y210000D02*
X87100D01*
X83979Y214521D02*
X85700Y212800D01*
X242400Y154659D02*
Y156734D01*
X88500Y212800D02*
X90200D01*
X96529Y214800D02*
X97300Y215571D01*
X88500Y214800D02*
X96529D01*
X97300Y215571D02*
Y215700D01*
X3900Y228134D02*
X6205Y225829D01*
X3900Y228134D02*
Y232800D01*
X21282Y206882D02*
X21800Y207400D01*
X16736Y206882D02*
X21282D01*
X8144Y215800D02*
X11800D01*
X7188Y207700D02*
X11900D01*
X19100Y202580D02*
Y202832D01*
X9487Y196100D02*
X12300D01*
X18016Y203664D02*
Y203916D01*
X25021Y209241D02*
X25100Y209162D01*
Y204400D02*
Y209162D01*
X26800Y197700D02*
X28000Y198900D01*
X33382D01*
X8445Y201533D02*
X9324Y200654D01*
X134877Y221063D02*
X138713D01*
X130140Y225800D02*
X134877Y221063D01*
X132634Y219095D02*
X138713D01*
X129192Y224851D02*
X130140Y225800D01*
X148257Y219095D02*
X150884Y221722D01*
X151717Y217126D02*
X153339Y218749D01*
X144028Y217126D02*
X151717D01*
X144028Y219095D02*
X148257D01*
X59425Y221670D02*
X60096Y221000D01*
X133842Y210312D02*
X133853Y210300D01*
X76946Y224354D02*
Y226024D01*
Y224354D02*
X79700Y221600D01*
X87218D02*
X91568Y225950D01*
X85700Y221600D02*
X87218D01*
X88500Y216800D02*
X88684Y216616D01*
X88500Y216800D02*
X90073D01*
X85700Y210000D02*
Y212800D01*
X79700Y206327D02*
X87409Y198619D01*
X79700Y206327D02*
Y210000D01*
X263283Y140717D02*
Y142792D01*
X253200Y134500D02*
X258300D01*
X124527Y103800D02*
X142594D01*
X124016Y104311D02*
X124527Y103800D01*
X147149D02*
X147249Y103900D01*
X142594Y103800D02*
X147149D01*
X142696Y112000D02*
X147051D01*
X124748D02*
X142696D01*
X147051D02*
X147351Y112300D01*
X153454D02*
X157200D01*
X52769Y232500D02*
Y233569D01*
Y230591D02*
Y232500D01*
X245000Y223264D02*
X245079Y223186D01*
X250900Y223270D02*
X250984Y223186D01*
X268009Y225900D02*
X268179Y226070D01*
X274309D02*
X274439Y226200D01*
X276559Y185941D02*
X276600Y185900D01*
X270661Y187739D02*
Y189012D01*
X276500Y191800D02*
X276559Y191859D01*
X270600Y191900D02*
X270661Y191961D01*
X253346Y208563D02*
X267741D01*
X202064Y203109D02*
X202200Y203246D01*
X204500Y182446D02*
X204649Y182297D01*
X203600Y127309D02*
X203906Y127003D01*
X209906D02*
X210000Y127097D01*
X198000Y136100D02*
X198100Y136200D01*
X210751Y182297D02*
X213386D01*
X242400Y156734D02*
X245963Y160297D01*
X236772Y167481D02*
X236772D01*
X231796Y162504D02*
X236772Y167481D01*
X224400Y146700D02*
X224600Y146900D01*
Y151949D01*
X231713Y146687D02*
X231800Y146600D01*
X231713Y146687D02*
Y151949D01*
X263315Y159409D02*
Y160297D01*
X263283Y155292D02*
X265315Y157323D01*
X263283Y152831D02*
Y155292D01*
X103578Y213873D02*
X104068Y213383D01*
X222516Y176575D02*
Y181422D01*
X96946Y226127D02*
X103076D01*
X145941Y231918D02*
X146661Y231198D01*
X144028Y224753D02*
X145941Y226666D01*
X90000Y60591D02*
X91075Y61666D01*
X245963Y160297D02*
Y167409D01*
X263315Y160297D02*
Y167409D01*
X90000Y54489D02*
X96130D01*
X277756Y140248D02*
X278366Y140858D01*
X277756Y136811D02*
Y140248D01*
X257213Y167409D02*
Y168208D01*
X252065Y167409D02*
Y168160D01*
X251315D02*
Y171561D01*
Y168160D02*
X252065Y167409D01*
X261237Y142714D02*
X261315Y142792D01*
X131339Y217800D02*
X132634Y219095D01*
X262795Y219587D02*
X268529D01*
X260292Y217083D02*
X262795Y219587D01*
X256791Y217083D02*
X260292D01*
X270472Y236614D02*
X284814D01*
X268279Y234421D02*
X270472Y236614D01*
X284814D02*
X291240Y230188D01*
X268279Y232972D02*
Y234421D01*
X291240Y213850D02*
Y230188D01*
X230177Y171339D02*
X230709Y170807D01*
Y169980D02*
Y170807D01*
X267401Y157323D02*
X267441Y157283D01*
X265315Y157323D02*
X267401D01*
X267441Y157283D02*
X272342D01*
X252559Y205453D02*
Y207776D01*
X282776Y213850D02*
Y230188D01*
X277193D02*
X282776D01*
X242126Y210086D02*
X244685Y207527D01*
Y205453D02*
Y207527D01*
X265252Y152831D02*
X271568D01*
X266335Y145843D02*
X271118D01*
X263315Y201409D02*
X264264D01*
X261544Y198690D02*
X264264Y201409D01*
X264559Y189012D02*
X264567Y189020D01*
X264469Y188921D02*
X264559Y189012D01*
X264469Y184646D02*
Y188921D01*
X222713Y176378D02*
X225984D01*
X222516Y176575D02*
X222713Y176378D01*
X246654Y205453D02*
Y215508D01*
X245079Y217083D02*
X246654Y215508D01*
X50269Y198983D02*
X50353Y198898D01*
X57154D01*
X144028Y223032D02*
Y224753D01*
X59425Y221670D02*
Y222851D01*
X168377Y228613D02*
X170079D01*
X208166Y203109D02*
X213314D01*
X292126Y180315D02*
Y212964D01*
X291240Y213850D02*
X292126Y212964D01*
X248622Y214721D02*
X250984Y217083D01*
X248622Y205453D02*
Y214721D01*
X250591Y205453D02*
Y210039D01*
X250922Y210371D01*
X267741Y208563D02*
X268529Y209350D01*
X252559Y207776D02*
X253346Y208563D01*
X138713Y223032D02*
Y229425D01*
X250984Y217083D02*
X256791D01*
X263315Y160297D02*
X265286D01*
X267789Y162800D01*
X124539Y111791D02*
X124748Y112000D01*
X153351Y103900D02*
X153551Y103700D01*
X156700D01*
X219416Y203109D02*
X221590D01*
X219616Y197054D02*
X219819Y196850D01*
X208366Y197409D02*
X209779Y195997D01*
X213299D01*
X253502Y121102D02*
X264102D01*
X249950Y117550D02*
X253502Y121102D01*
X249950Y117550D02*
X252000Y115500D01*
Y104500D02*
Y115500D01*
X90400Y218800D02*
X92000Y220400D01*
Y221000D01*
X73200Y214800D02*
X76900D01*
X92822Y216616D02*
X95681Y219475D01*
Y219858D01*
X95847Y220024D01*
X88500Y218800D02*
X90400D01*
X88684Y216616D02*
X92822D01*
X90200Y212800D02*
X92000Y211000D01*
X103233D01*
Y211932D01*
X60096Y221000D02*
X70928D01*
X75128Y216800D02*
X76900D01*
X73261Y205607D02*
Y209139D01*
X73250Y209150D02*
X73261Y209139D01*
X73250Y209150D02*
X76900Y212800D01*
X71800Y213400D02*
X73200Y214800D01*
X70928Y221000D02*
X75128Y216800D01*
X54100Y234900D02*
X55100D01*
X52769Y233569D02*
X54100Y234900D01*
X16700Y224074D02*
Y226500D01*
Y224074D02*
X18016Y222758D01*
X50269Y198983D02*
Y202163D01*
X50381Y202275D01*
X50269Y207591D02*
X50381Y207479D01*
Y202275D02*
Y207479D01*
X146661Y231198D02*
X146664Y231200D01*
X150500D01*
X150884Y221722D02*
X161486D01*
X168377Y228613D01*
X145941Y230196D02*
Y231918D01*
Y226666D02*
Y230196D01*
X137941D02*
X138713Y229425D01*
X150651Y224851D02*
X153339D01*
X146863Y221063D02*
X150651Y224851D01*
X144028Y221063D02*
X146863D01*
X212899Y232677D02*
X216535D01*
X204500Y224278D02*
X212899Y232677D01*
X203906Y206500D02*
X222390D01*
X194200Y209000D02*
X195900Y207300D01*
X204500Y221900D02*
Y224278D01*
X195900Y207300D02*
X199494D01*
X200575Y206219D01*
X203625D01*
X203906Y206500D01*
X202100Y209900D02*
X203481Y208519D01*
X222917D01*
X199600Y223800D02*
Y225742D01*
X206535Y232677D01*
X262432Y172900D02*
X262600D01*
X259300Y176600D02*
X268488D01*
X276570Y181803D02*
X276859Y181500D01*
X269749Y174100D02*
X270368Y174720D01*
X264613Y170719D02*
X282530D01*
X292126Y180315D01*
X269153Y180965D02*
X269291Y181102D01*
X256203Y147719D02*
X256295Y147812D01*
X256600Y138700D02*
X257400D01*
X284551Y121500D02*
X291900D01*
X257400Y138700D02*
X259347Y140647D01*
Y142792D01*
X258300Y134500D02*
X261315Y137515D01*
Y142792D01*
X263283Y140717D02*
X265100Y138900D01*
Y138500D02*
Y138900D01*
X214400Y176800D02*
Y180765D01*
X217700Y173000D02*
X218200Y173500D01*
Y181800D01*
X199600Y173300D02*
X201500Y171400D01*
X224600Y158051D02*
Y158065D01*
X259347Y152831D02*
Y153841D01*
X259300Y155394D02*
X263315Y159409D01*
X259300Y152900D02*
Y155394D01*
X256513Y154987D02*
X257378Y154122D01*
Y152831D02*
Y154122D01*
X242400Y154659D02*
X247278Y149780D01*
X256295D01*
X251300Y142300D02*
Y145200D01*
X253819Y147719D01*
X256203D01*
X59425Y221670D02*
X60288D01*
X199592Y20500D02*
X269092Y90000D01*
X85438Y232127D02*
X91568D01*
X270661Y200500D02*
X276559D01*
X199651Y52151D02*
X252000Y104500D01*
X274654Y125397D02*
X287300D01*
Y141736D01*
X199592Y44000D02*
X248592Y93000D01*
X91075Y61666D02*
Y78327D01*
X52869Y208543D02*
X59581D01*
X274410Y232972D02*
X277193Y230188D01*
X291900Y121500D02*
X295800Y125400D01*
Y141736D01*
X199525Y68025D02*
X216500Y85000D01*
X113339Y224851D02*
X129192D01*
X230177Y180973D02*
Y181102D01*
X228809Y202627D02*
X230177D01*
X222917Y208519D02*
X228809Y202627D01*
X228232Y200658D02*
X230177D01*
X222390Y206500D02*
X228232Y200658D01*
X226010Y198690D02*
X230177D01*
X221590Y203109D02*
X226010Y198690D01*
X220126Y196721D02*
X230177D01*
X219401Y195997D02*
X220126Y196721D01*
X223296Y194753D02*
X230177D01*
X217953Y189409D02*
X223296Y194753D01*
X223873Y192784D02*
X230177D01*
X213386Y182297D02*
X223873Y192784D01*
X224450Y190816D02*
X230177D01*
X214400Y180765D02*
X224450Y190816D01*
X225247Y188847D02*
X230177D01*
X218200Y181800D02*
X225247Y188847D01*
X242717Y176181D02*
Y178276D01*
X224600Y158065D02*
X242717Y176181D01*
X244685Y175394D02*
Y178276D01*
X236772Y167481D02*
X244685Y175394D01*
X246654Y174425D02*
Y178276D01*
X238360Y166131D02*
X246654Y174425D01*
X248622Y174253D02*
Y178276D01*
Y174253D02*
X251315Y171561D01*
X250591Y174830D02*
Y178276D01*
Y174830D02*
X257213Y168208D01*
X254528Y176228D02*
Y178276D01*
X258928Y176228D02*
X259300Y176600D01*
X257224Y180973D02*
X257233Y180965D01*
X269601D02*
X269849Y181213D01*
X257233Y180965D02*
X269153D01*
X269601D01*
X257224Y198690D02*
X261544D01*
X103233Y213000D02*
X103233Y211932D01*
X103233Y213000D02*
Y213528D01*
X230177Y171339D02*
Y180973D01*
X227973Y186879D02*
X230177D01*
X222516Y181422D02*
X227973Y186879D01*
X207600Y189409D02*
X217953D01*
X262432Y172900D02*
X264613Y170719D01*
X261614Y231890D02*
X262697Y232972D01*
X268279D01*
X238360Y149340D02*
Y166131D01*
X6205Y199382D02*
X9487Y196100D01*
X6205Y208684D02*
X7188Y207700D01*
X6205Y217739D02*
X8144Y215800D01*
X19100Y198800D02*
Y202580D01*
X18016Y203916D02*
X19100Y202832D01*
X18016Y203664D02*
X19100Y202580D01*
X82700Y215800D02*
X83979Y214521D01*
X81700Y214800D02*
X82700Y215800D01*
X201500Y160200D02*
Y171400D01*
X254528Y176228D02*
X258928D01*
X268488Y176600D02*
X270368Y174720D01*
X264567Y189020D02*
Y201142D01*
X231300Y157500D02*
X231796Y157996D01*
Y162504D01*
X0Y0D02*
X301181D01*
Y244100D01*
X0D02*
X301181D01*
X0Y0D02*
Y244100D01*
D41*
X48931Y237100D02*
X50266Y235766D01*
Y230594D02*
X50269Y230591D01*
X40190Y229661D02*
X43028Y232500D01*
X45169D01*
X47669Y209500D02*
Y210600D01*
Y204769D02*
Y209500D01*
X57007Y226324D02*
X63176D01*
X55826Y225143D02*
X57007Y226324D01*
X47669Y226573D02*
Y230591D01*
Y226573D02*
X49098Y225143D01*
X55826D01*
X46700Y203800D02*
X47669Y204769D01*
X50266Y230594D02*
Y235766D01*
D42*
X70700Y225000D02*
X76900Y218800D01*
X83700Y221600D02*
Y225666D01*
X81700Y221600D02*
Y227854D01*
Y207014D02*
Y210000D01*
Y207014D02*
X82439Y206276D01*
X83700D01*
Y210000D01*
D43*
X296000Y22500D02*
D03*
Y32500D02*
D03*
Y42500D02*
D03*
Y52500D02*
D03*
Y62500D02*
D03*
Y72500D02*
D03*
X112631Y207832D02*
D03*
Y197831D02*
D03*
X17000Y239389D02*
D03*
X27000D02*
D03*
X120825Y198225D02*
D03*
X66600Y235200D02*
D03*
X7000Y239389D02*
D03*
X38068Y239000D02*
D03*
X104630Y213000D02*
D03*
X187000Y238072D02*
D03*
X236000Y238000D02*
D03*
X160200Y238072D02*
D03*
X226535Y232677D02*
D03*
X216535D02*
D03*
X206535D02*
D03*
X196535D02*
D03*
D44*
X267789Y162800D02*
D03*
X242400Y154659D02*
D03*
X238500Y163500D02*
D03*
X142594Y103800D02*
D03*
X142696Y112000D02*
D03*
X224400Y146700D02*
D03*
X231800Y146600D02*
D03*
X296686Y113500D02*
D03*
X291500Y59000D02*
D03*
X295500Y18000D02*
D03*
X291500Y40000D02*
D03*
X67000Y213000D02*
D03*
X59500D02*
D03*
X244000Y135900D02*
D03*
X97300Y215700D02*
D03*
X3900Y232800D02*
D03*
X21800Y207400D02*
D03*
X11800Y215800D02*
D03*
X11900Y207700D02*
D03*
X19100Y198800D02*
D03*
X25100Y204400D02*
D03*
X12300Y196100D02*
D03*
X26800Y197700D02*
D03*
X155500Y210200D02*
D03*
X156332Y217024D02*
D03*
X281900Y157300D02*
D03*
X281800Y146989D02*
D03*
X282000Y152136D02*
D03*
X187402Y183465D02*
D03*
X183465Y175591D02*
D03*
X187402Y167717D02*
D03*
X183465Y144095D02*
D03*
X187402Y136221D02*
D03*
X183465Y128347D02*
D03*
X187402Y120473D02*
D03*
X183465Y112599D02*
D03*
X187402Y104725D02*
D03*
X183465Y96851D02*
D03*
X187402Y88977D02*
D03*
X183465Y81103D02*
D03*
X187402Y73228D02*
D03*
X183465Y65354D02*
D03*
X187402Y57480D02*
D03*
X183465Y49606D02*
D03*
X187402Y41732D02*
D03*
X183465Y33858D02*
D03*
X187402Y25984D02*
D03*
X183465Y18110D02*
D03*
X187402Y10236D02*
D03*
X183465Y2362D02*
D03*
X179528Y183465D02*
D03*
X175591Y175591D02*
D03*
X179528Y167717D02*
D03*
X175591Y159843D02*
D03*
X179528Y136221D02*
D03*
X175591Y128347D02*
D03*
X179528Y120473D02*
D03*
X175591Y112599D02*
D03*
X179528Y104725D02*
D03*
X175591Y96851D02*
D03*
X179528Y88977D02*
D03*
X175591Y81103D02*
D03*
X179528Y73228D02*
D03*
X175591Y65354D02*
D03*
X179528Y57480D02*
D03*
X175591Y49606D02*
D03*
X179528Y41732D02*
D03*
X175591Y33858D02*
D03*
X179528Y25984D02*
D03*
X175591Y18110D02*
D03*
X179528Y10236D02*
D03*
X175591Y2362D02*
D03*
X171654Y183465D02*
D03*
X167717Y175591D02*
D03*
X171654Y167717D02*
D03*
X167717Y159843D02*
D03*
X171654Y151969D02*
D03*
X167717Y128347D02*
D03*
X171654Y120473D02*
D03*
X167717Y112599D02*
D03*
X171654Y104725D02*
D03*
X167717Y96851D02*
D03*
X171654Y88977D02*
D03*
X167717Y81103D02*
D03*
X171654Y73228D02*
D03*
X167717Y65354D02*
D03*
X171654Y57480D02*
D03*
X167717Y49606D02*
D03*
X171654Y41732D02*
D03*
X167717Y33858D02*
D03*
X171654Y25984D02*
D03*
X167717Y18110D02*
D03*
X171654Y10236D02*
D03*
X167717Y2362D02*
D03*
X163780Y183465D02*
D03*
X159843Y175591D02*
D03*
X163780Y167717D02*
D03*
X159843Y159843D02*
D03*
X163780Y151969D02*
D03*
X159843Y144095D02*
D03*
Y96851D02*
D03*
X163780Y88977D02*
D03*
X159843Y81103D02*
D03*
X163780Y73228D02*
D03*
X159843Y65354D02*
D03*
X163780Y57480D02*
D03*
X159843Y49606D02*
D03*
X163780Y41732D02*
D03*
X159843Y33858D02*
D03*
X163780Y25984D02*
D03*
X159843Y18110D02*
D03*
X163780Y10236D02*
D03*
X159843Y2362D02*
D03*
X155906Y183465D02*
D03*
X151969Y175591D02*
D03*
X155906Y167717D02*
D03*
X151969Y159843D02*
D03*
X155906Y151969D02*
D03*
X151969Y144095D02*
D03*
X155906Y136221D02*
D03*
X151969Y128347D02*
D03*
Y96851D02*
D03*
X155906Y88977D02*
D03*
X151969Y81103D02*
D03*
X155906Y73228D02*
D03*
X151969Y65354D02*
D03*
X155906Y57480D02*
D03*
X151969Y49606D02*
D03*
X155906Y41732D02*
D03*
X151969Y33858D02*
D03*
X155906Y25984D02*
D03*
X151969Y18110D02*
D03*
X155906Y10236D02*
D03*
X151969Y2362D02*
D03*
X148032Y183465D02*
D03*
X144095Y175591D02*
D03*
X148032Y167717D02*
D03*
X144095Y159843D02*
D03*
X148032Y151969D02*
D03*
X144095Y144095D02*
D03*
X148032Y136221D02*
D03*
X144095Y128347D02*
D03*
X148032Y120473D02*
D03*
X144095Y96851D02*
D03*
X148032Y88977D02*
D03*
X144095Y81103D02*
D03*
X148032Y73228D02*
D03*
X144095Y65354D02*
D03*
X148032Y57480D02*
D03*
X144095Y49606D02*
D03*
X148032Y41732D02*
D03*
X144095Y33858D02*
D03*
X148032Y25984D02*
D03*
X144095Y18110D02*
D03*
X148032Y10236D02*
D03*
X144095Y2362D02*
D03*
X140158Y183465D02*
D03*
X136221Y175591D02*
D03*
X140158Y167717D02*
D03*
X136221Y159843D02*
D03*
X140158Y151969D02*
D03*
X136221Y144095D02*
D03*
X140158Y136221D02*
D03*
X136221Y128347D02*
D03*
X140158Y120473D02*
D03*
X136221Y96851D02*
D03*
X140158Y88977D02*
D03*
X136221Y81103D02*
D03*
X140158Y73228D02*
D03*
X136221Y65354D02*
D03*
X140158Y57480D02*
D03*
X136221Y49606D02*
D03*
X140158Y41732D02*
D03*
X136221Y33858D02*
D03*
X140158Y25984D02*
D03*
X136221Y18110D02*
D03*
X140158Y10236D02*
D03*
X136221Y2362D02*
D03*
X132284Y183465D02*
D03*
X128347Y175591D02*
D03*
X132284Y167717D02*
D03*
X128347Y159843D02*
D03*
X132284Y151969D02*
D03*
X128347Y144095D02*
D03*
X132284Y136221D02*
D03*
X128347Y128347D02*
D03*
X132284Y120473D02*
D03*
Y88977D02*
D03*
X128347Y81103D02*
D03*
X132284Y73228D02*
D03*
X128347Y65354D02*
D03*
X132284Y57480D02*
D03*
X128347Y49606D02*
D03*
X132284Y41732D02*
D03*
X128347Y33858D02*
D03*
X132284Y25984D02*
D03*
X128347Y18110D02*
D03*
X132284Y10236D02*
D03*
X128347Y2362D02*
D03*
X120473Y175591D02*
D03*
X124410Y167717D02*
D03*
X120473Y159843D02*
D03*
X124410Y151969D02*
D03*
X120473Y144095D02*
D03*
X124410Y136221D02*
D03*
X120473Y128347D02*
D03*
Y81103D02*
D03*
X124410Y73228D02*
D03*
X120473Y65354D02*
D03*
X124410Y57480D02*
D03*
X120473Y49606D02*
D03*
X124410Y41732D02*
D03*
X120473Y33858D02*
D03*
X124410Y25984D02*
D03*
X120473Y18110D02*
D03*
X124410Y10236D02*
D03*
X120473Y2362D02*
D03*
X116535Y167717D02*
D03*
X112599Y159843D02*
D03*
X116535Y151969D02*
D03*
X112599Y144095D02*
D03*
X116535Y136221D02*
D03*
Y120473D02*
D03*
X112599Y112599D02*
D03*
X116535Y104725D02*
D03*
X112599Y96851D02*
D03*
X116535Y88977D02*
D03*
X112599Y65354D02*
D03*
X116535Y57480D02*
D03*
X112599Y49606D02*
D03*
X116535Y41732D02*
D03*
X112599Y33858D02*
D03*
X116535Y25984D02*
D03*
X112599Y18110D02*
D03*
X116535Y10236D02*
D03*
X112599Y2362D02*
D03*
X108661Y183465D02*
D03*
X104725Y175591D02*
D03*
X108661Y120473D02*
D03*
X104725Y112599D02*
D03*
X108661Y104725D02*
D03*
X104725Y96851D02*
D03*
X108661Y88977D02*
D03*
X104725Y65354D02*
D03*
X108661Y57480D02*
D03*
X104725Y49606D02*
D03*
X108661Y41732D02*
D03*
X104725Y33858D02*
D03*
X108661Y25984D02*
D03*
X104725Y18110D02*
D03*
X108661Y10236D02*
D03*
X104725Y2362D02*
D03*
X100787Y183465D02*
D03*
X96851Y175591D02*
D03*
Y159843D02*
D03*
X100787Y120473D02*
D03*
X96851Y112599D02*
D03*
X100787Y104725D02*
D03*
X96851Y96851D02*
D03*
X100787Y88977D02*
D03*
X96851Y65354D02*
D03*
X100787Y57480D02*
D03*
X96851Y49606D02*
D03*
X100787Y41732D02*
D03*
X96851Y33858D02*
D03*
X100787Y25984D02*
D03*
X96851Y18110D02*
D03*
X100787Y10236D02*
D03*
X96851Y2362D02*
D03*
X92914Y183465D02*
D03*
X88977Y175591D02*
D03*
X92914Y167717D02*
D03*
X88977Y159843D02*
D03*
X92914Y120473D02*
D03*
X88977Y112599D02*
D03*
X92914Y104725D02*
D03*
X88977Y96851D02*
D03*
X92914Y88977D02*
D03*
X88977Y49606D02*
D03*
X92914Y41732D02*
D03*
X88977Y33858D02*
D03*
X92914Y25984D02*
D03*
X88977Y18110D02*
D03*
X92914Y10236D02*
D03*
X88977Y2362D02*
D03*
X85040Y183465D02*
D03*
X81103Y175591D02*
D03*
X85040Y167717D02*
D03*
X81103Y159843D02*
D03*
X85040Y136221D02*
D03*
Y120473D02*
D03*
X81103Y112599D02*
D03*
X85040Y104725D02*
D03*
X81103Y96851D02*
D03*
X85040Y88977D02*
D03*
X81103Y65354D02*
D03*
X85040Y57480D02*
D03*
X81103Y49606D02*
D03*
X85040Y41732D02*
D03*
X81103Y33858D02*
D03*
X85040Y25984D02*
D03*
X81103Y18110D02*
D03*
X85040Y10236D02*
D03*
X81103Y2362D02*
D03*
X77165Y183465D02*
D03*
X73228Y175591D02*
D03*
X77165Y167717D02*
D03*
X73228Y159843D02*
D03*
X77165Y136221D02*
D03*
X73228Y128347D02*
D03*
Y81103D02*
D03*
X77165Y73228D02*
D03*
X73228Y65354D02*
D03*
X77165Y57480D02*
D03*
X73228Y49606D02*
D03*
X77165Y41732D02*
D03*
X73228Y33858D02*
D03*
X77165Y25984D02*
D03*
X73228Y18110D02*
D03*
X77165Y10236D02*
D03*
X73228Y2362D02*
D03*
X69291Y183465D02*
D03*
X65354Y175591D02*
D03*
X69291Y167717D02*
D03*
X65354Y159843D02*
D03*
X69291Y136221D02*
D03*
X65354Y128347D02*
D03*
Y96851D02*
D03*
Y81103D02*
D03*
X69291Y73228D02*
D03*
X65354Y65354D02*
D03*
X69291Y57480D02*
D03*
X65354Y49606D02*
D03*
X69291Y41732D02*
D03*
X65354Y33858D02*
D03*
X69291Y25984D02*
D03*
X65354Y18110D02*
D03*
X69291Y10236D02*
D03*
X65354Y2362D02*
D03*
X61417Y183465D02*
D03*
X57480Y175591D02*
D03*
X61417Y167717D02*
D03*
X57480Y159843D02*
D03*
X61417Y136221D02*
D03*
Y120473D02*
D03*
X57480Y96851D02*
D03*
X61417Y88977D02*
D03*
X57480Y81103D02*
D03*
X61417Y73228D02*
D03*
X57480Y65354D02*
D03*
X61417Y57480D02*
D03*
X57480Y49606D02*
D03*
X61417Y41732D02*
D03*
X57480Y33858D02*
D03*
X61417Y25984D02*
D03*
X57480Y18110D02*
D03*
X61417Y10236D02*
D03*
X57480Y2362D02*
D03*
X53543Y183465D02*
D03*
X49606Y175591D02*
D03*
X53543Y167717D02*
D03*
X49606Y159843D02*
D03*
X53543Y151969D02*
D03*
X49606Y144095D02*
D03*
Y128347D02*
D03*
Y112599D02*
D03*
Y96851D02*
D03*
X53543Y88977D02*
D03*
X49606Y81103D02*
D03*
X53543Y73228D02*
D03*
X49606Y65354D02*
D03*
X53543Y57480D02*
D03*
X49606Y49606D02*
D03*
X53543Y41732D02*
D03*
X49606Y33858D02*
D03*
X53543Y25984D02*
D03*
X49606Y18110D02*
D03*
X53543Y10236D02*
D03*
X49606Y2362D02*
D03*
X45669Y183465D02*
D03*
X41732Y175591D02*
D03*
X45669Y167717D02*
D03*
X41732Y159843D02*
D03*
X45669Y151969D02*
D03*
X41732Y144095D02*
D03*
X45669Y136221D02*
D03*
X41732Y128347D02*
D03*
X45669Y120473D02*
D03*
X41732Y112599D02*
D03*
X45669Y104725D02*
D03*
X41732Y96851D02*
D03*
X45669Y88977D02*
D03*
X41732Y81103D02*
D03*
X45669Y73228D02*
D03*
X41732Y65354D02*
D03*
X45669Y57480D02*
D03*
X41732Y49606D02*
D03*
X45669Y41732D02*
D03*
X41732Y33858D02*
D03*
X45669Y25984D02*
D03*
X41732Y18110D02*
D03*
X45669Y10236D02*
D03*
X41732Y2362D02*
D03*
X37795Y183465D02*
D03*
X33858Y175591D02*
D03*
X37795Y167717D02*
D03*
X33858Y159843D02*
D03*
X37795Y151969D02*
D03*
X33858Y144095D02*
D03*
X37795Y136221D02*
D03*
X33858Y128347D02*
D03*
X37795Y120473D02*
D03*
X33858Y112599D02*
D03*
X37795Y104725D02*
D03*
X33858Y96851D02*
D03*
X37795Y88977D02*
D03*
X33858Y81103D02*
D03*
X37795Y73228D02*
D03*
X33858Y65354D02*
D03*
X37795Y57480D02*
D03*
X33858Y49606D02*
D03*
X37795Y41732D02*
D03*
X33858Y33858D02*
D03*
X37795Y25984D02*
D03*
X33858Y18110D02*
D03*
X37795Y10236D02*
D03*
X33858Y2362D02*
D03*
X29921Y183465D02*
D03*
X25984Y175591D02*
D03*
X29921Y167717D02*
D03*
X25984Y159843D02*
D03*
X29921Y151969D02*
D03*
X25984Y144095D02*
D03*
X29921Y136221D02*
D03*
X25984Y128347D02*
D03*
X29921Y120473D02*
D03*
X25984Y112599D02*
D03*
X29921Y104725D02*
D03*
X25984Y96851D02*
D03*
X29921Y88977D02*
D03*
X25984Y81103D02*
D03*
X29921Y73228D02*
D03*
X25984Y65354D02*
D03*
X29921Y57480D02*
D03*
X25984Y49606D02*
D03*
X29921Y41732D02*
D03*
X25984Y33858D02*
D03*
X29921Y25984D02*
D03*
X25984Y18110D02*
D03*
X29921Y10236D02*
D03*
X25984Y2362D02*
D03*
X22047Y183465D02*
D03*
X18110Y175591D02*
D03*
X22047Y167717D02*
D03*
X18110Y159843D02*
D03*
X22047Y151969D02*
D03*
X18110Y144095D02*
D03*
X22047Y136221D02*
D03*
X18110Y128347D02*
D03*
X22047Y120473D02*
D03*
X18110Y112599D02*
D03*
X22047Y104725D02*
D03*
X18110Y96851D02*
D03*
X22047Y88977D02*
D03*
X18110Y81103D02*
D03*
X22047Y73228D02*
D03*
X18110Y65354D02*
D03*
X22047Y57480D02*
D03*
X18110Y49606D02*
D03*
X22047Y41732D02*
D03*
X18110Y33858D02*
D03*
X22047Y25984D02*
D03*
X18110Y18110D02*
D03*
X22047Y10236D02*
D03*
X18110Y2362D02*
D03*
X14173Y183465D02*
D03*
X10236Y175591D02*
D03*
X14173Y167717D02*
D03*
X10236Y159843D02*
D03*
X14173Y151969D02*
D03*
X10236Y144095D02*
D03*
X14173Y136221D02*
D03*
X10236Y128347D02*
D03*
X14173Y120473D02*
D03*
X10236Y112599D02*
D03*
X14173Y104725D02*
D03*
X10236Y96851D02*
D03*
X14173Y88977D02*
D03*
X10236Y81103D02*
D03*
X14173Y73228D02*
D03*
X10236Y65354D02*
D03*
X14173Y57480D02*
D03*
X10236Y49606D02*
D03*
X14173Y41732D02*
D03*
X10236Y33858D02*
D03*
X14173Y25984D02*
D03*
X10236Y18110D02*
D03*
X14173Y10236D02*
D03*
X10236Y2362D02*
D03*
X6299Y183465D02*
D03*
X2362Y175591D02*
D03*
X6299Y167717D02*
D03*
X2362Y159843D02*
D03*
X6299Y151969D02*
D03*
X2362Y144095D02*
D03*
X6299Y136221D02*
D03*
X2362Y128347D02*
D03*
X6299Y120473D02*
D03*
X2362Y112599D02*
D03*
X6299Y104725D02*
D03*
X2362Y96851D02*
D03*
X6299Y88977D02*
D03*
X2362Y81103D02*
D03*
X6299Y73228D02*
D03*
X2362Y65354D02*
D03*
X6299Y57480D02*
D03*
X2362Y49606D02*
D03*
X6299Y41732D02*
D03*
X2362Y33858D02*
D03*
X6299Y25984D02*
D03*
X2362Y18110D02*
D03*
X6299Y10236D02*
D03*
X65500Y204900D02*
D03*
X251300Y142300D02*
D03*
X157200Y112300D02*
D03*
X69300Y198900D02*
D03*
X73261Y195561D02*
D03*
X81207Y195500D02*
D03*
X253010Y233490D02*
D03*
X198300Y198400D02*
D03*
X221000Y227600D02*
D03*
X226900Y227500D02*
D03*
X239600Y227200D02*
D03*
X245000Y227300D02*
D03*
X250900Y227200D02*
D03*
X260900Y223000D02*
D03*
X278000Y226200D02*
D03*
X276600Y185900D02*
D03*
X272400Y186000D02*
D03*
X276500Y191800D02*
D03*
X270600Y191900D02*
D03*
X260388Y204882D02*
D03*
X198400Y144200D02*
D03*
Y152200D02*
D03*
X198000Y131100D02*
D03*
X203600Y131000D02*
D03*
X210000Y130200D02*
D03*
X198000Y136100D02*
D03*
X106800Y204400D02*
D03*
X277756Y136811D02*
D03*
X280200Y181500D02*
D03*
X221555Y166732D02*
D03*
X73457Y230607D02*
D03*
X230709Y169980D02*
D03*
X264469Y184646D02*
D03*
X225984Y176378D02*
D03*
X241406Y213410D02*
D03*
X264800Y225900D02*
D03*
X140600Y210300D02*
D03*
X233200Y227300D02*
D03*
X204500Y186100D02*
D03*
X163780Y104725D02*
D03*
X156700Y103700D02*
D03*
X88800Y208300D02*
D03*
X92000Y221000D02*
D03*
X71800Y213400D02*
D03*
X55100Y234900D02*
D03*
X16700Y226500D02*
D03*
X28462Y223500D02*
D03*
X46700Y203800D02*
D03*
X150500Y231200D02*
D03*
X211500Y226000D02*
D03*
X215100Y226400D02*
D03*
X199600Y223800D02*
D03*
X194200Y209000D02*
D03*
X198000Y203300D02*
D03*
X211100Y212200D02*
D03*
X204500Y221900D02*
D03*
X196300Y214700D02*
D03*
X202100Y209900D02*
D03*
X201700Y193800D02*
D03*
X254579Y212700D02*
D03*
X262600Y172900D02*
D03*
X279800Y174400D02*
D03*
X249987Y155187D02*
D03*
X256600Y138700D02*
D03*
X259500Y113300D02*
D03*
X274500D02*
D03*
X236000Y111300D02*
D03*
X225200Y130100D02*
D03*
X236300D02*
D03*
X264600Y131100D02*
D03*
X265100Y138500D02*
D03*
X268083Y140800D02*
D03*
X217700Y173000D02*
D03*
X214400Y176800D02*
D03*
X199600Y173300D02*
D03*
X201600Y160200D02*
D03*
X255500Y155800D02*
D03*
X134700Y216700D02*
D03*
D45*
X199592Y83706D02*
D03*
Y75832D02*
D03*
Y67958D02*
D03*
Y60084D02*
D03*
Y52210D02*
D03*
Y44336D02*
D03*
Y36462D02*
D03*
Y28588D02*
D03*
Y20714D02*
D03*
Y12840D02*
D03*
X286206D02*
D03*
Y20714D02*
D03*
Y28588D02*
D03*
Y36462D02*
D03*
Y44336D02*
D03*
Y52210D02*
D03*
Y60084D02*
D03*
Y67958D02*
D03*
Y75832D02*
D03*
Y83706D02*
D03*
D46*
X18016Y221547D02*
D03*
Y202453D02*
D03*
D47*
X6205Y225829D02*
D03*
Y198171D02*
D03*
D48*
X236701Y191800D02*
D03*
Y198800D02*
D03*
Y184800D02*
D03*
X243701D02*
D03*
Y198800D02*
D03*
X250701D02*
D03*
Y191800D02*
D03*
Y184800D02*
D03*
X243701Y191800D02*
D03*
M02*
