G04 Layer_Color=8421504*
%FSLAX25Y25*%
%MOIN*%
G70*
G01*
G75*
G04:AMPARAMS|DCode=10|XSize=11.69mil|YSize=31.5mil|CornerRadius=2.92mil|HoleSize=0mil|Usage=FLASHONLY|Rotation=90.000|XOffset=0mil|YOffset=0mil|HoleType=Round|Shape=RoundedRectangle|*
%AMROUNDEDRECTD10*
21,1,0.01169,0.02565,0,0,90.0*
21,1,0.00584,0.03150,0,0,90.0*
1,1,0.00584,0.01283,0.00292*
1,1,0.00584,0.01283,-0.00292*
1,1,0.00584,-0.01283,-0.00292*
1,1,0.00584,-0.01283,0.00292*
%
%ADD10ROUNDEDRECTD10*%
G04:AMPARAMS|DCode=11|XSize=11.69mil|YSize=31.5mil|CornerRadius=2.92mil|HoleSize=0mil|Usage=FLASHONLY|Rotation=0.000|XOffset=0mil|YOffset=0mil|HoleType=Round|Shape=RoundedRectangle|*
%AMROUNDEDRECTD11*
21,1,0.01169,0.02565,0,0,0.0*
21,1,0.00584,0.03150,0,0,0.0*
1,1,0.00584,0.00292,-0.01283*
1,1,0.00584,-0.00292,-0.01283*
1,1,0.00584,-0.00292,0.01283*
1,1,0.00584,0.00292,0.01283*
%
%ADD11ROUNDEDRECTD11*%
G04:AMPARAMS|DCode=13|XSize=10mil|YSize=33.36mil|CornerRadius=2.5mil|HoleSize=0mil|Usage=FLASHONLY|Rotation=90.000|XOffset=0mil|YOffset=0mil|HoleType=Round|Shape=RoundedRectangle|*
%AMROUNDEDRECTD13*
21,1,0.01000,0.02836,0,0,90.0*
21,1,0.00500,0.03336,0,0,90.0*
1,1,0.00500,0.01418,0.00250*
1,1,0.00500,0.01418,-0.00250*
1,1,0.00500,-0.01418,-0.00250*
1,1,0.00500,-0.01418,0.00250*
%
%ADD13ROUNDEDRECTD13*%
G04:AMPARAMS|DCode=14|XSize=10mil|YSize=33.36mil|CornerRadius=2.5mil|HoleSize=0mil|Usage=FLASHONLY|Rotation=0.000|XOffset=0mil|YOffset=0mil|HoleType=Round|Shape=RoundedRectangle|*
%AMROUNDEDRECTD14*
21,1,0.01000,0.02836,0,0,0.0*
21,1,0.00500,0.03336,0,0,0.0*
1,1,0.00500,0.00250,-0.01418*
1,1,0.00500,-0.00250,-0.01418*
1,1,0.00500,-0.00250,0.01418*
1,1,0.00500,0.00250,0.01418*
%
%ADD14ROUNDEDRECTD14*%
G04:AMPARAMS|DCode=16|XSize=12mil|YSize=32mil|CornerRadius=3mil|HoleSize=0mil|Usage=FLASHONLY|Rotation=0.000|XOffset=0mil|YOffset=0mil|HoleType=Round|Shape=RoundedRectangle|*
%AMROUNDEDRECTD16*
21,1,0.01200,0.02600,0,0,0.0*
21,1,0.00600,0.03200,0,0,0.0*
1,1,0.00600,0.00300,-0.01300*
1,1,0.00600,-0.00300,-0.01300*
1,1,0.00600,-0.00300,0.01300*
1,1,0.00600,0.00300,0.01300*
%
%ADD16ROUNDEDRECTD16*%
G04:AMPARAMS|DCode=17|XSize=12mil|YSize=32mil|CornerRadius=3mil|HoleSize=0mil|Usage=FLASHONLY|Rotation=270.000|XOffset=0mil|YOffset=0mil|HoleType=Round|Shape=RoundedRectangle|*
%AMROUNDEDRECTD17*
21,1,0.01200,0.02600,0,0,270.0*
21,1,0.00600,0.03200,0,0,270.0*
1,1,0.00600,-0.01300,-0.00300*
1,1,0.00600,-0.01300,0.00300*
1,1,0.00600,0.01300,0.00300*
1,1,0.00600,0.01300,-0.00300*
%
%ADD17ROUNDEDRECTD17*%
%ADD18R,0.02165X0.00984*%
G04:AMPARAMS|DCode=19|XSize=9.84mil|YSize=21.65mil|CornerRadius=2.46mil|HoleSize=0mil|Usage=FLASHONLY|Rotation=90.000|XOffset=0mil|YOffset=0mil|HoleType=Round|Shape=RoundedRectangle|*
%AMROUNDEDRECTD19*
21,1,0.00984,0.01673,0,0,90.0*
21,1,0.00492,0.02165,0,0,90.0*
1,1,0.00492,0.00837,0.00246*
1,1,0.00492,0.00837,-0.00246*
1,1,0.00492,-0.00837,-0.00246*
1,1,0.00492,-0.00837,0.00246*
%
%ADD19ROUNDEDRECTD19*%
%ADD20R,0.07480X0.07087*%
%ADD21R,0.05315X0.01575*%
%ADD22R,0.08000X0.06000*%
%ADD23R,0.10630X0.06299*%
%ADD24R,0.04000X0.06000*%
%ADD25R,0.06000X0.04000*%
%ADD26R,0.03347X0.03347*%
%ADD27R,0.03347X0.03347*%
%ADD28R,0.04921X0.04331*%
%ADD29R,0.10630X0.03937*%
%ADD30R,0.02559X0.04134*%
%ADD31R,0.13386X0.07283*%
%ADD32R,0.01575X0.03150*%
G04:AMPARAMS|DCode=33|XSize=58mil|YSize=14mil|CornerRadius=3.5mil|HoleSize=0mil|Usage=FLASHONLY|Rotation=90.000|XOffset=0mil|YOffset=0mil|HoleType=Round|Shape=RoundedRectangle|*
%AMROUNDEDRECTD33*
21,1,0.05800,0.00700,0,0,90.0*
21,1,0.05100,0.01400,0,0,90.0*
1,1,0.00700,0.00350,0.02550*
1,1,0.00700,0.00350,-0.02550*
1,1,0.00700,-0.00350,-0.02550*
1,1,0.00700,-0.00350,0.02550*
%
%ADD33ROUNDEDRECTD33*%
%ADD34R,0.01400X0.05800*%
%ADD35R,0.07087X0.05905*%
%ADD36R,0.05905X0.07087*%
%ADD38C,0.01000*%
G36*
X9945Y195465D02*
X9942Y195361D01*
X9934Y195259D01*
X9921Y195157D01*
X9902Y195055D01*
X9878Y194955D01*
X9849Y194856D01*
X9814Y194759D01*
X9775Y194664D01*
X9730Y194571D01*
X9681Y194480D01*
X9627Y194392D01*
X9569Y194307D01*
X9506Y194226D01*
X9439Y194147D01*
X9368Y194073D01*
X9294Y194002D01*
X9215Y193935D01*
X9133Y193872D01*
X9048Y193814D01*
X8961Y193760D01*
X8870Y193711D01*
X8777Y193666D01*
X8682Y193627D01*
X8585Y193592D01*
X8486Y193563D01*
X8386Y193539D01*
X8284Y193520D01*
X8182Y193507D01*
X8079Y193499D01*
X7976Y193496D01*
X4433D01*
X4330Y193499D01*
X4227Y193507D01*
X4125Y193520D01*
X4024Y193539D01*
X3924Y193563D01*
X3825Y193592D01*
X3728Y193627D01*
X3632Y193666D01*
X3539Y193711D01*
X3449Y193760D01*
X3361Y193814D01*
X3276Y193872D01*
X3194Y193935D01*
X3116Y194002D01*
X3041Y194073D01*
X2970Y194147D01*
X2903Y194226D01*
X2840Y194307D01*
X2782Y194392D01*
X2728Y194480D01*
X2679Y194571D01*
X2635Y194664D01*
X2595Y194759D01*
X2561Y194856D01*
X2532Y194955D01*
X2508Y195055D01*
X2489Y195157D01*
X2475Y195259D01*
X2467Y195361D01*
X2465Y195465D01*
Y201764D01*
X9945D01*
Y195465D01*
D02*
G37*
G36*
X18518Y204517D02*
X18625Y204508D01*
X18733Y204494D01*
X18839Y204474D01*
X18944Y204449D01*
X19048Y204418D01*
X19150Y204382D01*
X19250Y204341D01*
X19348Y204294D01*
X19443Y204243D01*
X19535Y204186D01*
X19624Y204125D01*
X19710Y204059D01*
X19793Y203989D01*
X19871Y203914D01*
X19945Y203836D01*
X20016Y203753D01*
X20082Y203668D01*
X20143Y203578D01*
X20199Y203486D01*
X20251Y203391D01*
X20298Y203293D01*
X20339Y203193D01*
X20375Y203092D01*
X20406Y202988D01*
X20431Y202883D01*
X20451Y202776D01*
X20465Y202669D01*
X20473Y202561D01*
X20476Y202453D01*
X20473Y202345D01*
X20465Y202237D01*
X20451Y202129D01*
X20431Y202023D01*
X20406Y201918D01*
X20375Y201814D01*
X20339Y201712D01*
X20298Y201612D01*
X20251Y201514D01*
X20199Y201419D01*
X20143Y201327D01*
X20082Y201238D01*
X20016Y201152D01*
X19945Y201070D01*
X19871Y200991D01*
X19793Y200917D01*
X19710Y200847D01*
X19624Y200781D01*
X19535Y200719D01*
X19443Y200663D01*
X19348Y200611D01*
X19250Y200565D01*
X19150Y200523D01*
X19048Y200487D01*
X18944Y200456D01*
X18839Y200431D01*
X18733Y200411D01*
X18625Y200397D01*
X18518Y200389D01*
X18409Y200386D01*
X17622D01*
X17514Y200389D01*
X17406Y200397D01*
X17299Y200411D01*
X17192Y200431D01*
X17087Y200456D01*
X16983Y200487D01*
X16881Y200523D01*
X16781Y200565D01*
X16684Y200611D01*
X16589Y200663D01*
X16496Y200719D01*
X16407Y200781D01*
X16321Y200847D01*
X16239Y200917D01*
X16161Y200991D01*
X16086Y201070D01*
X16016Y201152D01*
X15950Y201238D01*
X15889Y201327D01*
X15832Y201419D01*
X15780Y201514D01*
X15734Y201612D01*
X15692Y201712D01*
X15656Y201814D01*
X15626Y201918D01*
X15600Y202023D01*
X15581Y202129D01*
X15566Y202237D01*
X15558Y202345D01*
X15555Y202453D01*
X15558Y202561D01*
X15566Y202669D01*
X15581Y202776D01*
X15600Y202883D01*
X15626Y202988D01*
X15656Y203092D01*
X15692Y203193D01*
X15734Y203293D01*
X15780Y203391D01*
X15832Y203486D01*
X15889Y203578D01*
X15950Y203668D01*
X16016Y203753D01*
X16086Y203836D01*
X16161Y203914D01*
X16239Y203989D01*
X16321Y204059D01*
X16407Y204125D01*
X16496Y204186D01*
X16589Y204243D01*
X16684Y204294D01*
X16781Y204341D01*
X16881Y204382D01*
X16983Y204418D01*
X17087Y204449D01*
X17192Y204474D01*
X17299Y204494D01*
X17406Y204508D01*
X17514Y204517D01*
X17622Y204520D01*
X18409D01*
X18518Y204517D01*
D02*
G37*
G36*
X82700Y213400D02*
X80700D01*
Y215400D01*
X82700D01*
Y213400D01*
D02*
G37*
G36*
X250201Y192300D02*
X244201D01*
Y198800D01*
X250201D01*
Y192300D01*
D02*
G37*
G36*
X243201Y184800D02*
X237201D01*
Y191300D01*
X243201D01*
Y184800D01*
D02*
G37*
G36*
X250201D02*
X244201D01*
Y191300D01*
X250201D01*
Y184800D01*
D02*
G37*
G36*
X243201Y192300D02*
X237201D01*
Y198800D01*
X243201D01*
Y192300D01*
D02*
G37*
G36*
X85300Y216000D02*
X83300D01*
Y218000D01*
X85300D01*
Y216000D01*
D02*
G37*
G36*
X18518Y223611D02*
X18625Y223603D01*
X18733Y223589D01*
X18839Y223569D01*
X18944Y223544D01*
X19048Y223513D01*
X19150Y223477D01*
X19250Y223435D01*
X19348Y223389D01*
X19443Y223337D01*
X19535Y223281D01*
X19624Y223219D01*
X19710Y223153D01*
X19793Y223083D01*
X19871Y223009D01*
X19945Y222930D01*
X20016Y222848D01*
X20082Y222762D01*
X20143Y222673D01*
X20199Y222581D01*
X20251Y222486D01*
X20298Y222388D01*
X20339Y222288D01*
X20375Y222186D01*
X20406Y222082D01*
X20431Y221977D01*
X20451Y221871D01*
X20465Y221763D01*
X20473Y221655D01*
X20476Y221547D01*
X20473Y221439D01*
X20465Y221331D01*
X20451Y221224D01*
X20431Y221117D01*
X20406Y221012D01*
X20375Y220908D01*
X20339Y220807D01*
X20298Y220707D01*
X20251Y220609D01*
X20199Y220514D01*
X20143Y220422D01*
X20082Y220332D01*
X20016Y220247D01*
X19945Y220164D01*
X19871Y220086D01*
X19793Y220011D01*
X19710Y219941D01*
X19624Y219875D01*
X19535Y219814D01*
X19443Y219757D01*
X19348Y219706D01*
X19250Y219659D01*
X19150Y219618D01*
X19048Y219582D01*
X18944Y219551D01*
X18839Y219526D01*
X18733Y219506D01*
X18625Y219492D01*
X18518Y219483D01*
X18409Y219480D01*
X17622D01*
X17514Y219483D01*
X17406Y219492D01*
X17299Y219506D01*
X17192Y219526D01*
X17087Y219551D01*
X16983Y219582D01*
X16881Y219618D01*
X16781Y219659D01*
X16684Y219706D01*
X16589Y219757D01*
X16496Y219814D01*
X16407Y219875D01*
X16321Y219941D01*
X16239Y220011D01*
X16161Y220086D01*
X16086Y220164D01*
X16016Y220247D01*
X15950Y220332D01*
X15889Y220422D01*
X15832Y220514D01*
X15780Y220609D01*
X15734Y220707D01*
X15692Y220807D01*
X15656Y220908D01*
X15626Y221012D01*
X15600Y221117D01*
X15581Y221224D01*
X15566Y221331D01*
X15558Y221439D01*
X15555Y221547D01*
X15558Y221655D01*
X15566Y221763D01*
X15581Y221871D01*
X15600Y221977D01*
X15626Y222082D01*
X15656Y222186D01*
X15692Y222288D01*
X15734Y222388D01*
X15780Y222486D01*
X15832Y222581D01*
X15889Y222673D01*
X15950Y222762D01*
X16016Y222848D01*
X16086Y222930D01*
X16161Y223009D01*
X16239Y223083D01*
X16321Y223153D01*
X16407Y223219D01*
X16496Y223281D01*
X16589Y223337D01*
X16684Y223389D01*
X16781Y223435D01*
X16881Y223477D01*
X16983Y223513D01*
X17087Y223544D01*
X17192Y223569D01*
X17299Y223589D01*
X17406Y223603D01*
X17514Y223611D01*
X17622Y223614D01*
X18409D01*
X18518Y223611D01*
D02*
G37*
G36*
X8079Y230501D02*
X8182Y230493D01*
X8284Y230480D01*
X8386Y230461D01*
X8486Y230437D01*
X8585Y230408D01*
X8682Y230373D01*
X8777Y230334D01*
X8870Y230289D01*
X8961Y230240D01*
X9048Y230186D01*
X9133Y230128D01*
X9215Y230065D01*
X9294Y229998D01*
X9368Y229927D01*
X9439Y229853D01*
X9506Y229774D01*
X9569Y229693D01*
X9627Y229608D01*
X9681Y229520D01*
X9730Y229429D01*
X9775Y229336D01*
X9814Y229241D01*
X9849Y229144D01*
X9878Y229045D01*
X9902Y228945D01*
X9921Y228843D01*
X9934Y228741D01*
X9942Y228639D01*
X9945Y228535D01*
Y222236D01*
X2465D01*
Y228535D01*
X2467Y228639D01*
X2475Y228741D01*
X2489Y228843D01*
X2508Y228945D01*
X2532Y229045D01*
X2561Y229144D01*
X2595Y229241D01*
X2635Y229336D01*
X2679Y229429D01*
X2728Y229520D01*
X2782Y229608D01*
X2840Y229693D01*
X2903Y229774D01*
X2970Y229853D01*
X3041Y229927D01*
X3116Y229998D01*
X3194Y230065D01*
X3276Y230128D01*
X3361Y230186D01*
X3449Y230240D01*
X3539Y230289D01*
X3632Y230334D01*
X3728Y230373D01*
X3825Y230408D01*
X3924Y230437D01*
X4024Y230461D01*
X4125Y230480D01*
X4227Y230493D01*
X4330Y230501D01*
X4433Y230504D01*
X7976D01*
X8079Y230501D01*
D02*
G37*
G36*
X85300Y213400D02*
X83300D01*
Y215400D01*
X85300D01*
Y213400D01*
D02*
G37*
G36*
X82700Y216000D02*
X80700D01*
Y218000D01*
X82700D01*
Y216000D01*
D02*
G37*
%LPC*%
G36*
X7976Y199795D02*
X4433D01*
X4371Y199794D01*
X4310Y199789D01*
X4248Y199781D01*
X4188Y199769D01*
X4127Y199755D01*
X4068Y199738D01*
X4010Y199717D01*
X3953Y199693D01*
X3897Y199667D01*
X3842Y199637D01*
X3790Y199605D01*
X3739Y199570D01*
X3690Y199532D01*
X3643Y199492D01*
X3598Y199449D01*
X3555Y199405D01*
X3515Y199357D01*
X3478Y199308D01*
X3443Y199257D01*
X3410Y199205D01*
X3381Y199150D01*
X3354Y199095D01*
X3330Y199037D01*
X3310Y198979D01*
X3292Y198920D01*
X3278Y198860D01*
X3266Y198799D01*
X3258Y198738D01*
X3254Y198676D01*
X3252Y198614D01*
Y197728D01*
X3254Y197667D01*
X3258Y197605D01*
X3266Y197544D01*
X3278Y197483D01*
X3292Y197423D01*
X3310Y197363D01*
X3330Y197305D01*
X3354Y197248D01*
X3381Y197192D01*
X3410Y197138D01*
X3443Y197085D01*
X3478Y197034D01*
X3515Y196985D01*
X3555Y196938D01*
X3598Y196893D01*
X3643Y196851D01*
X3690Y196810D01*
X3739Y196773D01*
X3790Y196738D01*
X3842Y196705D01*
X3897Y196676D01*
X3953Y196649D01*
X4010Y196626D01*
X4068Y196605D01*
X4127Y196588D01*
X4188Y196573D01*
X4248Y196562D01*
X4310Y196554D01*
X4371Y196549D01*
X4433Y196547D01*
X8075D01*
X8132Y196549D01*
X8188Y196553D01*
X8244Y196561D01*
X8300Y196571D01*
X8355Y196584D01*
X8409Y196600D01*
X8463Y196619D01*
X8515Y196641D01*
X8566Y196665D01*
X8616Y196692D01*
X8664Y196722D01*
X8711Y196754D01*
X8756Y196789D01*
X8799Y196825D01*
X8840Y196864D01*
X8879Y196906D01*
X8916Y196949D01*
X8951Y196994D01*
X8983Y197040D01*
X9012Y197089D01*
X9040Y197138D01*
X9064Y197190D01*
X9086Y197242D01*
X9104Y197295D01*
X9121Y197350D01*
X9134Y197405D01*
X9144Y197460D01*
X9152Y197517D01*
X9156Y197573D01*
X9157Y197630D01*
Y198614D01*
X9156Y198676D01*
X9151Y198738D01*
X9143Y198799D01*
X9132Y198860D01*
X9117Y198920D01*
X9100Y198979D01*
X9079Y199037D01*
X9055Y199095D01*
X9029Y199150D01*
X8999Y199205D01*
X8967Y199257D01*
X8932Y199308D01*
X8894Y199357D01*
X8854Y199405D01*
X8811Y199449D01*
X8767Y199492D01*
X8720Y199532D01*
X8671Y199570D01*
X8620Y199605D01*
X8567Y199637D01*
X8513Y199667D01*
X8457Y199693D01*
X8400Y199717D01*
X8341Y199738D01*
X8282Y199755D01*
X8222Y199769D01*
X8161Y199781D01*
X8100Y199789D01*
X8038Y199794D01*
X7976Y199795D01*
D02*
G37*
G36*
X18409Y203732D02*
X17622D01*
X17555Y203731D01*
X17488Y203725D01*
X17422Y203716D01*
X17356Y203704D01*
X17291Y203689D01*
X17227Y203670D01*
X17164Y203647D01*
X17102Y203622D01*
X17041Y203593D01*
X16982Y203561D01*
X16925Y203526D01*
X16870Y203488D01*
X16817Y203447D01*
X16766Y203404D01*
X16717Y203358D01*
X16671Y203309D01*
X16628Y203258D01*
X16587Y203205D01*
X16549Y203150D01*
X16514Y203093D01*
X16482Y203034D01*
X16453Y202973D01*
X16428Y202911D01*
X16405Y202848D01*
X16386Y202784D01*
X16371Y202719D01*
X16358Y202653D01*
X16350Y202587D01*
X16344Y202520D01*
X16342Y202453D01*
X16344Y202386D01*
X16350Y202319D01*
X16358Y202253D01*
X16371Y202187D01*
X16386Y202122D01*
X16405Y202057D01*
X16428Y201994D01*
X16453Y201932D01*
X16482Y201872D01*
X16514Y201813D01*
X16549Y201756D01*
X16587Y201701D01*
X16628Y201647D01*
X16671Y201597D01*
X16717Y201548D01*
X16766Y201502D01*
X16817Y201458D01*
X16870Y201418D01*
X16925Y201380D01*
X16982Y201345D01*
X17041Y201313D01*
X17102Y201284D01*
X17164Y201258D01*
X17227Y201236D01*
X17291Y201217D01*
X17356Y201201D01*
X17422Y201189D01*
X17488Y201180D01*
X17555Y201175D01*
X17622Y201173D01*
X18409D01*
X18476Y201175D01*
X18543Y201180D01*
X18610Y201189D01*
X18676Y201201D01*
X18741Y201217D01*
X18805Y201236D01*
X18868Y201258D01*
X18930Y201284D01*
X18990Y201313D01*
X19049Y201345D01*
X19106Y201380D01*
X19162Y201418D01*
X19215Y201458D01*
X19266Y201502D01*
X19314Y201548D01*
X19360Y201597D01*
X19404Y201647D01*
X19445Y201701D01*
X19483Y201756D01*
X19518Y201813D01*
X19549Y201872D01*
X19578Y201932D01*
X19604Y201994D01*
X19626Y202057D01*
X19645Y202122D01*
X19661Y202187D01*
X19673Y202253D01*
X19682Y202319D01*
X19687Y202386D01*
X19689Y202453D01*
X19687Y202520D01*
X19682Y202587D01*
X19673Y202653D01*
X19661Y202719D01*
X19645Y202784D01*
X19626Y202848D01*
X19604Y202911D01*
X19578Y202973D01*
X19549Y203034D01*
X19518Y203093D01*
X19483Y203150D01*
X19445Y203205D01*
X19404Y203258D01*
X19360Y203309D01*
X19314Y203358D01*
X19266Y203404D01*
X19215Y203447D01*
X19162Y203488D01*
X19106Y203526D01*
X19049Y203561D01*
X18990Y203593D01*
X18930Y203622D01*
X18868Y203647D01*
X18805Y203670D01*
X18741Y203689D01*
X18676Y203704D01*
X18610Y203716D01*
X18543Y203725D01*
X18476Y203731D01*
X18409Y203732D01*
D02*
G37*
G36*
Y222827D02*
X17622D01*
X17555Y222825D01*
X17488Y222820D01*
X17422Y222811D01*
X17356Y222799D01*
X17291Y222783D01*
X17227Y222764D01*
X17164Y222742D01*
X17102Y222716D01*
X17041Y222687D01*
X16982Y222655D01*
X16925Y222620D01*
X16870Y222582D01*
X16817Y222542D01*
X16766Y222498D01*
X16717Y222452D01*
X16671Y222403D01*
X16628Y222353D01*
X16587Y222299D01*
X16549Y222244D01*
X16514Y222187D01*
X16482Y222128D01*
X16453Y222068D01*
X16428Y222006D01*
X16405Y221943D01*
X16386Y221878D01*
X16371Y221813D01*
X16358Y221747D01*
X16350Y221681D01*
X16344Y221614D01*
X16342Y221547D01*
X16344Y221480D01*
X16350Y221413D01*
X16358Y221347D01*
X16371Y221281D01*
X16386Y221216D01*
X16405Y221152D01*
X16428Y221089D01*
X16453Y221027D01*
X16482Y220966D01*
X16514Y220907D01*
X16549Y220850D01*
X16587Y220795D01*
X16628Y220742D01*
X16671Y220691D01*
X16717Y220642D01*
X16766Y220596D01*
X16817Y220553D01*
X16870Y220512D01*
X16925Y220474D01*
X16982Y220439D01*
X17041Y220407D01*
X17102Y220378D01*
X17164Y220353D01*
X17227Y220330D01*
X17291Y220311D01*
X17356Y220296D01*
X17422Y220284D01*
X17488Y220275D01*
X17555Y220269D01*
X17622Y220268D01*
X18409D01*
X18476Y220269D01*
X18543Y220275D01*
X18610Y220284D01*
X18676Y220296D01*
X18741Y220311D01*
X18805Y220330D01*
X18868Y220353D01*
X18930Y220378D01*
X18990Y220407D01*
X19049Y220439D01*
X19106Y220474D01*
X19162Y220512D01*
X19215Y220553D01*
X19266Y220596D01*
X19314Y220642D01*
X19360Y220691D01*
X19404Y220742D01*
X19445Y220795D01*
X19483Y220850D01*
X19518Y220907D01*
X19549Y220966D01*
X19578Y221027D01*
X19604Y221089D01*
X19626Y221152D01*
X19645Y221216D01*
X19661Y221281D01*
X19673Y221347D01*
X19682Y221413D01*
X19687Y221480D01*
X19689Y221547D01*
X19687Y221614D01*
X19682Y221681D01*
X19673Y221747D01*
X19661Y221813D01*
X19645Y221878D01*
X19626Y221943D01*
X19604Y222006D01*
X19578Y222068D01*
X19549Y222128D01*
X19518Y222187D01*
X19483Y222244D01*
X19445Y222299D01*
X19404Y222353D01*
X19360Y222403D01*
X19314Y222452D01*
X19266Y222498D01*
X19215Y222542D01*
X19162Y222582D01*
X19106Y222620D01*
X19049Y222655D01*
X18990Y222687D01*
X18930Y222716D01*
X18868Y222742D01*
X18805Y222764D01*
X18741Y222783D01*
X18676Y222799D01*
X18610Y222811D01*
X18543Y222820D01*
X18476Y222825D01*
X18409Y222827D01*
D02*
G37*
G36*
X7976Y227453D02*
X4335D01*
X4278Y227451D01*
X4222Y227447D01*
X4165Y227439D01*
X4109Y227429D01*
X4054Y227416D01*
X4000Y227400D01*
X3947Y227381D01*
X3894Y227359D01*
X3843Y227335D01*
X3793Y227308D01*
X3745Y227278D01*
X3698Y227246D01*
X3653Y227211D01*
X3610Y227175D01*
X3569Y227136D01*
X3530Y227095D01*
X3493Y227051D01*
X3459Y227007D01*
X3427Y226960D01*
X3397Y226911D01*
X3370Y226862D01*
X3346Y226810D01*
X3324Y226758D01*
X3305Y226705D01*
X3289Y226650D01*
X3276Y226595D01*
X3265Y226539D01*
X3258Y226483D01*
X3254Y226427D01*
X3252Y226370D01*
Y225386D01*
X3254Y225324D01*
X3258Y225262D01*
X3266Y225201D01*
X3278Y225140D01*
X3292Y225080D01*
X3310Y225021D01*
X3330Y224963D01*
X3354Y224905D01*
X3381Y224850D01*
X3410Y224795D01*
X3443Y224743D01*
X3478Y224692D01*
X3515Y224642D01*
X3555Y224595D01*
X3598Y224551D01*
X3643Y224508D01*
X3690Y224468D01*
X3739Y224430D01*
X3790Y224395D01*
X3842Y224363D01*
X3897Y224334D01*
X3953Y224307D01*
X4010Y224283D01*
X4068Y224262D01*
X4127Y224245D01*
X4188Y224231D01*
X4248Y224219D01*
X4310Y224211D01*
X4371Y224206D01*
X4433Y224205D01*
X7976D01*
X8038Y224206D01*
X8100Y224211D01*
X8161Y224219D01*
X8222Y224231D01*
X8282Y224245D01*
X8341Y224262D01*
X8400Y224283D01*
X8457Y224307D01*
X8513Y224334D01*
X8567Y224363D01*
X8620Y224395D01*
X8671Y224430D01*
X8720Y224468D01*
X8767Y224508D01*
X8811Y224551D01*
X8854Y224595D01*
X8894Y224642D01*
X8932Y224692D01*
X8967Y224743D01*
X8999Y224795D01*
X9029Y224850D01*
X9055Y224905D01*
X9079Y224963D01*
X9100Y225021D01*
X9117Y225080D01*
X9132Y225140D01*
X9143Y225201D01*
X9151Y225262D01*
X9156Y225324D01*
X9157Y225386D01*
Y226272D01*
X9156Y226333D01*
X9151Y226395D01*
X9143Y226456D01*
X9132Y226517D01*
X9117Y226577D01*
X9100Y226637D01*
X9079Y226695D01*
X9055Y226752D01*
X9029Y226808D01*
X8999Y226862D01*
X8967Y226915D01*
X8932Y226966D01*
X8894Y227015D01*
X8854Y227062D01*
X8811Y227107D01*
X8767Y227149D01*
X8720Y227189D01*
X8671Y227227D01*
X8620Y227262D01*
X8567Y227294D01*
X8513Y227324D01*
X8457Y227351D01*
X8400Y227374D01*
X8341Y227395D01*
X8282Y227413D01*
X8222Y227427D01*
X8161Y227438D01*
X8100Y227446D01*
X8038Y227451D01*
X7976Y227453D01*
D02*
G37*
%LPD*%
D10*
X266335Y147812D02*
D03*
Y145843D02*
D03*
Y149780D02*
D03*
X256295Y147812D02*
D03*
Y149780D02*
D03*
Y145843D02*
D03*
D11*
X265252Y142792D02*
D03*
X263283D02*
D03*
X261315D02*
D03*
X259347D02*
D03*
X257378D02*
D03*
X261315Y152831D02*
D03*
X263283D02*
D03*
X265252D02*
D03*
X259347D02*
D03*
X257378D02*
D03*
D13*
X230177Y202627D02*
D03*
Y200658D02*
D03*
Y198690D02*
D03*
Y196721D02*
D03*
Y194753D02*
D03*
Y192784D02*
D03*
Y190816D02*
D03*
Y188847D02*
D03*
Y186879D02*
D03*
Y184910D02*
D03*
Y182942D02*
D03*
Y180973D02*
D03*
X257224D02*
D03*
Y182942D02*
D03*
Y184910D02*
D03*
Y186879D02*
D03*
Y188847D02*
D03*
Y190816D02*
D03*
Y192784D02*
D03*
Y194753D02*
D03*
Y196721D02*
D03*
Y198690D02*
D03*
Y200658D02*
D03*
Y202627D02*
D03*
D14*
X232874Y178276D02*
D03*
X234842D02*
D03*
X236811D02*
D03*
X238779D02*
D03*
X240748D02*
D03*
X242717D02*
D03*
X244685D02*
D03*
X246654D02*
D03*
X248622D02*
D03*
X250591D02*
D03*
X252559D02*
D03*
X254528D02*
D03*
Y205324D02*
D03*
X252559D02*
D03*
X250591D02*
D03*
X248622D02*
D03*
X246654D02*
D03*
X244685D02*
D03*
X242717D02*
D03*
X240748D02*
D03*
X238779D02*
D03*
X236811D02*
D03*
X234842D02*
D03*
X232874D02*
D03*
D16*
X80000Y209900D02*
D03*
X82000D02*
D03*
X84000D02*
D03*
X86000D02*
D03*
Y221500D02*
D03*
X84000D02*
D03*
X82000D02*
D03*
X80000D02*
D03*
D17*
X88800Y212700D02*
D03*
Y214700D02*
D03*
Y216700D02*
D03*
Y218700D02*
D03*
X77200D02*
D03*
Y216700D02*
D03*
Y214700D02*
D03*
Y212700D02*
D03*
D18*
X138713Y223032D02*
D03*
D19*
Y221063D02*
D03*
Y219095D02*
D03*
Y217126D02*
D03*
X144028Y223032D02*
D03*
Y221063D02*
D03*
Y219095D02*
D03*
Y217126D02*
D03*
D20*
X6205Y207472D02*
D03*
Y216528D02*
D03*
D21*
X16736Y206882D02*
D03*
Y217118D02*
D03*
Y209441D02*
D03*
Y214559D02*
D03*
Y212000D02*
D03*
D22*
X33595Y218709D02*
D03*
Y229710D02*
D03*
X33382Y198900D02*
D03*
Y209900D02*
D03*
D23*
X148842Y199288D02*
D03*
Y210312D02*
D03*
X133842Y199288D02*
D03*
Y210312D02*
D03*
D24*
X57154Y198898D02*
D03*
X65154D02*
D03*
X42353D02*
D03*
X50353D02*
D03*
X145941Y230196D02*
D03*
X137941D02*
D03*
X209900Y152200D02*
D03*
X201900D02*
D03*
X209900Y144200D02*
D03*
X201900D02*
D03*
X209900Y136200D02*
D03*
X201900D02*
D03*
X92883Y204131D02*
D03*
X100883D02*
D03*
D25*
X130140Y217800D02*
D03*
Y225800D02*
D03*
X121339D02*
D03*
Y217800D02*
D03*
X66961Y225000D02*
D03*
Y217000D02*
D03*
D26*
X239185Y223248D02*
D03*
Y217146D02*
D03*
X233185Y223248D02*
D03*
Y217146D02*
D03*
X245079Y223186D02*
D03*
Y217083D02*
D03*
X256791Y223186D02*
D03*
Y217083D02*
D03*
X250984Y223186D02*
D03*
Y217083D02*
D03*
X96130Y60591D02*
D03*
Y54489D02*
D03*
X90000Y60591D02*
D03*
Y54489D02*
D03*
X274309Y226070D02*
D03*
Y232172D02*
D03*
X197956Y127003D02*
D03*
Y120901D02*
D03*
X203906Y127003D02*
D03*
Y120901D02*
D03*
X209906Y127003D02*
D03*
Y120901D02*
D03*
X268179Y226070D02*
D03*
Y232172D02*
D03*
X222516Y170472D02*
D03*
Y176575D02*
D03*
X209185Y223248D02*
D03*
Y217146D02*
D03*
X215185Y223248D02*
D03*
Y217146D02*
D03*
X221185Y223248D02*
D03*
Y217146D02*
D03*
X227185Y223248D02*
D03*
Y217146D02*
D03*
X296500Y109551D02*
D03*
Y103449D02*
D03*
Y90949D02*
D03*
Y97051D02*
D03*
X224600Y158051D02*
D03*
Y151949D02*
D03*
X231713Y158051D02*
D03*
Y151949D02*
D03*
X59425Y222851D02*
D03*
Y216749D02*
D03*
X76946Y226024D02*
D03*
Y232127D02*
D03*
X73261Y205607D02*
D03*
Y199505D02*
D03*
X103076Y226127D02*
D03*
Y220024D02*
D03*
X85300Y232677D02*
D03*
Y226574D02*
D03*
X96946Y226127D02*
D03*
Y220024D02*
D03*
X91598Y232677D02*
D03*
Y226574D02*
D03*
X113418Y218402D02*
D03*
Y224505D02*
D03*
X153339Y224851D02*
D03*
Y218749D02*
D03*
D27*
X269749Y174100D02*
D03*
X275851D02*
D03*
X274949Y118000D02*
D03*
X281051D02*
D03*
X259949Y117500D02*
D03*
X266051D02*
D03*
X219401Y195997D02*
D03*
X213299D02*
D03*
X219416Y203109D02*
D03*
X213314D02*
D03*
X147249Y103900D02*
D03*
X153351D02*
D03*
X245963Y160297D02*
D03*
X252065D02*
D03*
X257213D02*
D03*
X263315D02*
D03*
X264567Y201142D02*
D03*
X270669D02*
D03*
X282677D02*
D03*
X276575D02*
D03*
X98622Y152854D02*
D03*
X104724D02*
D03*
X278445Y157283D02*
D03*
X272342D02*
D03*
X278366Y146989D02*
D03*
X272264D02*
D03*
X278366Y152136D02*
D03*
X272264D02*
D03*
X276559Y195012D02*
D03*
X282661D02*
D03*
X276559Y189012D02*
D03*
X282661D02*
D03*
X270661Y195012D02*
D03*
X264559D02*
D03*
X270661Y189012D02*
D03*
X264559D02*
D03*
X147351Y112300D02*
D03*
X153454D02*
D03*
X272264Y140858D02*
D03*
X278366D02*
D03*
X202064Y203109D02*
D03*
X208166D02*
D03*
X202049Y197400D02*
D03*
X208151D02*
D03*
X210751Y182297D02*
D03*
X204649D02*
D03*
X207600Y189700D02*
D03*
X201498D02*
D03*
X263315Y167409D02*
D03*
X257213D02*
D03*
X252065D02*
D03*
X245963D02*
D03*
X269849Y181213D02*
D03*
X275951D02*
D03*
X87409Y198619D02*
D03*
X81306D02*
D03*
X59349Y208700D02*
D03*
X65451D02*
D03*
D28*
X248602Y117500D02*
D03*
X236398D02*
D03*
X248810Y233490D02*
D03*
X261014D02*
D03*
D29*
X268529Y209350D02*
D03*
Y219587D02*
D03*
D30*
X291240Y230188D02*
D03*
Y213850D02*
D03*
X282776Y230188D02*
D03*
Y213850D02*
D03*
X287175Y125431D02*
D03*
Y141769D02*
D03*
X295640Y125431D02*
D03*
Y141769D02*
D03*
D31*
X171477Y229134D02*
D03*
Y200000D02*
D03*
D32*
X25021Y214359D02*
D03*
Y209241D02*
D03*
D33*
X45169Y232500D02*
D03*
X47669D02*
D03*
X50269D02*
D03*
X52769D02*
D03*
Y209500D02*
D03*
X50269D02*
D03*
X47669D02*
D03*
D34*
X45169D02*
D03*
D35*
X72047Y119272D02*
D03*
Y111791D02*
D03*
Y104311D02*
D03*
Y96831D02*
D03*
Y89350D02*
D03*
X124016D02*
D03*
Y96831D02*
D03*
Y104311D02*
D03*
Y111791D02*
D03*
Y119272D02*
D03*
D36*
X83071Y78327D02*
D03*
X90551D02*
D03*
X98032D02*
D03*
X105512D02*
D03*
X112992D02*
D03*
Y130295D02*
D03*
X105512D02*
D03*
X98032D02*
D03*
X90551D02*
D03*
X83071D02*
D03*
D38*
X0Y0D02*
Y244100D01*
X301181D01*
Y0D02*
Y244100D01*
X0Y0D02*
X301181D01*
M02*
