G04 Layer_Physical_Order=3*
G04 Layer_Color=16711680*
%FSLAX25Y25*%
%MOIN*%
G70*
G01*
G75*
%ADD37C,0.02000*%
%ADD38C,0.01000*%
%ADD41C,0.04134*%
%ADD42O,0.07480X0.03740*%
%ADD43C,0.06000*%
%ADD44C,0.02362*%
%ADD45C,0.04331*%
%ADD46C,0.01968*%
G36*
X300787Y232283D02*
X301181D01*
Y74364D01*
X300681Y74264D01*
X300367Y75022D01*
X299566Y76066D01*
X298522Y76868D01*
X297305Y77371D01*
X296000Y77543D01*
X294695Y77371D01*
X293478Y76868D01*
X292434Y76066D01*
X291633Y75022D01*
X291129Y73805D01*
X290957Y72500D01*
X291129Y71195D01*
X291633Y69978D01*
X292434Y68934D01*
X293478Y68133D01*
X294695Y67629D01*
X296000Y67457D01*
X297305Y67629D01*
X298522Y68133D01*
X299566Y68934D01*
X300367Y69978D01*
X300681Y70736D01*
X301181Y70636D01*
Y54364D01*
X300681Y54264D01*
X300367Y55022D01*
X299566Y56066D01*
X298522Y56867D01*
X297305Y57371D01*
X296000Y57543D01*
X294695Y57371D01*
X293478Y56867D01*
X292434Y56066D01*
X291633Y55022D01*
X291129Y53805D01*
X290957Y52500D01*
X291129Y51195D01*
X291633Y49978D01*
X292434Y48934D01*
X293478Y48133D01*
X294695Y47629D01*
X296000Y47457D01*
X297305Y47629D01*
X298522Y48133D01*
X299566Y48934D01*
X300367Y49978D01*
X300681Y50736D01*
X301181Y50636D01*
Y34364D01*
X300681Y34264D01*
X300367Y35022D01*
X299566Y36066D01*
X298522Y36867D01*
X297305Y37371D01*
X296000Y37543D01*
X294695Y37371D01*
X293478Y36867D01*
X292434Y36066D01*
X291633Y35022D01*
X291129Y33805D01*
X290957Y32500D01*
X291129Y31195D01*
X291633Y29978D01*
X292434Y28934D01*
X293478Y28133D01*
X294695Y27629D01*
X296000Y27457D01*
X297305Y27629D01*
X298522Y28133D01*
X299566Y28934D01*
X300367Y29978D01*
X300681Y30736D01*
X301181Y30636D01*
Y7874D01*
X293307Y0D01*
X7874D01*
X0Y7874D01*
Y234700D01*
X2157Y236857D01*
X2737Y236730D01*
X3434Y235823D01*
X4478Y235021D01*
X5695Y234518D01*
X7000Y234346D01*
X8305Y234518D01*
X9522Y235021D01*
X10566Y235823D01*
X11367Y236867D01*
X11871Y238084D01*
X12043Y239389D01*
X11871Y240694D01*
X11367Y241910D01*
X10566Y242955D01*
X9725Y243600D01*
X9895Y244100D01*
X24105D01*
X24275Y243600D01*
X23434Y242955D01*
X22633Y241910D01*
X22129Y240694D01*
X21957Y239389D01*
X22129Y238084D01*
X22633Y236867D01*
X23434Y235823D01*
X24478Y235021D01*
X25695Y234518D01*
X27000Y234346D01*
X28305Y234518D01*
X29522Y235021D01*
X30566Y235823D01*
X31367Y236867D01*
X31871Y238084D01*
X32043Y239389D01*
X31871Y240694D01*
X31367Y241910D01*
X30566Y242955D01*
X29725Y243600D01*
X29895Y244100D01*
X36008D01*
X36107Y243600D01*
X35546Y243368D01*
X34502Y242566D01*
X33700Y241522D01*
X33196Y240305D01*
X33024Y239000D01*
X33196Y237695D01*
X33700Y236478D01*
X34502Y235434D01*
X35546Y234632D01*
X36762Y234129D01*
X38068Y233957D01*
X39373Y234129D01*
X40589Y234632D01*
X41634Y235434D01*
X42435Y236478D01*
X42939Y237695D01*
X43111Y239000D01*
X42939Y240305D01*
X42435Y241522D01*
X41634Y242566D01*
X40589Y243368D01*
X40028Y243600D01*
X40127Y244100D01*
X288971D01*
X300787Y232283D01*
D02*
G37*
%LPC*%
G36*
X142696Y115208D02*
X141865Y115099D01*
X141092Y114779D01*
X140427Y114269D01*
X139917Y113604D01*
X139597Y112830D01*
X139487Y112000D01*
X139597Y111170D01*
X139917Y110396D01*
X140427Y109731D01*
X141092Y109221D01*
X141865Y108901D01*
X142696Y108791D01*
X143526Y108901D01*
X144300Y109221D01*
X144965Y109731D01*
X145475Y110396D01*
X145795Y111170D01*
X145904Y112000D01*
X145795Y112830D01*
X145475Y113604D01*
X144965Y114269D01*
X144300Y114779D01*
X143526Y115099D01*
X142696Y115208D01*
D02*
G37*
G36*
X251300Y145509D02*
X250470Y145399D01*
X249696Y145079D01*
X249031Y144569D01*
X248521Y143904D01*
X248201Y143130D01*
X248091Y142300D01*
X248201Y141470D01*
X248521Y140696D01*
X248751Y140396D01*
Y137800D01*
X248945Y136825D01*
X249498Y135998D01*
X252517Y132979D01*
X253343Y132426D01*
X254319Y132232D01*
X275726D01*
X276701Y132426D01*
X277528Y132979D01*
X278212Y133663D01*
X278586Y133712D01*
X279360Y134032D01*
X280025Y134542D01*
X280535Y135207D01*
X280855Y135981D01*
X280964Y136811D01*
X280855Y137642D01*
X280535Y138415D01*
X280025Y139080D01*
X279360Y139590D01*
X278586Y139910D01*
X277756Y140020D01*
X276925Y139910D01*
X276152Y139590D01*
X275487Y139080D01*
X274977Y138415D01*
X274657Y137642D01*
X274616Y137330D01*
X255375D01*
X253849Y138856D01*
Y140396D01*
X254079Y140696D01*
X254399Y141470D01*
X254509Y142300D01*
X254399Y143130D01*
X254079Y143904D01*
X253569Y144569D01*
X252904Y145079D01*
X252130Y145399D01*
X251300Y145509D01*
D02*
G37*
G36*
X9945Y202783D02*
X2465D01*
X2074Y202706D01*
X1744Y202485D01*
X1523Y202154D01*
X1445Y201764D01*
Y195465D01*
X1448Y195451D01*
X1445Y195438D01*
X1448Y195335D01*
X1454Y195308D01*
X1451Y195282D01*
X1459Y195179D01*
X1466Y195153D01*
X1464Y195126D01*
X1478Y195023D01*
X1487Y194998D01*
X1486Y194971D01*
X1505Y194869D01*
X1515Y194844D01*
X1516Y194817D01*
X1540Y194717D01*
X1551Y194693D01*
X1554Y194666D01*
X1583Y194567D01*
X1596Y194543D01*
X1600Y194516D01*
X1634Y194419D01*
X1648Y194395D01*
X1653Y194369D01*
X1693Y194274D01*
X1708Y194251D01*
X1715Y194225D01*
X1759Y194132D01*
X1775Y194110D01*
X1783Y194084D01*
X1832Y193994D01*
X1850Y193973D01*
X1859Y193948D01*
X1913Y193860D01*
X1931Y193840D01*
X1942Y193815D01*
X2000Y193730D01*
X2020Y193711D01*
X2032Y193687D01*
X2094Y193605D01*
X2115Y193587D01*
X2128Y193564D01*
X2195Y193485D01*
X2216Y193468D01*
X2231Y193445D01*
X2302Y193371D01*
X2324Y193355D01*
X2339Y193333D01*
X2414Y193262D01*
X2437Y193248D01*
X2454Y193226D01*
X2532Y193159D01*
X2556Y193146D01*
X2574Y193126D01*
X2655Y193063D01*
X2679Y193051D01*
X2698Y193032D01*
X2783Y192973D01*
X2808Y192963D01*
X2828Y192944D01*
X2916Y192890D01*
X2942Y192881D01*
X2962Y192864D01*
X3053Y192815D01*
X3079Y192806D01*
X3100Y192790D01*
X3193Y192746D01*
X3220Y192739D01*
X3242Y192724D01*
X3337Y192685D01*
X3364Y192680D01*
X3387Y192666D01*
X3484Y192631D01*
X3511Y192627D01*
X3535Y192615D01*
X3634Y192586D01*
X3661Y192583D01*
X3686Y192572D01*
X3786Y192548D01*
X3813Y192547D01*
X3838Y192537D01*
X3939Y192518D01*
X3966Y192518D01*
X3992Y192509D01*
X4094Y192496D01*
X4121Y192498D01*
X4148Y192490D01*
X4250Y192482D01*
X4277Y192485D01*
X4303Y192480D01*
X4406Y192477D01*
X4420Y192479D01*
X4433Y192476D01*
X7976D01*
X7990Y192479D01*
X8003Y192477D01*
X8106Y192480D01*
X8133Y192485D01*
X8159Y192482D01*
X8262Y192490D01*
X8288Y192498D01*
X8315Y192496D01*
X8417Y192509D01*
X8443Y192518D01*
X8470Y192518D01*
X8572Y192537D01*
X8597Y192547D01*
X8624Y192548D01*
X8724Y192572D01*
X8748Y192583D01*
X8775Y192586D01*
X8874Y192615D01*
X8898Y192627D01*
X8925Y192631D01*
X9022Y192666D01*
X9046Y192680D01*
X9072Y192685D01*
X9167Y192724D01*
X9190Y192739D01*
X9216Y192746D01*
X9309Y192790D01*
X9331Y192806D01*
X9357Y192815D01*
X9447Y192864D01*
X9468Y192881D01*
X9493Y192890D01*
X9581Y192944D01*
X9601Y192963D01*
X9626Y192973D01*
X9711Y193032D01*
X9730Y193051D01*
X9754Y193063D01*
X9836Y193126D01*
X9854Y193146D01*
X9877Y193159D01*
X9956Y193226D01*
X9973Y193248D01*
X9995Y193262D01*
X10070Y193333D01*
X10086Y193355D01*
X10108Y193371D01*
X10179Y193445D01*
X10193Y193468D01*
X10215Y193485D01*
X10282Y193564D01*
X10295Y193587D01*
X10315Y193605D01*
X10378Y193687D01*
X10390Y193711D01*
X10409Y193730D01*
X10468Y193815D01*
X10478Y193840D01*
X10497Y193860D01*
X10550Y193948D01*
X10560Y193973D01*
X10577Y193994D01*
X10626Y194084D01*
X10634Y194110D01*
X10651Y194132D01*
X10695Y194225D01*
X10702Y194251D01*
X10717Y194274D01*
X10756Y194369D01*
X10761Y194395D01*
X10775Y194419D01*
X10810Y194516D01*
X10813Y194543D01*
X10826Y194567D01*
X10855Y194666D01*
X10858Y194693D01*
X10869Y194717D01*
X10893Y194817D01*
X10894Y194844D01*
X10904Y194869D01*
X10923Y194971D01*
X10923Y194998D01*
X10932Y195024D01*
X10945Y195126D01*
X10943Y195153D01*
X10950Y195179D01*
X10959Y195282D01*
X10955Y195308D01*
X10961Y195335D01*
X10964Y195438D01*
X10962Y195451D01*
X10965Y195465D01*
Y201764D01*
X10887Y202154D01*
X10666Y202485D01*
X10335Y202706D01*
X9945Y202783D01*
D02*
G37*
G36*
X18409Y205539D02*
X17622D01*
X17609Y205537D01*
X17595Y205539D01*
X17487Y205536D01*
X17461Y205530D01*
X17434Y205533D01*
X17326Y205525D01*
X17300Y205518D01*
X17273Y205519D01*
X17166Y205505D01*
X17140Y205496D01*
X17113Y205497D01*
X17007Y205477D01*
X16981Y205467D01*
X16954Y205466D01*
X16849Y205441D01*
X16824Y205429D01*
X16797Y205427D01*
X16694Y205396D01*
X16670Y205383D01*
X16643Y205380D01*
X16541Y205344D01*
X16518Y205330D01*
X16491Y205324D01*
X16391Y205283D01*
X16369Y205268D01*
X16342Y205261D01*
X16245Y205215D01*
X16223Y205198D01*
X16197Y205190D01*
X16102Y205139D01*
X16081Y205121D01*
X16056Y205112D01*
X15964Y205056D01*
X15944Y205037D01*
X15919Y205026D01*
X15830Y204965D01*
X15811Y204946D01*
X15786Y204934D01*
X15701Y204868D01*
X15683Y204848D01*
X15659Y204834D01*
X15577Y204764D01*
X15560Y204743D01*
X15537Y204728D01*
X15459Y204654D01*
X15443Y204632D01*
X15421Y204616D01*
X15346Y204538D01*
X15332Y204515D01*
X15311Y204498D01*
X15240Y204416D01*
X15227Y204392D01*
X15207Y204374D01*
X15141Y204289D01*
X15129Y204264D01*
X15110Y204245D01*
X15048Y204156D01*
X15038Y204131D01*
X15019Y204111D01*
X14963Y204019D01*
X14953Y203994D01*
X14936Y203973D01*
X14885Y203878D01*
X14876Y203852D01*
X14860Y203830D01*
X14814Y203732D01*
X14807Y203706D01*
X14792Y203684D01*
X14750Y203584D01*
X14745Y203557D01*
X14731Y203534D01*
X14695Y203432D01*
X14691Y203405D01*
X14679Y203381D01*
X14648Y203277D01*
X14646Y203250D01*
X14634Y203226D01*
X14609Y203120D01*
X14608Y203094D01*
X14598Y203068D01*
X14578Y202962D01*
X14578Y202935D01*
X14570Y202909D01*
X14556Y202802D01*
X14557Y202775D01*
X14550Y202749D01*
X14541Y202641D01*
X14545Y202614D01*
X14539Y202588D01*
X14536Y202479D01*
X14538Y202466D01*
X14536Y202453D01*
X14538Y202439D01*
X14536Y202426D01*
X14539Y202318D01*
X14545Y202291D01*
X14541Y202264D01*
X14550Y202156D01*
X14557Y202131D01*
X14556Y202104D01*
X14570Y201997D01*
X14578Y201971D01*
X14578Y201943D01*
X14598Y201837D01*
X14608Y201812D01*
X14609Y201785D01*
X14634Y201680D01*
X14646Y201655D01*
X14648Y201628D01*
X14679Y201524D01*
X14691Y201501D01*
X14695Y201474D01*
X14731Y201372D01*
X14745Y201348D01*
X14750Y201322D01*
X14792Y201222D01*
X14807Y201199D01*
X14814Y201173D01*
X14860Y201076D01*
X14876Y201054D01*
X14885Y201028D01*
X14936Y200933D01*
X14953Y200912D01*
X14963Y200887D01*
X15019Y200794D01*
X15038Y200775D01*
X15048Y200749D01*
X15110Y200660D01*
X15129Y200641D01*
X15141Y200617D01*
X15207Y200531D01*
X15227Y200513D01*
X15240Y200490D01*
X15311Y200408D01*
X15332Y200391D01*
X15346Y200368D01*
X15421Y200289D01*
X15443Y200274D01*
X15459Y200252D01*
X15537Y200177D01*
X15560Y200163D01*
X15577Y200141D01*
X15659Y200071D01*
X15683Y200058D01*
X15701Y200038D01*
X15786Y199972D01*
X15811Y199960D01*
X15830Y199940D01*
X15919Y199879D01*
X15944Y199868D01*
X15964Y199850D01*
X16056Y199793D01*
X16081Y199784D01*
X16102Y199767D01*
X16197Y199715D01*
X16223Y199707D01*
X16245Y199691D01*
X16343Y199644D01*
X16369Y199638D01*
X16391Y199623D01*
X16491Y199581D01*
X16518Y199576D01*
X16541Y199562D01*
X16643Y199526D01*
X16670Y199522D01*
X16694Y199510D01*
X16797Y199479D01*
X16824Y199476D01*
X16849Y199465D01*
X16954Y199440D01*
X16981Y199439D01*
X17007Y199428D01*
X17113Y199409D01*
X17140Y199409D01*
X17166Y199400D01*
X17273Y199386D01*
X17300Y199388D01*
X17326Y199381D01*
X17434Y199372D01*
X17461Y199375D01*
X17487Y199369D01*
X17595Y199367D01*
X17609Y199369D01*
X17622Y199366D01*
X18409D01*
X18423Y199369D01*
X18436Y199367D01*
X18544Y199369D01*
X18571Y199375D01*
X18598Y199372D01*
X18706Y199381D01*
X18732Y199388D01*
X18758Y199386D01*
X18866Y199400D01*
X18891Y199409D01*
X18919Y199409D01*
X19025Y199428D01*
X19050Y199439D01*
X19077Y199440D01*
X19183Y199465D01*
X19207Y199476D01*
X19234Y199479D01*
X19338Y199510D01*
X19362Y199522D01*
X19388Y199526D01*
X19490Y199562D01*
X19514Y199576D01*
X19540Y199581D01*
X19640Y199623D01*
X19663Y199638D01*
X19689Y199644D01*
X19787Y199691D01*
X19808Y199707D01*
X19835Y199715D01*
X19930Y199767D01*
X19950Y199784D01*
X19975Y199793D01*
X20068Y199850D01*
X20088Y199868D01*
X20113Y199879D01*
X20202Y199940D01*
X20221Y199960D01*
X20245Y199972D01*
X20331Y200038D01*
X20349Y200058D01*
X20372Y200071D01*
X20455Y200141D01*
X20471Y200163D01*
X20494Y200177D01*
X20573Y200252D01*
X20588Y200274D01*
X20611Y200289D01*
X20685Y200368D01*
X20699Y200391D01*
X20721Y200408D01*
X20791Y200490D01*
X20804Y200513D01*
X20825Y200531D01*
X20890Y200617D01*
X20902Y200641D01*
X20922Y200660D01*
X20983Y200749D01*
X20994Y200774D01*
X21012Y200794D01*
X21069Y200887D01*
X21078Y200912D01*
X21095Y200933D01*
X21147Y201028D01*
X21155Y201054D01*
X21171Y201076D01*
X21218Y201173D01*
X21225Y201200D01*
X21240Y201222D01*
X21281Y201322D01*
X21286Y201348D01*
X21300Y201372D01*
X21336Y201474D01*
X21340Y201501D01*
X21353Y201524D01*
X21384Y201628D01*
X21386Y201655D01*
X21397Y201680D01*
X21423Y201785D01*
X21424Y201812D01*
X21434Y201837D01*
X21453Y201944D01*
X21453Y201971D01*
X21462Y201997D01*
X21476Y202104D01*
X21474Y202131D01*
X21482Y202157D01*
X21490Y202264D01*
X21487Y202291D01*
X21493Y202318D01*
X21496Y202426D01*
X21493Y202439D01*
X21496Y202453D01*
X21493Y202466D01*
X21496Y202480D01*
X21493Y202588D01*
X21487Y202614D01*
X21490Y202641D01*
X21482Y202749D01*
X21474Y202775D01*
X21476Y202802D01*
X21462Y202909D01*
X21453Y202935D01*
X21453Y202962D01*
X21434Y203068D01*
X21424Y203094D01*
X21423Y203121D01*
X21397Y203226D01*
X21386Y203250D01*
X21384Y203277D01*
X21353Y203381D01*
X21340Y203405D01*
X21336Y203432D01*
X21300Y203534D01*
X21286Y203557D01*
X21281Y203584D01*
X21240Y203683D01*
X21225Y203706D01*
X21218Y203732D01*
X21171Y203830D01*
X21155Y203852D01*
X21147Y203878D01*
X21095Y203973D01*
X21078Y203994D01*
X21069Y204019D01*
X21012Y204111D01*
X20994Y204131D01*
X20983Y204156D01*
X20922Y204245D01*
X20902Y204264D01*
X20890Y204288D01*
X20825Y204374D01*
X20804Y204392D01*
X20791Y204416D01*
X20721Y204498D01*
X20699Y204515D01*
X20685Y204538D01*
X20611Y204616D01*
X20588Y204632D01*
X20573Y204654D01*
X20494Y204728D01*
X20471Y204743D01*
X20455Y204764D01*
X20372Y204834D01*
X20349Y204848D01*
X20331Y204868D01*
X20245Y204934D01*
X20221Y204946D01*
X20202Y204965D01*
X20113Y205026D01*
X20088Y205037D01*
X20068Y205056D01*
X19975Y205112D01*
X19950Y205121D01*
X19930Y205139D01*
X19835Y205190D01*
X19808Y205198D01*
X19787Y205215D01*
X19689Y205261D01*
X19663Y205268D01*
X19640Y205283D01*
X19540Y205324D01*
X19514Y205330D01*
X19490Y205344D01*
X19388Y205380D01*
X19362Y205383D01*
X19338Y205396D01*
X19234Y205427D01*
X19207Y205429D01*
X19183Y205441D01*
X19077Y205466D01*
X19050Y205467D01*
X19025Y205477D01*
X18919Y205497D01*
X18891Y205496D01*
X18866Y205505D01*
X18758Y205519D01*
X18732Y205518D01*
X18706Y205525D01*
X18598Y205533D01*
X18571Y205530D01*
X18544Y205536D01*
X18436Y205539D01*
X18423Y205537D01*
X18409Y205539D01*
D02*
G37*
G36*
X120825Y203268D02*
X119520Y203097D01*
X118304Y202593D01*
X117259Y201791D01*
X116827Y201228D01*
X116327D01*
X116197Y201397D01*
X115152Y202199D01*
X113936Y202703D01*
X112631Y202875D01*
X111326Y202703D01*
X110109Y202199D01*
X109065Y201397D01*
X108263Y200353D01*
X107759Y199137D01*
X107588Y197831D01*
X107759Y196526D01*
X108263Y195310D01*
X109065Y194265D01*
X110109Y193464D01*
X111326Y192960D01*
X112631Y192788D01*
X113936Y192960D01*
X115152Y193464D01*
X116197Y194265D01*
X116629Y194829D01*
X117129D01*
X117259Y194659D01*
X118304Y193858D01*
X119520Y193354D01*
X120825Y193182D01*
X122131Y193354D01*
X123347Y193858D01*
X124391Y194659D01*
X125193Y195704D01*
X125697Y196920D01*
X125869Y198225D01*
X125697Y199530D01*
X125193Y200747D01*
X124391Y201791D01*
X123347Y202593D01*
X122131Y203097D01*
X120825Y203268D01*
D02*
G37*
G36*
X142594Y107009D02*
X141763Y106899D01*
X140989Y106579D01*
X140325Y106069D01*
X139815Y105404D01*
X139494Y104630D01*
X139385Y103800D01*
X139494Y102970D01*
X139815Y102196D01*
X140325Y101531D01*
X140989Y101021D01*
X141763Y100701D01*
X142594Y100591D01*
X143424Y100701D01*
X144198Y101021D01*
X144862Y101531D01*
X145372Y102196D01*
X145693Y102970D01*
X145802Y103800D01*
X145693Y104630D01*
X145372Y105404D01*
X144862Y106069D01*
X144198Y106579D01*
X143424Y106899D01*
X142594Y107009D01*
D02*
G37*
G36*
X264469Y187854D02*
X263638Y187745D01*
X262864Y187424D01*
X262200Y186915D01*
X261690Y186250D01*
X261369Y185476D01*
X261260Y184646D01*
X261369Y183815D01*
X261690Y183041D01*
X261919Y182742D01*
Y182060D01*
X256551Y176691D01*
X229880D01*
X229528Y176762D01*
X229205D01*
X229133Y176834D01*
X229083Y177208D01*
X228763Y177982D01*
X228253Y178647D01*
X227589Y179157D01*
X226815Y179477D01*
X225984Y179587D01*
X225154Y179477D01*
X224380Y179157D01*
X223715Y178647D01*
X223206Y177982D01*
X222885Y177208D01*
X222776Y176378D01*
X222885Y175548D01*
X223206Y174774D01*
X223715Y174109D01*
X224380Y173599D01*
X225154Y173279D01*
X225528Y173230D01*
X226347Y172410D01*
X227174Y171858D01*
X227487Y171795D01*
X227782Y171227D01*
X227609Y170811D01*
X227500Y169980D01*
X227609Y169150D01*
X227930Y168376D01*
X228440Y167711D01*
X229104Y167202D01*
X229878Y166881D01*
X230709Y166772D01*
X231539Y166881D01*
X232313Y167202D01*
X232977Y167711D01*
X233487Y168376D01*
X233808Y169150D01*
X233857Y169524D01*
X234127Y169793D01*
X261825D01*
X262600Y169692D01*
X263430Y169801D01*
X264204Y170121D01*
X264869Y170631D01*
X265379Y171296D01*
X265699Y172070D01*
X265809Y172900D01*
X265699Y173730D01*
X265379Y174504D01*
X264869Y175169D01*
X264204Y175679D01*
X263675Y175898D01*
X263530Y176461D01*
X266271Y179201D01*
X266824Y180028D01*
X267018Y181004D01*
Y182742D01*
X267247Y183041D01*
X267568Y183815D01*
X267677Y184646D01*
X267568Y185476D01*
X267247Y186250D01*
X266737Y186915D01*
X266073Y187424D01*
X265299Y187745D01*
X264469Y187854D01*
D02*
G37*
G36*
X224400Y149908D02*
X223570Y149799D01*
X222796Y149479D01*
X222131Y148969D01*
X221621Y148304D01*
X221301Y147530D01*
X221191Y146700D01*
X221301Y145870D01*
X221621Y145096D01*
X222131Y144431D01*
X222796Y143921D01*
X223570Y143601D01*
X224400Y143491D01*
X225230Y143601D01*
X226004Y143921D01*
X226669Y144431D01*
X227179Y145096D01*
X227499Y145870D01*
X227609Y146700D01*
X227499Y147530D01*
X227179Y148304D01*
X226669Y148969D01*
X226004Y149479D01*
X225230Y149799D01*
X224400Y149908D01*
D02*
G37*
G36*
X231800Y149809D02*
X230970Y149699D01*
X230196Y149379D01*
X229531Y148869D01*
X229021Y148204D01*
X228701Y147430D01*
X228591Y146600D01*
X228701Y145770D01*
X229021Y144996D01*
X229531Y144331D01*
X230196Y143821D01*
X230970Y143501D01*
X231800Y143392D01*
X232630Y143501D01*
X233404Y143821D01*
X234069Y144331D01*
X234579Y144996D01*
X234899Y145770D01*
X235009Y146600D01*
X234899Y147430D01*
X234579Y148204D01*
X234069Y148869D01*
X233404Y149379D01*
X232630Y149699D01*
X231800Y149809D01*
D02*
G37*
G36*
X236300Y133308D02*
X235470Y133199D01*
X235293Y133126D01*
X226207D01*
X226030Y133199D01*
X225200Y133308D01*
X224370Y133199D01*
X223596Y132879D01*
X222931Y132369D01*
X222421Y131704D01*
X222101Y130930D01*
X221991Y130100D01*
X222101Y129270D01*
X222421Y128496D01*
X222931Y127831D01*
X223596Y127321D01*
X224370Y127001D01*
X225200Y126892D01*
X226030Y127001D01*
X226207Y127074D01*
X235293D01*
X235470Y127001D01*
X236300Y126892D01*
X237130Y127001D01*
X237904Y127321D01*
X238569Y127831D01*
X239079Y128496D01*
X239399Y129270D01*
X239509Y130100D01*
X239399Y130930D01*
X239079Y131704D01*
X238569Y132369D01*
X237904Y132879D01*
X237130Y133199D01*
X236300Y133308D01*
D02*
G37*
G36*
X238500Y166709D02*
X237670Y166599D01*
X236896Y166279D01*
X236231Y165769D01*
X235721Y165104D01*
X235401Y164330D01*
X235291Y163500D01*
X235401Y162670D01*
X235721Y161896D01*
X236231Y161231D01*
X236896Y160721D01*
X237670Y160401D01*
X238500Y160292D01*
X239330Y160401D01*
X240104Y160721D01*
X240769Y161231D01*
X241279Y161896D01*
X241599Y162670D01*
X241709Y163500D01*
X241599Y164330D01*
X241279Y165104D01*
X240769Y165769D01*
X240104Y166279D01*
X239330Y166599D01*
X238500Y166709D01*
D02*
G37*
G36*
X267789Y166008D02*
X266959Y165899D01*
X266185Y165579D01*
X265520Y165069D01*
X265010Y164404D01*
X264690Y163630D01*
X264581Y162800D01*
X264690Y161970D01*
X265010Y161196D01*
X265520Y160531D01*
X266185Y160021D01*
X266959Y159701D01*
X267789Y159591D01*
X268620Y159701D01*
X269393Y160021D01*
X270058Y160531D01*
X270568Y161196D01*
X270888Y161970D01*
X270998Y162800D01*
X270888Y163630D01*
X270568Y164404D01*
X270058Y165069D01*
X269393Y165579D01*
X268620Y165899D01*
X267789Y166008D01*
D02*
G37*
G36*
X249987Y158396D02*
X249157Y158286D01*
X248383Y157966D01*
X247718Y157456D01*
X247208Y156791D01*
X247064Y156444D01*
X245961Y155340D01*
X245471Y155557D01*
X245179Y156263D01*
X244669Y156927D01*
X244004Y157437D01*
X243230Y157758D01*
X242400Y157867D01*
X241570Y157758D01*
X240796Y157437D01*
X240131Y156927D01*
X239621Y156263D01*
X239301Y155489D01*
X239191Y154659D01*
X239301Y153828D01*
X239621Y153054D01*
X240131Y152390D01*
X240796Y151880D01*
X241501Y151588D01*
X241718Y151098D01*
X241660Y151040D01*
X241179Y150413D01*
X240877Y149683D01*
X240774Y148900D01*
Y136100D01*
X240796Y135934D01*
X240791Y135900D01*
X240901Y135070D01*
X241221Y134296D01*
X241731Y133631D01*
X242396Y133121D01*
X243170Y132801D01*
X244000Y132692D01*
X244830Y132801D01*
X245604Y133121D01*
X246269Y133631D01*
X246779Y134296D01*
X247099Y135070D01*
X247209Y135900D01*
X247099Y136730D01*
X246826Y137390D01*
Y147647D01*
X251585Y152406D01*
X251591Y152408D01*
X252256Y152918D01*
X252766Y153583D01*
X253086Y154357D01*
X253196Y155187D01*
X253086Y156017D01*
X252766Y156791D01*
X252256Y157456D01*
X251591Y157966D01*
X250817Y158286D01*
X249987Y158396D01*
D02*
G37*
G36*
X104630Y218043D02*
X103324Y217871D01*
X102108Y217368D01*
X101064Y216566D01*
X100262Y215522D01*
X99758Y214305D01*
X99587Y213000D01*
X99758Y211695D01*
X100262Y210478D01*
X101064Y209434D01*
X102108Y208632D01*
X103324Y208129D01*
X104630Y207957D01*
X105935Y208129D01*
X107151Y208632D01*
X108196Y209434D01*
X108997Y210478D01*
X109501Y211695D01*
X109673Y213000D01*
X109501Y214305D01*
X108997Y215522D01*
X108196Y216566D01*
X107151Y217368D01*
X105935Y217871D01*
X104630Y218043D01*
D02*
G37*
G36*
X66600Y240243D02*
X65295Y240071D01*
X64078Y239567D01*
X63034Y238766D01*
X62233Y237722D01*
X61729Y236505D01*
X61557Y235200D01*
X61729Y233895D01*
X62233Y232678D01*
X63034Y231634D01*
X64078Y230833D01*
X65295Y230329D01*
X66600Y230157D01*
X67905Y230329D01*
X69122Y230833D01*
X70166Y231634D01*
X70968Y232678D01*
X71471Y233895D01*
X71643Y235200D01*
X71471Y236505D01*
X70968Y237722D01*
X70166Y238766D01*
X69122Y239567D01*
X67905Y240071D01*
X66600Y240243D01*
D02*
G37*
G36*
X286206Y87907D02*
X285119Y87764D01*
X284105Y87344D01*
X283235Y86677D01*
X282568Y85807D01*
X282148Y84794D01*
X282005Y83706D01*
X282148Y82619D01*
X282568Y81605D01*
X283235Y80735D01*
X284105Y80068D01*
X284223Y80019D01*
Y79519D01*
X284105Y79470D01*
X283235Y78803D01*
X282568Y77933D01*
X282148Y76919D01*
X282005Y75832D01*
X282148Y74745D01*
X282568Y73731D01*
X283235Y72861D01*
X284105Y72194D01*
X284223Y72145D01*
Y71645D01*
X284105Y71596D01*
X283235Y70929D01*
X282568Y70059D01*
X282148Y69045D01*
X282005Y67958D01*
X282148Y66871D01*
X282568Y65857D01*
X283235Y64987D01*
X284105Y64320D01*
X284223Y64271D01*
Y63771D01*
X284105Y63722D01*
X283235Y63055D01*
X282568Y62185D01*
X282148Y61171D01*
X282005Y60084D01*
X282148Y58997D01*
X282568Y57983D01*
X283235Y57113D01*
X284105Y56446D01*
X284223Y56397D01*
Y55897D01*
X284105Y55848D01*
X283235Y55181D01*
X282568Y54311D01*
X282148Y53297D01*
X282005Y52210D01*
X282148Y51123D01*
X282568Y50109D01*
X283235Y49239D01*
X284105Y48572D01*
X284223Y48523D01*
Y48023D01*
X284105Y47974D01*
X283235Y47307D01*
X282568Y46437D01*
X282148Y45423D01*
X282005Y44336D01*
X282148Y43249D01*
X282568Y42235D01*
X283235Y41365D01*
X284105Y40698D01*
X284223Y40649D01*
Y40149D01*
X284105Y40100D01*
X283235Y39433D01*
X282568Y38563D01*
X282148Y37549D01*
X282005Y36462D01*
X282148Y35375D01*
X282568Y34361D01*
X283235Y33491D01*
X284105Y32824D01*
X284223Y32775D01*
Y32275D01*
X284105Y32226D01*
X283235Y31559D01*
X282568Y30689D01*
X282148Y29675D01*
X282005Y28588D01*
X282148Y27501D01*
X282568Y26487D01*
X283235Y25617D01*
X284105Y24950D01*
X284223Y24901D01*
Y24401D01*
X284105Y24352D01*
X283235Y23685D01*
X282568Y22815D01*
X282148Y21801D01*
X282005Y20714D01*
X282148Y19627D01*
X282568Y18613D01*
X283235Y17743D01*
X284105Y17076D01*
X284223Y17027D01*
Y16527D01*
X284105Y16478D01*
X283235Y15811D01*
X282568Y14941D01*
X282148Y13927D01*
X282005Y12840D01*
X282148Y11753D01*
X282568Y10739D01*
X283235Y9869D01*
X284105Y9201D01*
X285119Y8782D01*
X286206Y8639D01*
X287294Y8782D01*
X288307Y9201D01*
X289177Y9869D01*
X289844Y10739D01*
X290264Y11753D01*
X290407Y12840D01*
X290264Y13927D01*
X289844Y14941D01*
X289177Y15811D01*
X288307Y16478D01*
X288189Y16527D01*
Y17027D01*
X288307Y17076D01*
X289177Y17743D01*
X289844Y18613D01*
X290264Y19627D01*
X290407Y20714D01*
X290264Y21801D01*
X289844Y22815D01*
X289177Y23685D01*
X288307Y24352D01*
X288189Y24401D01*
Y24901D01*
X288307Y24950D01*
X289177Y25617D01*
X289844Y26487D01*
X290264Y27501D01*
X290407Y28588D01*
X290264Y29675D01*
X289844Y30689D01*
X289177Y31559D01*
X288307Y32226D01*
X288189Y32275D01*
Y32775D01*
X288307Y32824D01*
X289177Y33491D01*
X289844Y34361D01*
X290264Y35375D01*
X290407Y36462D01*
X290264Y37549D01*
X289844Y38563D01*
X289177Y39433D01*
X288307Y40100D01*
X288189Y40149D01*
Y40649D01*
X288307Y40698D01*
X289177Y41365D01*
X289844Y42235D01*
X290264Y43249D01*
X290407Y44336D01*
X290264Y45423D01*
X289844Y46437D01*
X289177Y47307D01*
X288307Y47974D01*
X288189Y48023D01*
Y48523D01*
X288307Y48572D01*
X289177Y49239D01*
X289844Y50109D01*
X290264Y51123D01*
X290407Y52210D01*
X290264Y53297D01*
X289844Y54311D01*
X289177Y55181D01*
X288307Y55848D01*
X288189Y55897D01*
Y56397D01*
X288307Y56446D01*
X289177Y57113D01*
X289844Y57983D01*
X290264Y58997D01*
X290407Y60084D01*
X290264Y61171D01*
X289844Y62185D01*
X289177Y63055D01*
X288307Y63722D01*
X288189Y63771D01*
Y64271D01*
X288307Y64320D01*
X289177Y64987D01*
X289844Y65857D01*
X290264Y66871D01*
X290407Y67958D01*
X290264Y69045D01*
X289844Y70059D01*
X289177Y70929D01*
X288307Y71596D01*
X288189Y71645D01*
Y72145D01*
X288307Y72194D01*
X289177Y72861D01*
X289844Y73731D01*
X290264Y74745D01*
X290407Y75832D01*
X290264Y76919D01*
X289844Y77933D01*
X289177Y78803D01*
X288307Y79470D01*
X288189Y79519D01*
Y80019D01*
X288307Y80068D01*
X289177Y80735D01*
X289844Y81605D01*
X290264Y82619D01*
X290407Y83706D01*
X290264Y84794D01*
X289844Y85807D01*
X289177Y86677D01*
X288307Y87344D01*
X287294Y87764D01*
X286206Y87907D01*
D02*
G37*
G36*
X18409Y224634D02*
X17622D01*
X17609Y224631D01*
X17595Y224633D01*
X17487Y224631D01*
X17461Y224625D01*
X17434Y224628D01*
X17326Y224619D01*
X17300Y224612D01*
X17273Y224614D01*
X17166Y224600D01*
X17140Y224591D01*
X17113Y224591D01*
X17007Y224571D01*
X16981Y224562D01*
X16954Y224560D01*
X16849Y224535D01*
X16824Y224524D01*
X16797Y224521D01*
X16694Y224490D01*
X16670Y224478D01*
X16643Y224474D01*
X16541Y224438D01*
X16518Y224424D01*
X16491Y224419D01*
X16391Y224377D01*
X16369Y224362D01*
X16342Y224356D01*
X16245Y224309D01*
X16223Y224293D01*
X16197Y224285D01*
X16102Y224233D01*
X16081Y224216D01*
X16056Y224207D01*
X15964Y224150D01*
X15944Y224132D01*
X15919Y224121D01*
X15830Y224060D01*
X15811Y224040D01*
X15786Y224028D01*
X15701Y223962D01*
X15683Y223942D01*
X15659Y223929D01*
X15577Y223859D01*
X15560Y223837D01*
X15537Y223823D01*
X15459Y223748D01*
X15443Y223726D01*
X15421Y223711D01*
X15346Y223632D01*
X15332Y223609D01*
X15311Y223592D01*
X15240Y223510D01*
X15227Y223487D01*
X15207Y223469D01*
X15141Y223383D01*
X15129Y223359D01*
X15110Y223340D01*
X15048Y223251D01*
X15038Y223226D01*
X15019Y223206D01*
X14963Y223113D01*
X14953Y223088D01*
X14936Y223067D01*
X14885Y222972D01*
X14876Y222946D01*
X14860Y222924D01*
X14814Y222827D01*
X14807Y222801D01*
X14792Y222778D01*
X14750Y222678D01*
X14745Y222652D01*
X14731Y222628D01*
X14695Y222526D01*
X14691Y222499D01*
X14679Y222476D01*
X14648Y222372D01*
X14646Y222345D01*
X14634Y222320D01*
X14609Y222215D01*
X14608Y222188D01*
X14598Y222163D01*
X14578Y222057D01*
X14578Y222029D01*
X14570Y222003D01*
X14556Y221896D01*
X14557Y221869D01*
X14550Y221844D01*
X14541Y221736D01*
X14545Y221709D01*
X14539Y221682D01*
X14536Y221574D01*
X14538Y221561D01*
X14536Y221547D01*
X14538Y221534D01*
X14536Y221521D01*
X14539Y221412D01*
X14545Y221386D01*
X14541Y221359D01*
X14550Y221251D01*
X14557Y221225D01*
X14556Y221198D01*
X14570Y221091D01*
X14578Y221065D01*
X14578Y221038D01*
X14598Y220932D01*
X14608Y220906D01*
X14609Y220880D01*
X14634Y220774D01*
X14646Y220750D01*
X14648Y220723D01*
X14679Y220619D01*
X14691Y220595D01*
X14695Y220568D01*
X14731Y220466D01*
X14745Y220443D01*
X14750Y220416D01*
X14792Y220316D01*
X14807Y220294D01*
X14814Y220268D01*
X14860Y220170D01*
X14876Y220148D01*
X14885Y220122D01*
X14936Y220027D01*
X14953Y220006D01*
X14963Y219981D01*
X15019Y219889D01*
X15038Y219869D01*
X15048Y219844D01*
X15110Y219755D01*
X15129Y219736D01*
X15141Y219711D01*
X15207Y219626D01*
X15227Y219608D01*
X15240Y219584D01*
X15311Y219502D01*
X15332Y219485D01*
X15346Y219462D01*
X15421Y219384D01*
X15443Y219368D01*
X15459Y219346D01*
X15537Y219272D01*
X15560Y219257D01*
X15577Y219236D01*
X15659Y219166D01*
X15683Y219152D01*
X15701Y219132D01*
X15786Y219066D01*
X15811Y219054D01*
X15830Y219035D01*
X15919Y218974D01*
X15944Y218963D01*
X15964Y218944D01*
X16056Y218888D01*
X16081Y218879D01*
X16102Y218861D01*
X16197Y218810D01*
X16223Y218802D01*
X16245Y218785D01*
X16343Y218739D01*
X16369Y218732D01*
X16391Y218717D01*
X16491Y218676D01*
X16518Y218670D01*
X16541Y218656D01*
X16643Y218620D01*
X16670Y218617D01*
X16694Y218604D01*
X16797Y218573D01*
X16824Y218571D01*
X16849Y218559D01*
X16954Y218534D01*
X16981Y218533D01*
X17007Y218523D01*
X17113Y218503D01*
X17140Y218504D01*
X17166Y218495D01*
X17273Y218481D01*
X17300Y218482D01*
X17326Y218475D01*
X17434Y218467D01*
X17461Y218470D01*
X17487Y218464D01*
X17595Y218461D01*
X17609Y218463D01*
X17622Y218461D01*
X18409D01*
X18423Y218463D01*
X18436Y218461D01*
X18544Y218464D01*
X18571Y218470D01*
X18598Y218467D01*
X18706Y218475D01*
X18732Y218482D01*
X18758Y218481D01*
X18866Y218495D01*
X18891Y218504D01*
X18919Y218503D01*
X19025Y218523D01*
X19050Y218533D01*
X19077Y218534D01*
X19183Y218559D01*
X19207Y218571D01*
X19234Y218573D01*
X19338Y218604D01*
X19362Y218617D01*
X19388Y218620D01*
X19490Y218656D01*
X19514Y218670D01*
X19540Y218676D01*
X19640Y218717D01*
X19663Y218732D01*
X19689Y218739D01*
X19787Y218785D01*
X19808Y218802D01*
X19835Y218810D01*
X19930Y218861D01*
X19950Y218879D01*
X19975Y218888D01*
X20068Y218944D01*
X20088Y218963D01*
X20113Y218974D01*
X20202Y219035D01*
X20221Y219054D01*
X20245Y219066D01*
X20331Y219132D01*
X20349Y219152D01*
X20372Y219166D01*
X20455Y219236D01*
X20471Y219257D01*
X20494Y219272D01*
X20573Y219346D01*
X20588Y219368D01*
X20611Y219384D01*
X20685Y219462D01*
X20699Y219485D01*
X20721Y219502D01*
X20791Y219584D01*
X20804Y219608D01*
X20825Y219626D01*
X20890Y219712D01*
X20902Y219736D01*
X20922Y219755D01*
X20983Y219844D01*
X20994Y219869D01*
X21012Y219889D01*
X21069Y219981D01*
X21078Y220006D01*
X21095Y220027D01*
X21147Y220122D01*
X21155Y220148D01*
X21171Y220170D01*
X21218Y220268D01*
X21225Y220294D01*
X21240Y220317D01*
X21281Y220416D01*
X21286Y220443D01*
X21300Y220466D01*
X21336Y220568D01*
X21340Y220595D01*
X21353Y220619D01*
X21384Y220723D01*
X21386Y220750D01*
X21397Y220774D01*
X21423Y220879D01*
X21424Y220906D01*
X21434Y220932D01*
X21453Y221038D01*
X21453Y221065D01*
X21462Y221091D01*
X21476Y221198D01*
X21474Y221225D01*
X21482Y221251D01*
X21490Y221359D01*
X21487Y221386D01*
X21493Y221412D01*
X21496Y221520D01*
X21493Y221534D01*
X21496Y221547D01*
X21493Y221561D01*
X21496Y221574D01*
X21493Y221682D01*
X21487Y221709D01*
X21490Y221736D01*
X21482Y221843D01*
X21474Y221869D01*
X21476Y221896D01*
X21462Y222004D01*
X21453Y222029D01*
X21453Y222056D01*
X21434Y222163D01*
X21424Y222188D01*
X21423Y222215D01*
X21397Y222320D01*
X21386Y222345D01*
X21384Y222372D01*
X21353Y222476D01*
X21340Y222499D01*
X21336Y222526D01*
X21300Y222628D01*
X21286Y222652D01*
X21281Y222678D01*
X21240Y222778D01*
X21225Y222801D01*
X21218Y222827D01*
X21171Y222924D01*
X21155Y222946D01*
X21147Y222972D01*
X21095Y223067D01*
X21078Y223088D01*
X21069Y223113D01*
X21012Y223206D01*
X20994Y223226D01*
X20983Y223251D01*
X20922Y223340D01*
X20902Y223359D01*
X20890Y223383D01*
X20825Y223469D01*
X20804Y223486D01*
X20791Y223510D01*
X20721Y223592D01*
X20699Y223609D01*
X20685Y223632D01*
X20611Y223711D01*
X20588Y223726D01*
X20573Y223748D01*
X20494Y223823D01*
X20471Y223837D01*
X20455Y223859D01*
X20372Y223929D01*
X20349Y223942D01*
X20331Y223962D01*
X20245Y224028D01*
X20221Y224040D01*
X20202Y224060D01*
X20113Y224121D01*
X20088Y224132D01*
X20068Y224150D01*
X19975Y224207D01*
X19950Y224216D01*
X19930Y224233D01*
X19835Y224285D01*
X19808Y224293D01*
X19787Y224309D01*
X19689Y224356D01*
X19663Y224362D01*
X19640Y224377D01*
X19540Y224419D01*
X19514Y224424D01*
X19490Y224438D01*
X19388Y224474D01*
X19362Y224478D01*
X19338Y224490D01*
X19234Y224521D01*
X19207Y224524D01*
X19183Y224535D01*
X19077Y224560D01*
X19050Y224562D01*
X19025Y224571D01*
X18919Y224591D01*
X18891Y224591D01*
X18866Y224600D01*
X18758Y224614D01*
X18732Y224612D01*
X18706Y224619D01*
X18598Y224628D01*
X18571Y224625D01*
X18544Y224631D01*
X18436Y224633D01*
X18423Y224631D01*
X18409Y224634D01*
D02*
G37*
G36*
X7976Y231523D02*
X4433D01*
X4420Y231521D01*
X4406Y231523D01*
X4303Y231520D01*
X4277Y231515D01*
X4250Y231518D01*
X4148Y231510D01*
X4121Y231502D01*
X4094Y231504D01*
X3992Y231490D01*
X3966Y231482D01*
X3939Y231482D01*
X3838Y231463D01*
X3813Y231453D01*
X3786Y231452D01*
X3686Y231428D01*
X3661Y231417D01*
X3634Y231415D01*
X3535Y231385D01*
X3511Y231373D01*
X3484Y231369D01*
X3387Y231334D01*
X3364Y231320D01*
X3337Y231315D01*
X3242Y231276D01*
X3220Y231261D01*
X3193Y231254D01*
X3100Y231210D01*
X3079Y231193D01*
X3053Y231185D01*
X2962Y231136D01*
X2942Y231119D01*
X2916Y231110D01*
X2828Y231056D01*
X2808Y231037D01*
X2783Y231027D01*
X2698Y230968D01*
X2679Y230949D01*
X2655Y230937D01*
X2574Y230874D01*
X2556Y230854D01*
X2532Y230840D01*
X2454Y230774D01*
X2437Y230752D01*
X2414Y230738D01*
X2339Y230667D01*
X2324Y230645D01*
X2302Y230629D01*
X2231Y230555D01*
X2216Y230532D01*
X2195Y230515D01*
X2128Y230436D01*
X2115Y230413D01*
X2094Y230395D01*
X2032Y230313D01*
X2020Y230289D01*
X2000Y230270D01*
X1942Y230185D01*
X1931Y230160D01*
X1913Y230140D01*
X1859Y230052D01*
X1850Y230027D01*
X1832Y230006D01*
X1783Y229916D01*
X1775Y229890D01*
X1759Y229868D01*
X1715Y229775D01*
X1708Y229749D01*
X1693Y229726D01*
X1653Y229631D01*
X1648Y229605D01*
X1634Y229581D01*
X1600Y229484D01*
X1596Y229457D01*
X1583Y229433D01*
X1554Y229334D01*
X1551Y229308D01*
X1540Y229283D01*
X1516Y229183D01*
X1515Y229156D01*
X1505Y229131D01*
X1486Y229029D01*
X1487Y229002D01*
X1478Y228977D01*
X1464Y228874D01*
X1466Y228847D01*
X1459Y228821D01*
X1451Y228718D01*
X1454Y228692D01*
X1448Y228665D01*
X1445Y228562D01*
X1448Y228549D01*
X1445Y228535D01*
Y222236D01*
X1523Y221846D01*
X1744Y221515D01*
X2074Y221294D01*
X2465Y221217D01*
X9945D01*
X10335Y221294D01*
X10666Y221515D01*
X10887Y221846D01*
X10965Y222236D01*
Y228535D01*
X10962Y228549D01*
X10964Y228562D01*
X10961Y228665D01*
X10955Y228692D01*
X10959Y228718D01*
X10950Y228821D01*
X10943Y228847D01*
X10945Y228874D01*
X10932Y228976D01*
X10923Y229002D01*
X10923Y229029D01*
X10904Y229131D01*
X10894Y229156D01*
X10893Y229183D01*
X10869Y229283D01*
X10858Y229308D01*
X10855Y229334D01*
X10826Y229433D01*
X10813Y229457D01*
X10810Y229484D01*
X10775Y229581D01*
X10761Y229605D01*
X10756Y229631D01*
X10717Y229726D01*
X10702Y229749D01*
X10695Y229775D01*
X10651Y229868D01*
X10634Y229890D01*
X10626Y229916D01*
X10577Y230006D01*
X10560Y230027D01*
X10550Y230052D01*
X10497Y230140D01*
X10478Y230160D01*
X10468Y230185D01*
X10409Y230270D01*
X10390Y230289D01*
X10378Y230313D01*
X10315Y230395D01*
X10295Y230413D01*
X10282Y230436D01*
X10215Y230515D01*
X10193Y230532D01*
X10179Y230555D01*
X10108Y230629D01*
X10086Y230645D01*
X10070Y230667D01*
X9995Y230738D01*
X9973Y230752D01*
X9956Y230774D01*
X9877Y230840D01*
X9854Y230854D01*
X9836Y230874D01*
X9754Y230937D01*
X9730Y230949D01*
X9711Y230968D01*
X9626Y231027D01*
X9601Y231037D01*
X9581Y231056D01*
X9493Y231110D01*
X9468Y231119D01*
X9447Y231136D01*
X9357Y231185D01*
X9331Y231193D01*
X9309Y231210D01*
X9216Y231254D01*
X9190Y231261D01*
X9167Y231276D01*
X9072Y231315D01*
X9046Y231320D01*
X9022Y231334D01*
X8925Y231369D01*
X8898Y231373D01*
X8874Y231385D01*
X8775Y231415D01*
X8748Y231417D01*
X8724Y231428D01*
X8624Y231452D01*
X8597Y231453D01*
X8572Y231463D01*
X8470Y231482D01*
X8443Y231482D01*
X8417Y231490D01*
X8315Y231504D01*
X8288Y231502D01*
X8262Y231510D01*
X8159Y231518D01*
X8133Y231515D01*
X8106Y231520D01*
X8003Y231523D01*
X7990Y231521D01*
X7976Y231523D01*
D02*
G37*
G36*
X216535Y237720D02*
X215230Y237548D01*
X214014Y237045D01*
X212969Y236243D01*
X212168Y235199D01*
X211806Y234325D01*
X211265D01*
X210903Y235199D01*
X210102Y236243D01*
X209057Y237045D01*
X207841Y237548D01*
X206535Y237720D01*
X205230Y237548D01*
X204014Y237045D01*
X202969Y236243D01*
X202168Y235199D01*
X201806Y234325D01*
X201265D01*
X200903Y235199D01*
X200101Y236243D01*
X199057Y237045D01*
X197841Y237548D01*
X196535Y237720D01*
X195230Y237548D01*
X194014Y237045D01*
X192969Y236243D01*
X192168Y235199D01*
X191664Y233982D01*
X191492Y232677D01*
X191664Y231372D01*
X192168Y230156D01*
X192969Y229111D01*
X194014Y228310D01*
X195230Y227806D01*
X196535Y227634D01*
X197841Y227806D01*
X199057Y228310D01*
X200101Y229111D01*
X200903Y230156D01*
X201265Y231029D01*
X201806D01*
X202168Y230156D01*
X202969Y229111D01*
X204014Y228310D01*
X205230Y227806D01*
X206535Y227634D01*
X207841Y227806D01*
X209057Y228310D01*
X210102Y229111D01*
X210903Y230156D01*
X211265Y231029D01*
X211806D01*
X212168Y230156D01*
X212969Y229111D01*
X214014Y228310D01*
X215230Y227806D01*
X216535Y227634D01*
X217841Y227806D01*
X219057Y228310D01*
X220101Y229111D01*
X220903Y230156D01*
X221407Y231372D01*
X221579Y232677D01*
X221407Y233982D01*
X220903Y235199D01*
X220101Y236243D01*
X219057Y237045D01*
X217841Y237548D01*
X216535Y237720D01*
D02*
G37*
G36*
X160200Y243115D02*
X158895Y242943D01*
X157678Y242439D01*
X156634Y241638D01*
X155833Y240593D01*
X155329Y239377D01*
X155157Y238072D01*
X155329Y236767D01*
X155833Y235550D01*
X156634Y234506D01*
X156878Y234318D01*
X156717Y233845D01*
X152278D01*
X152104Y233979D01*
X151330Y234299D01*
X150500Y234409D01*
X149670Y234299D01*
X148896Y233979D01*
X148231Y233469D01*
X147721Y232804D01*
X147401Y232030D01*
X147292Y231200D01*
X147401Y230370D01*
X147721Y229596D01*
X148231Y228931D01*
X148896Y228421D01*
X149670Y228101D01*
X150500Y227991D01*
X151330Y228101D01*
X152104Y228421D01*
X152529Y228747D01*
X159481D01*
X160457Y228941D01*
X161284Y229494D01*
X162045Y230255D01*
X162598Y231082D01*
X162792Y232057D01*
X162749Y232271D01*
Y233725D01*
X163766Y234506D01*
X164567Y235550D01*
X165071Y236767D01*
X165243Y238072D01*
X165071Y239377D01*
X164567Y240593D01*
X163766Y241638D01*
X162722Y242439D01*
X161505Y242943D01*
X160200Y243115D01*
D02*
G37*
G36*
X187000D02*
X185695Y242943D01*
X184478Y242439D01*
X183434Y241638D01*
X182633Y240593D01*
X182129Y239377D01*
X181957Y238072D01*
X182129Y236767D01*
X182633Y235550D01*
X183434Y234506D01*
X184478Y233704D01*
X185695Y233201D01*
X187000Y233029D01*
X188305Y233201D01*
X189522Y233704D01*
X190566Y234506D01*
X191367Y235550D01*
X191871Y236767D01*
X192043Y238072D01*
X191871Y239377D01*
X191367Y240593D01*
X190566Y241638D01*
X189522Y242439D01*
X188305Y242943D01*
X187000Y243115D01*
D02*
G37*
G36*
X199592Y87907D02*
X198504Y87764D01*
X197491Y87344D01*
X196621Y86677D01*
X195954Y85807D01*
X195534Y84794D01*
X195391Y83706D01*
X195534Y82619D01*
X195954Y81605D01*
X196621Y80735D01*
X197491Y80068D01*
X197609Y80019D01*
Y79519D01*
X197491Y79470D01*
X196621Y78803D01*
X195954Y77933D01*
X195534Y76919D01*
X195391Y75832D01*
X195534Y74745D01*
X195954Y73731D01*
X196621Y72861D01*
X197491Y72194D01*
X197609Y72145D01*
Y71645D01*
X197491Y71596D01*
X196621Y70929D01*
X195954Y70059D01*
X195534Y69045D01*
X195391Y67958D01*
X195534Y66871D01*
X195954Y65857D01*
X196621Y64987D01*
X197491Y64320D01*
X197609Y64271D01*
Y63771D01*
X197491Y63722D01*
X196621Y63055D01*
X195954Y62185D01*
X195534Y61171D01*
X195391Y60084D01*
X195534Y58997D01*
X195954Y57983D01*
X196621Y57113D01*
X197491Y56446D01*
X197609Y56397D01*
Y55897D01*
X197491Y55848D01*
X196621Y55181D01*
X195954Y54311D01*
X195534Y53297D01*
X195391Y52210D01*
X195534Y51123D01*
X195954Y50109D01*
X196621Y49239D01*
X197491Y48572D01*
X197609Y48523D01*
Y48023D01*
X197491Y47974D01*
X196621Y47307D01*
X195954Y46437D01*
X195534Y45423D01*
X195391Y44336D01*
X195534Y43249D01*
X195954Y42235D01*
X196621Y41365D01*
X197491Y40698D01*
X197609Y40649D01*
Y40149D01*
X197491Y40100D01*
X196621Y39433D01*
X195954Y38563D01*
X195534Y37549D01*
X195391Y36462D01*
X195534Y35375D01*
X195954Y34361D01*
X196621Y33491D01*
X197491Y32824D01*
X197609Y32775D01*
Y32275D01*
X197491Y32226D01*
X196621Y31559D01*
X195954Y30689D01*
X195534Y29675D01*
X195391Y28588D01*
X195534Y27501D01*
X195954Y26487D01*
X196621Y25617D01*
X197491Y24950D01*
X197609Y24901D01*
Y24401D01*
X197491Y24352D01*
X196621Y23685D01*
X195954Y22815D01*
X195534Y21801D01*
X195391Y20714D01*
X195534Y19627D01*
X195954Y18613D01*
X196621Y17743D01*
X197491Y17076D01*
X198504Y16656D01*
X199592Y16513D01*
X200679Y16656D01*
X201693Y17076D01*
X202563Y17743D01*
X203230Y18613D01*
X203650Y19627D01*
X203793Y20714D01*
X203650Y21801D01*
X203230Y22815D01*
X202563Y23685D01*
X201693Y24352D01*
X201575Y24401D01*
Y24901D01*
X201693Y24950D01*
X202563Y25617D01*
X203230Y26487D01*
X203650Y27501D01*
X203793Y28588D01*
X203650Y29675D01*
X203230Y30689D01*
X202563Y31559D01*
X201693Y32226D01*
X201575Y32275D01*
Y32775D01*
X201693Y32824D01*
X202563Y33491D01*
X203230Y34361D01*
X203650Y35375D01*
X203793Y36462D01*
X203650Y37549D01*
X203230Y38563D01*
X202563Y39433D01*
X201693Y40100D01*
X201575Y40149D01*
Y40649D01*
X201693Y40698D01*
X202563Y41365D01*
X203230Y42235D01*
X203650Y43249D01*
X203793Y44336D01*
X203650Y45423D01*
X203230Y46437D01*
X202563Y47307D01*
X201693Y47974D01*
X201575Y48023D01*
Y48523D01*
X201693Y48572D01*
X202563Y49239D01*
X203230Y50109D01*
X203650Y51123D01*
X203793Y52210D01*
X203650Y53297D01*
X203230Y54311D01*
X202563Y55181D01*
X201693Y55848D01*
X201575Y55897D01*
Y56397D01*
X201693Y56446D01*
X202563Y57113D01*
X203230Y57983D01*
X203650Y58997D01*
X203793Y60084D01*
X203650Y61171D01*
X203230Y62185D01*
X202563Y63055D01*
X201693Y63722D01*
X201575Y63771D01*
Y64271D01*
X201693Y64320D01*
X202563Y64987D01*
X203230Y65857D01*
X203650Y66871D01*
X203793Y67958D01*
X203650Y69045D01*
X203230Y70059D01*
X202563Y70929D01*
X201693Y71596D01*
X201575Y71645D01*
Y72145D01*
X201693Y72194D01*
X202563Y72861D01*
X203230Y73731D01*
X203650Y74745D01*
X203793Y75832D01*
X203650Y76919D01*
X203230Y77933D01*
X202563Y78803D01*
X201693Y79470D01*
X201575Y79519D01*
Y80019D01*
X201693Y80068D01*
X202563Y80735D01*
X203230Y81605D01*
X203650Y82619D01*
X203793Y83706D01*
X203650Y84794D01*
X203230Y85807D01*
X202563Y86677D01*
X201693Y87344D01*
X200679Y87764D01*
X199592Y87907D01*
D02*
G37*
G36*
X214400Y180008D02*
X213570Y179899D01*
X212796Y179579D01*
X212131Y179069D01*
X211621Y178404D01*
X211301Y177630D01*
X211251Y177256D01*
X205255Y171260D01*
X195089D01*
X194114Y171066D01*
X193287Y170513D01*
X155398Y132624D01*
X154845Y131798D01*
X154651Y130822D01*
Y114204D01*
X154421Y113904D01*
X154101Y113130D01*
X153991Y112300D01*
X154101Y111470D01*
X154421Y110696D01*
X154931Y110031D01*
X155280Y109764D01*
X155335Y109113D01*
X154898Y108675D01*
X154345Y107848D01*
X154151Y106872D01*
Y105604D01*
X153921Y105304D01*
X153601Y104530D01*
X153491Y103700D01*
X153601Y102870D01*
X153921Y102096D01*
X154431Y101431D01*
X155096Y100921D01*
X155870Y100601D01*
X156700Y100491D01*
X157530Y100601D01*
X158304Y100921D01*
X158969Y101431D01*
X159479Y102096D01*
X159799Y102870D01*
X159908Y103700D01*
X159799Y104530D01*
X159479Y105304D01*
X159249Y105604D01*
Y105817D01*
X159695Y106263D01*
X159700Y106264D01*
X160527Y106816D01*
X162683Y108973D01*
X163236Y109800D01*
X163430Y110775D01*
Y128723D01*
X197658Y162951D01*
X210200D01*
X211175Y163145D01*
X212002Y163698D01*
X218156Y169852D01*
X218530Y169901D01*
X219304Y170221D01*
X219969Y170731D01*
X220479Y171396D01*
X220799Y172170D01*
X220909Y173000D01*
X220799Y173830D01*
X220479Y174604D01*
X219969Y175269D01*
X219304Y175779D01*
X218530Y176099D01*
X217700Y176208D01*
X217550Y176358D01*
X217609Y176800D01*
X217499Y177630D01*
X217179Y178404D01*
X216669Y179069D01*
X216004Y179579D01*
X215230Y179899D01*
X214400Y180008D01*
D02*
G37*
G36*
X199600Y227009D02*
X198770Y226899D01*
X197996Y226579D01*
X197331Y226069D01*
X196821Y225404D01*
X196501Y224630D01*
X196391Y223800D01*
X196501Y222970D01*
X196821Y222196D01*
X197331Y221531D01*
X197432Y221454D01*
Y214231D01*
X195221Y212020D01*
X195030Y212099D01*
X194200Y212209D01*
X193370Y212099D01*
X192596Y211779D01*
X191931Y211269D01*
X191421Y210604D01*
X191101Y209830D01*
X190991Y209000D01*
X191101Y208170D01*
X191421Y207396D01*
X191931Y206731D01*
X192596Y206221D01*
X193370Y205901D01*
X194200Y205791D01*
X195030Y205901D01*
X195804Y206221D01*
X196208Y206531D01*
X196781Y206645D01*
X197608Y207198D01*
X198823Y208412D01*
X199175Y208342D01*
X199361Y208244D01*
X199831Y207631D01*
X200496Y207121D01*
X201270Y206801D01*
X202100Y206691D01*
X202930Y206801D01*
X203704Y207121D01*
X204369Y207631D01*
X204879Y208296D01*
X205199Y209070D01*
X205309Y209900D01*
X205199Y210730D01*
X204879Y211504D01*
X204649Y211804D01*
Y216516D01*
X204855Y216825D01*
X204886Y216981D01*
X206302Y218398D01*
X206855Y219225D01*
X206994Y219925D01*
X207279Y220296D01*
X207599Y221070D01*
X207709Y221900D01*
X207599Y222730D01*
X207279Y223504D01*
X206769Y224169D01*
X206104Y224679D01*
X205330Y224999D01*
X204500Y225109D01*
X203670Y224999D01*
X203145Y224782D01*
X202882Y224692D01*
X202533Y225031D01*
X202379Y225404D01*
X201869Y226069D01*
X201204Y226579D01*
X200430Y226899D01*
X199600Y227009D01*
D02*
G37*
G36*
X241406Y216619D02*
X240575Y216509D01*
X239801Y216189D01*
X239137Y215679D01*
X238627Y215014D01*
X238306Y214241D01*
X238197Y213410D01*
X238306Y212580D01*
X238627Y211806D01*
X239137Y211141D01*
X239801Y210631D01*
X239980Y210557D01*
X240603Y210080D01*
X241332Y209777D01*
X242115Y209674D01*
X253572D01*
X253749Y209601D01*
X254579Y209491D01*
X255410Y209601D01*
X256183Y209921D01*
X256848Y210431D01*
X257358Y211096D01*
X257678Y211870D01*
X257788Y212700D01*
X257678Y213530D01*
X257358Y214304D01*
X256848Y214969D01*
X256183Y215479D01*
X255410Y215799D01*
X254579Y215909D01*
X253749Y215799D01*
X253572Y215726D01*
X243613D01*
X243010Y216189D01*
X242236Y216509D01*
X241406Y216619D01*
D02*
G37*
%LPD*%
G36*
X9945Y195465D02*
X9942Y195361D01*
X9934Y195259D01*
X9921Y195157D01*
X9902Y195055D01*
X9878Y194955D01*
X9849Y194856D01*
X9814Y194759D01*
X9775Y194664D01*
X9730Y194571D01*
X9681Y194480D01*
X9627Y194392D01*
X9569Y194307D01*
X9506Y194226D01*
X9439Y194147D01*
X9368Y194073D01*
X9294Y194002D01*
X9215Y193935D01*
X9133Y193872D01*
X9048Y193814D01*
X8961Y193760D01*
X8870Y193711D01*
X8777Y193666D01*
X8682Y193627D01*
X8585Y193592D01*
X8486Y193563D01*
X8386Y193539D01*
X8284Y193520D01*
X8182Y193507D01*
X8079Y193499D01*
X7976Y193496D01*
X4433D01*
X4330Y193499D01*
X4227Y193507D01*
X4125Y193520D01*
X4024Y193539D01*
X3924Y193563D01*
X3825Y193592D01*
X3728Y193627D01*
X3632Y193666D01*
X3539Y193711D01*
X3449Y193760D01*
X3361Y193814D01*
X3276Y193872D01*
X3194Y193935D01*
X3116Y194002D01*
X3041Y194073D01*
X2970Y194147D01*
X2903Y194226D01*
X2840Y194307D01*
X2782Y194392D01*
X2728Y194480D01*
X2679Y194571D01*
X2635Y194664D01*
X2595Y194759D01*
X2561Y194856D01*
X2532Y194955D01*
X2508Y195055D01*
X2489Y195157D01*
X2475Y195259D01*
X2467Y195361D01*
X2465Y195465D01*
Y201764D01*
X9945D01*
Y195465D01*
D02*
G37*
%LPC*%
G36*
X7976Y199795D02*
X4433D01*
X4371Y199794D01*
X4310Y199789D01*
X4248Y199781D01*
X4188Y199769D01*
X4127Y199755D01*
X4068Y199738D01*
X4010Y199717D01*
X3953Y199693D01*
X3897Y199667D01*
X3842Y199637D01*
X3790Y199605D01*
X3739Y199570D01*
X3690Y199532D01*
X3643Y199492D01*
X3598Y199449D01*
X3555Y199405D01*
X3515Y199357D01*
X3478Y199308D01*
X3443Y199257D01*
X3410Y199205D01*
X3381Y199150D01*
X3354Y199095D01*
X3330Y199037D01*
X3310Y198979D01*
X3292Y198920D01*
X3278Y198860D01*
X3266Y198799D01*
X3258Y198738D01*
X3254Y198676D01*
X3252Y198614D01*
Y197728D01*
X3254Y197667D01*
X3258Y197605D01*
X3266Y197544D01*
X3278Y197483D01*
X3292Y197423D01*
X3310Y197363D01*
X3330Y197305D01*
X3354Y197248D01*
X3381Y197192D01*
X3410Y197138D01*
X3443Y197085D01*
X3478Y197034D01*
X3515Y196985D01*
X3555Y196938D01*
X3598Y196893D01*
X3643Y196851D01*
X3690Y196810D01*
X3739Y196773D01*
X3790Y196738D01*
X3842Y196705D01*
X3897Y196676D01*
X3953Y196649D01*
X4010Y196626D01*
X4068Y196605D01*
X4127Y196588D01*
X4188Y196573D01*
X4248Y196562D01*
X4310Y196554D01*
X4371Y196549D01*
X4433Y196547D01*
X8075D01*
X8132Y196549D01*
X8188Y196553D01*
X8244Y196561D01*
X8300Y196571D01*
X8355Y196584D01*
X8409Y196600D01*
X8463Y196619D01*
X8515Y196641D01*
X8566Y196665D01*
X8616Y196692D01*
X8664Y196722D01*
X8711Y196754D01*
X8756Y196789D01*
X8799Y196825D01*
X8840Y196864D01*
X8879Y196906D01*
X8916Y196949D01*
X8951Y196994D01*
X8983Y197040D01*
X9012Y197089D01*
X9040Y197138D01*
X9064Y197190D01*
X9086Y197242D01*
X9104Y197295D01*
X9121Y197350D01*
X9134Y197405D01*
X9144Y197460D01*
X9152Y197517D01*
X9156Y197573D01*
X9157Y197630D01*
Y198614D01*
X9156Y198676D01*
X9151Y198738D01*
X9143Y198799D01*
X9132Y198860D01*
X9117Y198920D01*
X9100Y198979D01*
X9079Y199037D01*
X9055Y199095D01*
X9029Y199150D01*
X8999Y199205D01*
X8967Y199257D01*
X8932Y199308D01*
X8894Y199357D01*
X8854Y199405D01*
X8811Y199449D01*
X8767Y199492D01*
X8720Y199532D01*
X8671Y199570D01*
X8620Y199605D01*
X8567Y199637D01*
X8513Y199667D01*
X8457Y199693D01*
X8400Y199717D01*
X8341Y199738D01*
X8282Y199755D01*
X8222Y199769D01*
X8161Y199781D01*
X8100Y199789D01*
X8038Y199794D01*
X7976Y199795D01*
D02*
G37*
%LPD*%
G36*
X7985Y198775D02*
X7993Y198775D01*
X8002Y198773D01*
X8010Y198772D01*
X8018Y198770D01*
X8026Y198767D01*
X8034Y198765D01*
X8042Y198761D01*
X8050Y198758D01*
X8057Y198754D01*
X8064Y198749D01*
X8071Y198745D01*
X8078Y198740D01*
X8084Y198734D01*
X8090Y198728D01*
X8096Y198722D01*
X8102Y198716D01*
X8107Y198709D01*
X8111Y198702D01*
X8116Y198695D01*
X8120Y198687D01*
X8124Y198680D01*
X8127Y198672D01*
X8130Y198664D01*
X8132Y198656D01*
X8134Y198648D01*
X8136Y198639D01*
X8137Y198631D01*
X8137Y198623D01*
X8138Y198601D01*
Y197643D01*
X8138Y197627D01*
X8137Y197623D01*
X8137Y197620D01*
X8136Y197617D01*
X8135Y197614D01*
X8134Y197610D01*
X8133Y197608D01*
X8132Y197604D01*
X8131Y197601D01*
X8129Y197599D01*
X8127Y197596D01*
X8126Y197593D01*
X8124Y197590D01*
X8122Y197588D01*
X8119Y197586D01*
X8117Y197583D01*
X8114Y197581D01*
X8112Y197579D01*
X8109Y197577D01*
X8106Y197575D01*
X8103Y197574D01*
X8100Y197573D01*
X8098Y197571D01*
X8094Y197570D01*
X8091Y197569D01*
X8088Y197569D01*
X8085Y197568D01*
X8081Y197567D01*
X8078Y197567D01*
X8061Y197567D01*
X4446D01*
X4425Y197567D01*
X4416Y197568D01*
X4408Y197569D01*
X4400Y197571D01*
X4391Y197573D01*
X4383Y197575D01*
X4375Y197578D01*
X4367Y197581D01*
X4360Y197585D01*
X4353Y197589D01*
X4345Y197593D01*
X4338Y197598D01*
X4332Y197603D01*
X4325Y197609D01*
X4319Y197615D01*
X4313Y197621D01*
X4308Y197627D01*
X4303Y197633D01*
X4298Y197641D01*
X4293Y197648D01*
X4290Y197655D01*
X4286Y197663D01*
X4283Y197671D01*
X4280Y197679D01*
X4277Y197687D01*
X4275Y197695D01*
X4274Y197703D01*
X4273Y197712D01*
X4272Y197720D01*
X4272Y197742D01*
Y198601D01*
X4272Y198623D01*
X4273Y198631D01*
X4274Y198639D01*
X4275Y198648D01*
X4277Y198656D01*
X4280Y198664D01*
X4283Y198672D01*
X4286Y198680D01*
X4290Y198687D01*
X4293Y198695D01*
X4298Y198702D01*
X4303Y198709D01*
X4308Y198716D01*
X4313Y198722D01*
X4319Y198728D01*
X4325Y198734D01*
X4332Y198740D01*
X4338Y198745D01*
X4345Y198749D01*
X4352Y198754D01*
X4360Y198758D01*
X4368Y198761D01*
X4375Y198765D01*
X4383Y198767D01*
X4391Y198770D01*
X4400Y198772D01*
X4408Y198773D01*
X4416Y198775D01*
X4425Y198775D01*
X4446Y198776D01*
X7963D01*
X7985Y198775D01*
D02*
G37*
G36*
X18518Y204517D02*
X18625Y204508D01*
X18733Y204494D01*
X18839Y204474D01*
X18944Y204449D01*
X19048Y204418D01*
X19150Y204382D01*
X19250Y204341D01*
X19348Y204294D01*
X19443Y204243D01*
X19535Y204186D01*
X19624Y204125D01*
X19710Y204059D01*
X19793Y203989D01*
X19871Y203914D01*
X19945Y203836D01*
X20016Y203753D01*
X20082Y203668D01*
X20143Y203578D01*
X20199Y203486D01*
X20251Y203391D01*
X20298Y203293D01*
X20339Y203193D01*
X20375Y203092D01*
X20406Y202988D01*
X20431Y202883D01*
X20451Y202776D01*
X20465Y202669D01*
X20473Y202561D01*
X20476Y202453D01*
X20473Y202345D01*
X20465Y202237D01*
X20451Y202129D01*
X20431Y202023D01*
X20406Y201918D01*
X20375Y201814D01*
X20339Y201712D01*
X20298Y201612D01*
X20251Y201514D01*
X20199Y201419D01*
X20143Y201327D01*
X20082Y201238D01*
X20016Y201152D01*
X19945Y201070D01*
X19871Y200991D01*
X19793Y200917D01*
X19710Y200847D01*
X19624Y200781D01*
X19535Y200719D01*
X19443Y200663D01*
X19348Y200611D01*
X19250Y200565D01*
X19150Y200523D01*
X19048Y200487D01*
X18944Y200456D01*
X18839Y200431D01*
X18733Y200411D01*
X18625Y200397D01*
X18518Y200389D01*
X18409Y200386D01*
X17622D01*
X17514Y200389D01*
X17406Y200397D01*
X17299Y200411D01*
X17192Y200431D01*
X17087Y200456D01*
X16983Y200487D01*
X16881Y200523D01*
X16781Y200565D01*
X16684Y200611D01*
X16589Y200663D01*
X16496Y200719D01*
X16407Y200781D01*
X16321Y200847D01*
X16239Y200917D01*
X16161Y200991D01*
X16086Y201070D01*
X16016Y201152D01*
X15950Y201238D01*
X15889Y201327D01*
X15832Y201419D01*
X15780Y201514D01*
X15734Y201612D01*
X15692Y201712D01*
X15656Y201814D01*
X15626Y201918D01*
X15600Y202023D01*
X15581Y202129D01*
X15566Y202237D01*
X15558Y202345D01*
X15555Y202453D01*
X15558Y202561D01*
X15566Y202669D01*
X15581Y202776D01*
X15600Y202883D01*
X15626Y202988D01*
X15656Y203092D01*
X15692Y203193D01*
X15734Y203293D01*
X15780Y203391D01*
X15832Y203486D01*
X15889Y203578D01*
X15950Y203668D01*
X16016Y203753D01*
X16086Y203836D01*
X16161Y203914D01*
X16239Y203989D01*
X16321Y204059D01*
X16407Y204125D01*
X16496Y204186D01*
X16589Y204243D01*
X16684Y204294D01*
X16781Y204341D01*
X16881Y204382D01*
X16983Y204418D01*
X17087Y204449D01*
X17192Y204474D01*
X17299Y204494D01*
X17406Y204508D01*
X17514Y204517D01*
X17622Y204520D01*
X18409D01*
X18518Y204517D01*
D02*
G37*
%LPC*%
G36*
X18409Y203732D02*
X17622D01*
X17555Y203731D01*
X17488Y203725D01*
X17422Y203716D01*
X17356Y203704D01*
X17291Y203689D01*
X17227Y203670D01*
X17164Y203647D01*
X17102Y203622D01*
X17041Y203593D01*
X16982Y203561D01*
X16925Y203526D01*
X16870Y203488D01*
X16817Y203447D01*
X16766Y203404D01*
X16717Y203358D01*
X16671Y203309D01*
X16628Y203258D01*
X16587Y203205D01*
X16549Y203150D01*
X16514Y203093D01*
X16482Y203034D01*
X16453Y202973D01*
X16428Y202911D01*
X16405Y202848D01*
X16386Y202784D01*
X16371Y202719D01*
X16358Y202653D01*
X16350Y202587D01*
X16344Y202520D01*
X16342Y202453D01*
X16344Y202386D01*
X16350Y202319D01*
X16358Y202253D01*
X16371Y202187D01*
X16386Y202122D01*
X16405Y202057D01*
X16428Y201994D01*
X16453Y201932D01*
X16482Y201872D01*
X16514Y201813D01*
X16549Y201756D01*
X16587Y201701D01*
X16628Y201647D01*
X16671Y201597D01*
X16717Y201548D01*
X16766Y201502D01*
X16817Y201458D01*
X16870Y201418D01*
X16925Y201380D01*
X16982Y201345D01*
X17041Y201313D01*
X17102Y201284D01*
X17164Y201258D01*
X17227Y201236D01*
X17291Y201217D01*
X17356Y201201D01*
X17422Y201189D01*
X17488Y201180D01*
X17555Y201175D01*
X17622Y201173D01*
X18409D01*
X18476Y201175D01*
X18543Y201180D01*
X18610Y201189D01*
X18676Y201201D01*
X18741Y201217D01*
X18805Y201236D01*
X18868Y201258D01*
X18930Y201284D01*
X18990Y201313D01*
X19049Y201345D01*
X19106Y201380D01*
X19162Y201418D01*
X19215Y201458D01*
X19266Y201502D01*
X19314Y201548D01*
X19360Y201597D01*
X19404Y201647D01*
X19445Y201701D01*
X19483Y201756D01*
X19518Y201813D01*
X19549Y201872D01*
X19578Y201932D01*
X19604Y201994D01*
X19626Y202057D01*
X19645Y202122D01*
X19661Y202187D01*
X19673Y202253D01*
X19682Y202319D01*
X19687Y202386D01*
X19689Y202453D01*
X19687Y202520D01*
X19682Y202587D01*
X19673Y202653D01*
X19661Y202719D01*
X19645Y202784D01*
X19626Y202848D01*
X19604Y202911D01*
X19578Y202973D01*
X19549Y203034D01*
X19518Y203093D01*
X19483Y203150D01*
X19445Y203205D01*
X19404Y203258D01*
X19360Y203309D01*
X19314Y203358D01*
X19266Y203404D01*
X19215Y203447D01*
X19162Y203488D01*
X19106Y203526D01*
X19049Y203561D01*
X18990Y203593D01*
X18930Y203622D01*
X18868Y203647D01*
X18805Y203670D01*
X18741Y203689D01*
X18676Y203704D01*
X18610Y203716D01*
X18543Y203725D01*
X18476Y203731D01*
X18409Y203732D01*
D02*
G37*
%LPD*%
G36*
X18518Y223611D02*
X18625Y223603D01*
X18733Y223589D01*
X18839Y223569D01*
X18944Y223544D01*
X19048Y223513D01*
X19150Y223477D01*
X19250Y223435D01*
X19348Y223389D01*
X19443Y223337D01*
X19535Y223281D01*
X19624Y223219D01*
X19710Y223153D01*
X19793Y223083D01*
X19871Y223009D01*
X19945Y222930D01*
X20016Y222848D01*
X20082Y222762D01*
X20143Y222673D01*
X20199Y222581D01*
X20251Y222486D01*
X20298Y222388D01*
X20339Y222288D01*
X20375Y222186D01*
X20406Y222082D01*
X20431Y221977D01*
X20451Y221871D01*
X20465Y221763D01*
X20473Y221655D01*
X20476Y221547D01*
X20473Y221439D01*
X20465Y221331D01*
X20451Y221224D01*
X20431Y221117D01*
X20406Y221012D01*
X20375Y220908D01*
X20339Y220807D01*
X20298Y220707D01*
X20251Y220609D01*
X20199Y220514D01*
X20143Y220422D01*
X20082Y220332D01*
X20016Y220247D01*
X19945Y220164D01*
X19871Y220086D01*
X19793Y220011D01*
X19710Y219941D01*
X19624Y219875D01*
X19535Y219814D01*
X19443Y219757D01*
X19348Y219706D01*
X19250Y219659D01*
X19150Y219618D01*
X19048Y219582D01*
X18944Y219551D01*
X18839Y219526D01*
X18733Y219506D01*
X18625Y219492D01*
X18518Y219483D01*
X18409Y219480D01*
X17622D01*
X17514Y219483D01*
X17406Y219492D01*
X17299Y219506D01*
X17192Y219526D01*
X17087Y219551D01*
X16983Y219582D01*
X16881Y219618D01*
X16781Y219659D01*
X16684Y219706D01*
X16589Y219757D01*
X16496Y219814D01*
X16407Y219875D01*
X16321Y219941D01*
X16239Y220011D01*
X16161Y220086D01*
X16086Y220164D01*
X16016Y220247D01*
X15950Y220332D01*
X15889Y220422D01*
X15832Y220514D01*
X15780Y220609D01*
X15734Y220707D01*
X15692Y220807D01*
X15656Y220908D01*
X15626Y221012D01*
X15600Y221117D01*
X15581Y221224D01*
X15566Y221331D01*
X15558Y221439D01*
X15555Y221547D01*
X15558Y221655D01*
X15566Y221763D01*
X15581Y221871D01*
X15600Y221977D01*
X15626Y222082D01*
X15656Y222186D01*
X15692Y222288D01*
X15734Y222388D01*
X15780Y222486D01*
X15832Y222581D01*
X15889Y222673D01*
X15950Y222762D01*
X16016Y222848D01*
X16086Y222930D01*
X16161Y223009D01*
X16239Y223083D01*
X16321Y223153D01*
X16407Y223219D01*
X16496Y223281D01*
X16589Y223337D01*
X16684Y223389D01*
X16781Y223435D01*
X16881Y223477D01*
X16983Y223513D01*
X17087Y223544D01*
X17192Y223569D01*
X17299Y223589D01*
X17406Y223603D01*
X17514Y223611D01*
X17622Y223614D01*
X18409D01*
X18518Y223611D01*
D02*
G37*
%LPC*%
G36*
X18409Y222827D02*
X17622D01*
X17555Y222825D01*
X17488Y222820D01*
X17422Y222811D01*
X17356Y222799D01*
X17291Y222783D01*
X17227Y222764D01*
X17164Y222742D01*
X17102Y222716D01*
X17041Y222687D01*
X16982Y222655D01*
X16925Y222620D01*
X16870Y222582D01*
X16817Y222542D01*
X16766Y222498D01*
X16717Y222452D01*
X16671Y222403D01*
X16628Y222353D01*
X16587Y222299D01*
X16549Y222244D01*
X16514Y222187D01*
X16482Y222128D01*
X16453Y222068D01*
X16428Y222006D01*
X16405Y221943D01*
X16386Y221878D01*
X16371Y221813D01*
X16358Y221747D01*
X16350Y221681D01*
X16344Y221614D01*
X16342Y221547D01*
X16344Y221480D01*
X16350Y221413D01*
X16358Y221347D01*
X16371Y221281D01*
X16386Y221216D01*
X16405Y221152D01*
X16428Y221089D01*
X16453Y221027D01*
X16482Y220966D01*
X16514Y220907D01*
X16549Y220850D01*
X16587Y220795D01*
X16628Y220742D01*
X16671Y220691D01*
X16717Y220642D01*
X16766Y220596D01*
X16817Y220553D01*
X16870Y220512D01*
X16925Y220474D01*
X16982Y220439D01*
X17041Y220407D01*
X17102Y220378D01*
X17164Y220353D01*
X17227Y220330D01*
X17291Y220311D01*
X17356Y220296D01*
X17422Y220284D01*
X17488Y220275D01*
X17555Y220269D01*
X17622Y220268D01*
X18409D01*
X18476Y220269D01*
X18543Y220275D01*
X18610Y220284D01*
X18676Y220296D01*
X18741Y220311D01*
X18805Y220330D01*
X18868Y220353D01*
X18930Y220378D01*
X18990Y220407D01*
X19049Y220439D01*
X19106Y220474D01*
X19162Y220512D01*
X19215Y220553D01*
X19266Y220596D01*
X19314Y220642D01*
X19360Y220691D01*
X19404Y220742D01*
X19445Y220795D01*
X19483Y220850D01*
X19518Y220907D01*
X19549Y220966D01*
X19578Y221027D01*
X19604Y221089D01*
X19626Y221152D01*
X19645Y221216D01*
X19661Y221281D01*
X19673Y221347D01*
X19682Y221413D01*
X19687Y221480D01*
X19689Y221547D01*
X19687Y221614D01*
X19682Y221681D01*
X19673Y221747D01*
X19661Y221813D01*
X19645Y221878D01*
X19626Y221943D01*
X19604Y222006D01*
X19578Y222068D01*
X19549Y222128D01*
X19518Y222187D01*
X19483Y222244D01*
X19445Y222299D01*
X19404Y222353D01*
X19360Y222403D01*
X19314Y222452D01*
X19266Y222498D01*
X19215Y222542D01*
X19162Y222582D01*
X19106Y222620D01*
X19049Y222655D01*
X18990Y222687D01*
X18930Y222716D01*
X18868Y222742D01*
X18805Y222764D01*
X18741Y222783D01*
X18676Y222799D01*
X18610Y222811D01*
X18543Y222820D01*
X18476Y222825D01*
X18409Y222827D01*
D02*
G37*
%LPD*%
G36*
X8079Y230501D02*
X8182Y230493D01*
X8284Y230480D01*
X8386Y230461D01*
X8486Y230437D01*
X8585Y230408D01*
X8682Y230373D01*
X8777Y230334D01*
X8870Y230289D01*
X8961Y230240D01*
X9048Y230186D01*
X9133Y230128D01*
X9215Y230065D01*
X9294Y229998D01*
X9368Y229927D01*
X9439Y229853D01*
X9506Y229774D01*
X9569Y229693D01*
X9627Y229608D01*
X9681Y229520D01*
X9730Y229429D01*
X9775Y229336D01*
X9814Y229241D01*
X9849Y229144D01*
X9878Y229045D01*
X9902Y228945D01*
X9921Y228843D01*
X9934Y228741D01*
X9942Y228639D01*
X9945Y228535D01*
Y222236D01*
X2465D01*
Y228535D01*
X2467Y228639D01*
X2475Y228741D01*
X2489Y228843D01*
X2508Y228945D01*
X2532Y229045D01*
X2561Y229144D01*
X2595Y229241D01*
X2635Y229336D01*
X2679Y229429D01*
X2728Y229520D01*
X2782Y229608D01*
X2840Y229693D01*
X2903Y229774D01*
X2970Y229853D01*
X3041Y229927D01*
X3116Y229998D01*
X3194Y230065D01*
X3276Y230128D01*
X3361Y230186D01*
X3449Y230240D01*
X3539Y230289D01*
X3632Y230334D01*
X3728Y230373D01*
X3825Y230408D01*
X3924Y230437D01*
X4024Y230461D01*
X4125Y230480D01*
X4227Y230493D01*
X4330Y230501D01*
X4433Y230504D01*
X7976D01*
X8079Y230501D01*
D02*
G37*
%LPC*%
G36*
X7976Y227453D02*
X4335D01*
X4278Y227451D01*
X4222Y227447D01*
X4165Y227439D01*
X4109Y227429D01*
X4054Y227416D01*
X4000Y227400D01*
X3947Y227381D01*
X3894Y227359D01*
X3843Y227335D01*
X3793Y227308D01*
X3745Y227278D01*
X3698Y227246D01*
X3653Y227211D01*
X3610Y227175D01*
X3569Y227136D01*
X3530Y227095D01*
X3493Y227051D01*
X3459Y227007D01*
X3427Y226960D01*
X3397Y226911D01*
X3370Y226862D01*
X3346Y226810D01*
X3324Y226758D01*
X3305Y226705D01*
X3289Y226650D01*
X3276Y226595D01*
X3265Y226539D01*
X3258Y226483D01*
X3254Y226427D01*
X3252Y226370D01*
Y225386D01*
X3254Y225324D01*
X3258Y225262D01*
X3266Y225201D01*
X3278Y225140D01*
X3292Y225080D01*
X3310Y225021D01*
X3330Y224963D01*
X3354Y224905D01*
X3381Y224850D01*
X3410Y224795D01*
X3443Y224743D01*
X3478Y224692D01*
X3515Y224642D01*
X3555Y224595D01*
X3598Y224551D01*
X3643Y224508D01*
X3690Y224468D01*
X3739Y224430D01*
X3790Y224395D01*
X3842Y224363D01*
X3897Y224334D01*
X3953Y224307D01*
X4010Y224283D01*
X4068Y224262D01*
X4127Y224245D01*
X4188Y224231D01*
X4248Y224219D01*
X4310Y224211D01*
X4371Y224206D01*
X4433Y224205D01*
X7976D01*
X8038Y224206D01*
X8100Y224211D01*
X8161Y224219D01*
X8222Y224231D01*
X8282Y224245D01*
X8341Y224262D01*
X8400Y224283D01*
X8457Y224307D01*
X8513Y224334D01*
X8567Y224363D01*
X8620Y224395D01*
X8671Y224430D01*
X8720Y224468D01*
X8767Y224508D01*
X8811Y224551D01*
X8854Y224595D01*
X8894Y224642D01*
X8932Y224692D01*
X8967Y224743D01*
X8999Y224795D01*
X9029Y224850D01*
X9055Y224905D01*
X9079Y224963D01*
X9100Y225021D01*
X9117Y225080D01*
X9132Y225140D01*
X9143Y225201D01*
X9151Y225262D01*
X9156Y225324D01*
X9157Y225386D01*
Y226272D01*
X9156Y226333D01*
X9151Y226395D01*
X9143Y226456D01*
X9132Y226517D01*
X9117Y226577D01*
X9100Y226637D01*
X9079Y226695D01*
X9055Y226752D01*
X9029Y226808D01*
X8999Y226862D01*
X8967Y226915D01*
X8932Y226966D01*
X8894Y227015D01*
X8854Y227062D01*
X8811Y227107D01*
X8767Y227149D01*
X8720Y227189D01*
X8671Y227227D01*
X8620Y227262D01*
X8567Y227294D01*
X8513Y227324D01*
X8457Y227351D01*
X8400Y227374D01*
X8341Y227395D01*
X8282Y227413D01*
X8222Y227427D01*
X8161Y227438D01*
X8100Y227446D01*
X8038Y227451D01*
X7976Y227453D01*
D02*
G37*
%LPD*%
G36*
X7985Y226433D02*
X7993Y226432D01*
X8002Y226431D01*
X8010Y226429D01*
X8018Y226427D01*
X8026Y226425D01*
X8034Y226422D01*
X8042Y226419D01*
X8050Y226415D01*
X8057Y226411D01*
X8064Y226407D01*
X8071Y226402D01*
X8078Y226397D01*
X8084Y226391D01*
X8090Y226385D01*
X8096Y226379D01*
X8102Y226373D01*
X8107Y226367D01*
X8111Y226360D01*
X8116Y226352D01*
X8120Y226345D01*
X8124Y226337D01*
X8127Y226329D01*
X8130Y226321D01*
X8132Y226313D01*
X8134Y226305D01*
X8136Y226297D01*
X8137Y226289D01*
X8137Y226280D01*
X8138Y226258D01*
Y225399D01*
X8137Y225377D01*
X8137Y225369D01*
X8136Y225361D01*
X8134Y225352D01*
X8132Y225344D01*
X8130Y225336D01*
X8127Y225328D01*
X8124Y225320D01*
X8120Y225313D01*
X8116Y225305D01*
X8111Y225298D01*
X8107Y225291D01*
X8102Y225284D01*
X8096Y225278D01*
X8090Y225272D01*
X8084Y225266D01*
X8078Y225260D01*
X8071Y225255D01*
X8064Y225251D01*
X8057Y225246D01*
X8050Y225242D01*
X8042Y225239D01*
X8034Y225235D01*
X8026Y225233D01*
X8018Y225230D01*
X8010Y225228D01*
X8001Y225227D01*
X7993Y225225D01*
X7985Y225225D01*
X7963Y225224D01*
X4446D01*
X4425Y225225D01*
X4416Y225225D01*
X4408Y225227D01*
X4400Y225228D01*
X4391Y225230D01*
X4383Y225233D01*
X4375Y225235D01*
X4367Y225239D01*
X4360Y225242D01*
X4353Y225246D01*
X4345Y225251D01*
X4338Y225255D01*
X4332Y225260D01*
X4325Y225266D01*
X4319Y225272D01*
X4313Y225278D01*
X4308Y225284D01*
X4303Y225291D01*
X4298Y225298D01*
X4293Y225306D01*
X4290Y225312D01*
X4286Y225320D01*
X4283Y225328D01*
X4280Y225336D01*
X4277Y225344D01*
X4275Y225352D01*
X4274Y225361D01*
X4273Y225369D01*
X4272Y225377D01*
X4272Y225399D01*
Y226357D01*
X4272Y226373D01*
X4272Y226377D01*
X4273Y226380D01*
X4273Y226383D01*
X4274Y226386D01*
X4275Y226389D01*
X4276Y226393D01*
X4277Y226396D01*
X4279Y226399D01*
X4280Y226401D01*
X4282Y226404D01*
X4284Y226407D01*
X4286Y226410D01*
X4288Y226412D01*
X4290Y226414D01*
X4293Y226417D01*
X4295Y226419D01*
X4298Y226421D01*
X4301Y226423D01*
X4304Y226425D01*
X4306Y226426D01*
X4309Y226427D01*
X4312Y226429D01*
X4315Y226430D01*
X4318Y226431D01*
X4321Y226431D01*
X4325Y226432D01*
X4328Y226432D01*
X4332Y226433D01*
X4348Y226433D01*
X7963D01*
X7985Y226433D01*
D02*
G37*
D37*
X243800Y136100D02*
Y148900D01*
Y136100D02*
X244000Y135900D01*
X242115Y212700D02*
X254579D01*
X241406Y213410D02*
X242115Y212700D01*
X249987Y155087D02*
Y155187D01*
X243800Y148900D02*
X249987Y155087D01*
X225200Y130100D02*
X236300D01*
D38*
X233071Y172343D02*
X262600D01*
X150032Y231296D02*
X159481D01*
X160200Y232100D02*
X160242Y232057D01*
X160200Y232100D02*
Y238072D01*
X251300Y137800D02*
Y142300D01*
X230709Y169980D02*
X233071Y172343D01*
X264469Y181004D02*
Y184646D01*
X257607Y174143D02*
X264469Y181004D01*
X228150Y174213D02*
X229528D01*
X225984Y176378D02*
X228150Y174213D01*
X229598Y174143D02*
X257607D01*
X229528Y174213D02*
X229598Y174143D01*
X159481Y231296D02*
X160242Y232057D01*
X156700Y103700D02*
Y106872D01*
X150032Y231296D02*
X150128Y231200D01*
X150500D01*
X199600Y223800D02*
X199981Y223419D01*
X194200Y209000D02*
X195806D01*
X202300Y218000D02*
X202500Y217800D01*
X202300Y218000D02*
X204500Y220200D01*
Y221900D01*
X195806Y209000D02*
X199981Y213175D01*
Y223419D01*
X202100Y217400D02*
X202500Y217800D01*
X202100Y209900D02*
Y217400D01*
X275726Y134781D02*
X277756Y136811D01*
X251300Y137800D02*
X254319Y134781D01*
X275726D01*
X156700Y106872D02*
X158446Y108619D01*
X158725D01*
X160881Y110775D01*
Y129779D01*
X157200Y130822D02*
X195089Y168711D01*
X157200Y112300D02*
Y130822D01*
X196602Y165500D02*
X210200D01*
X160881Y129779D02*
X196602Y165500D01*
X210200D02*
X217700Y173000D01*
X195089Y168711D02*
X206311D01*
X214400Y176800D01*
X0Y0D02*
X301181D01*
Y244100D01*
X0D02*
X301181D01*
X0Y0D02*
Y244100D01*
D41*
X18016Y221547D02*
D03*
Y202453D02*
D03*
D42*
X6205Y225829D02*
D03*
Y198171D02*
D03*
D43*
X296000Y22500D02*
D03*
Y32500D02*
D03*
Y42500D02*
D03*
Y52500D02*
D03*
Y62500D02*
D03*
Y72500D02*
D03*
X112631Y207832D02*
D03*
Y197831D02*
D03*
X17000Y239389D02*
D03*
X27000D02*
D03*
X120825Y198225D02*
D03*
X66600Y235200D02*
D03*
X7000Y239389D02*
D03*
X38068Y239000D02*
D03*
X104630Y213000D02*
D03*
X187000Y238072D02*
D03*
X236000Y238000D02*
D03*
X160200Y238072D02*
D03*
X226535Y232677D02*
D03*
X216535D02*
D03*
X206535D02*
D03*
X196535D02*
D03*
D44*
X267789Y162800D02*
D03*
X242400Y154659D02*
D03*
X238500Y163500D02*
D03*
X142594Y103800D02*
D03*
X142696Y112000D02*
D03*
X224400Y146700D02*
D03*
X231800Y146600D02*
D03*
X88800Y208300D02*
D03*
X296686Y113500D02*
D03*
X291500Y59000D02*
D03*
X295500Y18000D02*
D03*
X291500Y40000D02*
D03*
X67000Y213000D02*
D03*
X59500D02*
D03*
X244000Y135900D02*
D03*
X97300Y215700D02*
D03*
X3900Y232800D02*
D03*
X21800Y207400D02*
D03*
X11800Y215800D02*
D03*
X11900Y207700D02*
D03*
X19100Y198800D02*
D03*
X25100Y204400D02*
D03*
X12300Y196100D02*
D03*
X26800Y197700D02*
D03*
X155500Y210200D02*
D03*
X156332Y217024D02*
D03*
X281900Y157300D02*
D03*
X281800Y146989D02*
D03*
X282000Y152136D02*
D03*
X187402Y183465D02*
D03*
X183465Y175591D02*
D03*
X187402Y167717D02*
D03*
X183465Y144095D02*
D03*
X187402Y136221D02*
D03*
X183465Y128347D02*
D03*
X187402Y120473D02*
D03*
X183465Y112599D02*
D03*
X187402Y104725D02*
D03*
X183465Y96851D02*
D03*
X187402Y88977D02*
D03*
X183465Y81103D02*
D03*
X187402Y73228D02*
D03*
X183465Y65354D02*
D03*
X187402Y57480D02*
D03*
X183465Y49606D02*
D03*
X187402Y41732D02*
D03*
X183465Y33858D02*
D03*
X187402Y25984D02*
D03*
X183465Y18110D02*
D03*
X187402Y10236D02*
D03*
X183465Y2362D02*
D03*
X179528Y183465D02*
D03*
X175591Y175591D02*
D03*
X179528Y167717D02*
D03*
X175591Y159843D02*
D03*
X179528Y136221D02*
D03*
X175591Y128347D02*
D03*
X179528Y120473D02*
D03*
X175591Y112599D02*
D03*
X179528Y104725D02*
D03*
X175591Y96851D02*
D03*
X179528Y88977D02*
D03*
X175591Y81103D02*
D03*
X179528Y73228D02*
D03*
X175591Y65354D02*
D03*
X179528Y57480D02*
D03*
X175591Y49606D02*
D03*
X179528Y41732D02*
D03*
X175591Y33858D02*
D03*
X179528Y25984D02*
D03*
X175591Y18110D02*
D03*
X179528Y10236D02*
D03*
X175591Y2362D02*
D03*
X171654Y183465D02*
D03*
X167717Y175591D02*
D03*
X171654Y167717D02*
D03*
X167717Y159843D02*
D03*
X171654Y151969D02*
D03*
X167717Y128347D02*
D03*
X171654Y120473D02*
D03*
X167717Y112599D02*
D03*
X171654Y104725D02*
D03*
X167717Y96851D02*
D03*
X171654Y88977D02*
D03*
X167717Y81103D02*
D03*
X171654Y73228D02*
D03*
X167717Y65354D02*
D03*
X171654Y57480D02*
D03*
X167717Y49606D02*
D03*
X171654Y41732D02*
D03*
X167717Y33858D02*
D03*
X171654Y25984D02*
D03*
X167717Y18110D02*
D03*
X171654Y10236D02*
D03*
X167717Y2362D02*
D03*
X163780Y183465D02*
D03*
X159843Y175591D02*
D03*
X163780Y167717D02*
D03*
X159843Y159843D02*
D03*
X163780Y151969D02*
D03*
X159843Y144095D02*
D03*
Y96851D02*
D03*
X163780Y88977D02*
D03*
X159843Y81103D02*
D03*
X163780Y73228D02*
D03*
X159843Y65354D02*
D03*
X163780Y57480D02*
D03*
X159843Y49606D02*
D03*
X163780Y41732D02*
D03*
X159843Y33858D02*
D03*
X163780Y25984D02*
D03*
X159843Y18110D02*
D03*
X163780Y10236D02*
D03*
X159843Y2362D02*
D03*
X155906Y183465D02*
D03*
X151969Y175591D02*
D03*
X155906Y167717D02*
D03*
X151969Y159843D02*
D03*
X155906Y151969D02*
D03*
X151969Y144095D02*
D03*
X155906Y136221D02*
D03*
X151969Y128347D02*
D03*
Y96851D02*
D03*
X155906Y88977D02*
D03*
X151969Y81103D02*
D03*
X155906Y73228D02*
D03*
X151969Y65354D02*
D03*
X155906Y57480D02*
D03*
X151969Y49606D02*
D03*
X155906Y41732D02*
D03*
X151969Y33858D02*
D03*
X155906Y25984D02*
D03*
X151969Y18110D02*
D03*
X155906Y10236D02*
D03*
X151969Y2362D02*
D03*
X148032Y183465D02*
D03*
X144095Y175591D02*
D03*
X148032Y167717D02*
D03*
X144095Y159843D02*
D03*
X148032Y151969D02*
D03*
X144095Y144095D02*
D03*
X148032Y136221D02*
D03*
X144095Y128347D02*
D03*
X148032Y120473D02*
D03*
X144095Y96851D02*
D03*
X148032Y88977D02*
D03*
X144095Y81103D02*
D03*
X148032Y73228D02*
D03*
X144095Y65354D02*
D03*
X148032Y57480D02*
D03*
X144095Y49606D02*
D03*
X148032Y41732D02*
D03*
X144095Y33858D02*
D03*
X148032Y25984D02*
D03*
X144095Y18110D02*
D03*
X148032Y10236D02*
D03*
X144095Y2362D02*
D03*
X140158Y183465D02*
D03*
X136221Y175591D02*
D03*
X140158Y167717D02*
D03*
X136221Y159843D02*
D03*
X140158Y151969D02*
D03*
X136221Y144095D02*
D03*
X140158Y136221D02*
D03*
X136221Y128347D02*
D03*
X140158Y120473D02*
D03*
X136221Y96851D02*
D03*
X140158Y88977D02*
D03*
X136221Y81103D02*
D03*
X140158Y73228D02*
D03*
X136221Y65354D02*
D03*
X140158Y57480D02*
D03*
X136221Y49606D02*
D03*
X140158Y41732D02*
D03*
X136221Y33858D02*
D03*
X140158Y25984D02*
D03*
X136221Y18110D02*
D03*
X140158Y10236D02*
D03*
X136221Y2362D02*
D03*
X132284Y183465D02*
D03*
X128347Y175591D02*
D03*
X132284Y167717D02*
D03*
X128347Y159843D02*
D03*
X132284Y151969D02*
D03*
X128347Y144095D02*
D03*
X132284Y136221D02*
D03*
X128347Y128347D02*
D03*
X132284Y120473D02*
D03*
Y88977D02*
D03*
X128347Y81103D02*
D03*
X132284Y73228D02*
D03*
X128347Y65354D02*
D03*
X132284Y57480D02*
D03*
X128347Y49606D02*
D03*
X132284Y41732D02*
D03*
X128347Y33858D02*
D03*
X132284Y25984D02*
D03*
X128347Y18110D02*
D03*
X132284Y10236D02*
D03*
X128347Y2362D02*
D03*
X120473Y175591D02*
D03*
X124410Y167717D02*
D03*
X120473Y159843D02*
D03*
X124410Y151969D02*
D03*
X120473Y144095D02*
D03*
X124410Y136221D02*
D03*
X120473Y128347D02*
D03*
Y81103D02*
D03*
X124410Y73228D02*
D03*
X120473Y65354D02*
D03*
X124410Y57480D02*
D03*
X120473Y49606D02*
D03*
X124410Y41732D02*
D03*
X120473Y33858D02*
D03*
X124410Y25984D02*
D03*
X120473Y18110D02*
D03*
X124410Y10236D02*
D03*
X120473Y2362D02*
D03*
X116535Y167717D02*
D03*
X112599Y159843D02*
D03*
X116535Y151969D02*
D03*
X112599Y144095D02*
D03*
X116535Y136221D02*
D03*
Y120473D02*
D03*
X112599Y112599D02*
D03*
X116535Y104725D02*
D03*
X112599Y96851D02*
D03*
X116535Y88977D02*
D03*
X112599Y65354D02*
D03*
X116535Y57480D02*
D03*
X112599Y49606D02*
D03*
X116535Y41732D02*
D03*
X112599Y33858D02*
D03*
X116535Y25984D02*
D03*
X112599Y18110D02*
D03*
X116535Y10236D02*
D03*
X112599Y2362D02*
D03*
X108661Y183465D02*
D03*
X104725Y175591D02*
D03*
X108661Y120473D02*
D03*
X104725Y112599D02*
D03*
X108661Y104725D02*
D03*
X104725Y96851D02*
D03*
X108661Y88977D02*
D03*
X104725Y65354D02*
D03*
X108661Y57480D02*
D03*
X104725Y49606D02*
D03*
X108661Y41732D02*
D03*
X104725Y33858D02*
D03*
X108661Y25984D02*
D03*
X104725Y18110D02*
D03*
X108661Y10236D02*
D03*
X104725Y2362D02*
D03*
X100787Y183465D02*
D03*
X96851Y175591D02*
D03*
Y159843D02*
D03*
X100787Y120473D02*
D03*
X96851Y112599D02*
D03*
X100787Y104725D02*
D03*
X96851Y96851D02*
D03*
X100787Y88977D02*
D03*
X96851Y65354D02*
D03*
X100787Y57480D02*
D03*
X96851Y49606D02*
D03*
X100787Y41732D02*
D03*
X96851Y33858D02*
D03*
X100787Y25984D02*
D03*
X96851Y18110D02*
D03*
X100787Y10236D02*
D03*
X96851Y2362D02*
D03*
X92914Y183465D02*
D03*
X88977Y175591D02*
D03*
X92914Y167717D02*
D03*
X88977Y159843D02*
D03*
X92914Y120473D02*
D03*
X88977Y112599D02*
D03*
X92914Y104725D02*
D03*
X88977Y96851D02*
D03*
X92914Y88977D02*
D03*
X88977Y49606D02*
D03*
X92914Y41732D02*
D03*
X88977Y33858D02*
D03*
X92914Y25984D02*
D03*
X88977Y18110D02*
D03*
X92914Y10236D02*
D03*
X88977Y2362D02*
D03*
X85040Y183465D02*
D03*
X81103Y175591D02*
D03*
X85040Y167717D02*
D03*
X81103Y159843D02*
D03*
X85040Y136221D02*
D03*
Y120473D02*
D03*
X81103Y112599D02*
D03*
X85040Y104725D02*
D03*
X81103Y96851D02*
D03*
X85040Y88977D02*
D03*
X81103Y65354D02*
D03*
X85040Y57480D02*
D03*
X81103Y49606D02*
D03*
X85040Y41732D02*
D03*
X81103Y33858D02*
D03*
X85040Y25984D02*
D03*
X81103Y18110D02*
D03*
X85040Y10236D02*
D03*
X81103Y2362D02*
D03*
X77165Y183465D02*
D03*
X73228Y175591D02*
D03*
X77165Y167717D02*
D03*
X73228Y159843D02*
D03*
X77165Y136221D02*
D03*
X73228Y128347D02*
D03*
Y81103D02*
D03*
X77165Y73228D02*
D03*
X73228Y65354D02*
D03*
X77165Y57480D02*
D03*
X73228Y49606D02*
D03*
X77165Y41732D02*
D03*
X73228Y33858D02*
D03*
X77165Y25984D02*
D03*
X73228Y18110D02*
D03*
X77165Y10236D02*
D03*
X73228Y2362D02*
D03*
X69291Y183465D02*
D03*
X65354Y175591D02*
D03*
X69291Y167717D02*
D03*
X65354Y159843D02*
D03*
X69291Y136221D02*
D03*
X65354Y128347D02*
D03*
Y96851D02*
D03*
Y81103D02*
D03*
X69291Y73228D02*
D03*
X65354Y65354D02*
D03*
X69291Y57480D02*
D03*
X65354Y49606D02*
D03*
X69291Y41732D02*
D03*
X65354Y33858D02*
D03*
X69291Y25984D02*
D03*
X65354Y18110D02*
D03*
X69291Y10236D02*
D03*
X65354Y2362D02*
D03*
X61417Y183465D02*
D03*
X57480Y175591D02*
D03*
X61417Y167717D02*
D03*
X57480Y159843D02*
D03*
X61417Y136221D02*
D03*
Y120473D02*
D03*
X57480Y96851D02*
D03*
X61417Y88977D02*
D03*
X57480Y81103D02*
D03*
X61417Y73228D02*
D03*
X57480Y65354D02*
D03*
X61417Y57480D02*
D03*
X57480Y49606D02*
D03*
X61417Y41732D02*
D03*
X57480Y33858D02*
D03*
X61417Y25984D02*
D03*
X57480Y18110D02*
D03*
X61417Y10236D02*
D03*
X57480Y2362D02*
D03*
X53543Y183465D02*
D03*
X49606Y175591D02*
D03*
X53543Y167717D02*
D03*
X49606Y159843D02*
D03*
X53543Y151969D02*
D03*
X49606Y144095D02*
D03*
Y128347D02*
D03*
Y112599D02*
D03*
Y96851D02*
D03*
X53543Y88977D02*
D03*
X49606Y81103D02*
D03*
X53543Y73228D02*
D03*
X49606Y65354D02*
D03*
X53543Y57480D02*
D03*
X49606Y49606D02*
D03*
X53543Y41732D02*
D03*
X49606Y33858D02*
D03*
X53543Y25984D02*
D03*
X49606Y18110D02*
D03*
X53543Y10236D02*
D03*
X49606Y2362D02*
D03*
X45669Y183465D02*
D03*
X41732Y175591D02*
D03*
X45669Y167717D02*
D03*
X41732Y159843D02*
D03*
X45669Y151969D02*
D03*
X41732Y144095D02*
D03*
X45669Y136221D02*
D03*
X41732Y128347D02*
D03*
X45669Y120473D02*
D03*
X41732Y112599D02*
D03*
X45669Y104725D02*
D03*
X41732Y96851D02*
D03*
X45669Y88977D02*
D03*
X41732Y81103D02*
D03*
X45669Y73228D02*
D03*
X41732Y65354D02*
D03*
X45669Y57480D02*
D03*
X41732Y49606D02*
D03*
X45669Y41732D02*
D03*
X41732Y33858D02*
D03*
X45669Y25984D02*
D03*
X41732Y18110D02*
D03*
X45669Y10236D02*
D03*
X41732Y2362D02*
D03*
X37795Y183465D02*
D03*
X33858Y175591D02*
D03*
X37795Y167717D02*
D03*
X33858Y159843D02*
D03*
X37795Y151969D02*
D03*
X33858Y144095D02*
D03*
X37795Y136221D02*
D03*
X33858Y128347D02*
D03*
X37795Y120473D02*
D03*
X33858Y112599D02*
D03*
X37795Y104725D02*
D03*
X33858Y96851D02*
D03*
X37795Y88977D02*
D03*
X33858Y81103D02*
D03*
X37795Y73228D02*
D03*
X33858Y65354D02*
D03*
X37795Y57480D02*
D03*
X33858Y49606D02*
D03*
X37795Y41732D02*
D03*
X33858Y33858D02*
D03*
X37795Y25984D02*
D03*
X33858Y18110D02*
D03*
X37795Y10236D02*
D03*
X33858Y2362D02*
D03*
X29921Y183465D02*
D03*
X25984Y175591D02*
D03*
X29921Y167717D02*
D03*
X25984Y159843D02*
D03*
X29921Y151969D02*
D03*
X25984Y144095D02*
D03*
X29921Y136221D02*
D03*
X25984Y128347D02*
D03*
X29921Y120473D02*
D03*
X25984Y112599D02*
D03*
X29921Y104725D02*
D03*
X25984Y96851D02*
D03*
X29921Y88977D02*
D03*
X25984Y81103D02*
D03*
X29921Y73228D02*
D03*
X25984Y65354D02*
D03*
X29921Y57480D02*
D03*
X25984Y49606D02*
D03*
X29921Y41732D02*
D03*
X25984Y33858D02*
D03*
X29921Y25984D02*
D03*
X25984Y18110D02*
D03*
X29921Y10236D02*
D03*
X25984Y2362D02*
D03*
X22047Y183465D02*
D03*
X18110Y175591D02*
D03*
X22047Y167717D02*
D03*
X18110Y159843D02*
D03*
X22047Y151969D02*
D03*
X18110Y144095D02*
D03*
X22047Y136221D02*
D03*
X18110Y128347D02*
D03*
X22047Y120473D02*
D03*
X18110Y112599D02*
D03*
X22047Y104725D02*
D03*
X18110Y96851D02*
D03*
X22047Y88977D02*
D03*
X18110Y81103D02*
D03*
X22047Y73228D02*
D03*
X18110Y65354D02*
D03*
X22047Y57480D02*
D03*
X18110Y49606D02*
D03*
X22047Y41732D02*
D03*
X18110Y33858D02*
D03*
X22047Y25984D02*
D03*
X18110Y18110D02*
D03*
X22047Y10236D02*
D03*
X18110Y2362D02*
D03*
X14173Y183465D02*
D03*
X10236Y175591D02*
D03*
X14173Y167717D02*
D03*
X10236Y159843D02*
D03*
X14173Y151969D02*
D03*
X10236Y144095D02*
D03*
X14173Y136221D02*
D03*
X10236Y128347D02*
D03*
X14173Y120473D02*
D03*
X10236Y112599D02*
D03*
X14173Y104725D02*
D03*
X10236Y96851D02*
D03*
X14173Y88977D02*
D03*
X10236Y81103D02*
D03*
X14173Y73228D02*
D03*
X10236Y65354D02*
D03*
X14173Y57480D02*
D03*
X10236Y49606D02*
D03*
X14173Y41732D02*
D03*
X10236Y33858D02*
D03*
X14173Y25984D02*
D03*
X10236Y18110D02*
D03*
X14173Y10236D02*
D03*
X10236Y2362D02*
D03*
X6299Y183465D02*
D03*
X2362Y175591D02*
D03*
X6299Y167717D02*
D03*
X2362Y159843D02*
D03*
X6299Y151969D02*
D03*
X2362Y144095D02*
D03*
X6299Y136221D02*
D03*
X2362Y128347D02*
D03*
X6299Y120473D02*
D03*
X2362Y112599D02*
D03*
X6299Y104725D02*
D03*
X2362Y96851D02*
D03*
X6299Y88977D02*
D03*
X2362Y81103D02*
D03*
X6299Y73228D02*
D03*
X2362Y65354D02*
D03*
X6299Y57480D02*
D03*
X2362Y49606D02*
D03*
X6299Y41732D02*
D03*
X2362Y33858D02*
D03*
X6299Y25984D02*
D03*
X2362Y18110D02*
D03*
X6299Y10236D02*
D03*
X65500Y204900D02*
D03*
X251300Y142300D02*
D03*
X157200Y112300D02*
D03*
X69300Y198900D02*
D03*
X73261Y195561D02*
D03*
X81207Y195500D02*
D03*
X253010Y233490D02*
D03*
X198300Y198400D02*
D03*
X221000Y227600D02*
D03*
X226900Y227500D02*
D03*
X239600Y227200D02*
D03*
X245000Y227300D02*
D03*
X250900Y227200D02*
D03*
X260900Y223000D02*
D03*
X278000Y226200D02*
D03*
X276600Y185900D02*
D03*
X272400Y186000D02*
D03*
X276500Y191800D02*
D03*
X270600Y191900D02*
D03*
X260388Y204882D02*
D03*
X198400Y144200D02*
D03*
Y152200D02*
D03*
X198000Y131100D02*
D03*
X203600Y131000D02*
D03*
X210000Y130200D02*
D03*
X198000Y136100D02*
D03*
X106800Y204400D02*
D03*
X277756Y136811D02*
D03*
X280200Y181500D02*
D03*
X221555Y166732D02*
D03*
X73457Y230607D02*
D03*
X230709Y169980D02*
D03*
X264469Y184646D02*
D03*
X225984Y176378D02*
D03*
X241406Y213410D02*
D03*
X264800Y225900D02*
D03*
X140600Y210300D02*
D03*
X233200Y227300D02*
D03*
X204500Y186100D02*
D03*
X163780Y104725D02*
D03*
X156700Y103700D02*
D03*
X92000Y221000D02*
D03*
X71800Y213400D02*
D03*
X55100Y234900D02*
D03*
X16700Y226500D02*
D03*
X28462Y223500D02*
D03*
X46700Y203800D02*
D03*
X150500Y231200D02*
D03*
X211500Y226000D02*
D03*
X215100Y226400D02*
D03*
X199600Y223800D02*
D03*
X194200Y209000D02*
D03*
X198000Y203300D02*
D03*
X211100Y212200D02*
D03*
X204500Y221900D02*
D03*
X196300Y214700D02*
D03*
X202100Y209900D02*
D03*
X201700Y193800D02*
D03*
X254579Y212700D02*
D03*
X262600Y172900D02*
D03*
X279800Y174400D02*
D03*
X249987Y155187D02*
D03*
X256600Y138700D02*
D03*
X259500Y113300D02*
D03*
X274500D02*
D03*
X236000Y111300D02*
D03*
X225200Y130100D02*
D03*
X236300D02*
D03*
X264600Y131100D02*
D03*
X265100Y138500D02*
D03*
X268083Y140800D02*
D03*
X217700Y173000D02*
D03*
X214400Y176800D02*
D03*
X199600Y173300D02*
D03*
X201600Y160200D02*
D03*
X255500Y155800D02*
D03*
X134700Y216700D02*
D03*
D45*
X199592Y83706D02*
D03*
Y75832D02*
D03*
Y67958D02*
D03*
Y60084D02*
D03*
Y52210D02*
D03*
Y44336D02*
D03*
Y36462D02*
D03*
Y28588D02*
D03*
Y20714D02*
D03*
Y12840D02*
D03*
X286206D02*
D03*
Y20714D02*
D03*
Y28588D02*
D03*
Y36462D02*
D03*
Y44336D02*
D03*
Y52210D02*
D03*
Y60084D02*
D03*
Y67958D02*
D03*
Y75832D02*
D03*
Y83706D02*
D03*
D46*
X243701Y191800D02*
D03*
X250701Y184800D02*
D03*
Y191800D02*
D03*
Y198800D02*
D03*
X243701D02*
D03*
Y184800D02*
D03*
X236701D02*
D03*
Y198800D02*
D03*
Y191800D02*
D03*
M02*
