M48
;Layer_Color=9474304
;FILE_FORMAT=2:5
INCH,LZ
;TYPE=PLATED
T1F00S00C0.01181
T2F00S00C0.01200
T3F00S00C0.02559
T4F00S00C0.02795
T5F00S00C0.03000
T6F00S00C0.03248
%
T01
X02244Y01467
X02318Y01466
X02424Y0154659
X02385Y01635
X0236701Y01848
Y01918
Y01988
X0243701
X0250701
Y01918
Y01848
X0243701
Y01918
X0267789Y01628
X0142696Y0112
X0142594Y01038
T02
X0010236Y0002362
X001811
X0025984
X0033858
X0041732
X0049606
X0045669Y0010236
X0037795
X0029921
X0022047
X0014173
X0006299
X0002362Y001811
X0010236
X001811
X0025984
X0033858
X0041732
X0049606
X0045669Y0025984
X0037795
X0029921
X0022047
X0014173
X0006299
X0002362Y0033858
X0010236
X001811
X0025984
X0033858
X0041732
X0049606
X0045669Y0041732
X0037795
X0029921
X0022047
X0014173
X0006299
X0002362Y0049606
X0010236
X001811
X0025984
X0033858
X0041732
X0049606
X0053543Y0041732
Y0025984
Y0010236
X0061417
X0069291
X0077165
X008504
X0092914
X0100787
X0108661
X0116535
X012441
X0132284
X0140158
X0148032
X0155906
X016378
X0171654
X0179528
X0187402
X0183465Y0002362
X0175591
X0167717
X0159843
X0151969
X0144095
X0136221
X0128347
X0120473
X0112599
X0104725
X0096851
X0088977
X0081103
X0073228
X0065354
X005748
Y001811
X0065354
X0073228
X0081103
X0088977
X0096851
X0104725
X0112599
X0120473
X0128347
X0136221
X0144095
X0151969
X0159843
X0167717
X0175591
X0183465
X0179528Y0025984
X0171654
X016378
X0155906
X0148032
X0140158
X0132284
X012441
X0116535
X0108661
X0100787
X0092914
X008504
X0077165
X0069291
X0061417
X005748Y0033858
X0065354
X0073228
X0081103
X0088977
X0096851
X0104725
X0112599
X0120473
X0128347
X0136221
X0144095
X0151969
X0159843
X0167717
X0175591
X0183465
X0179528Y0041732
X0171654
X016378
X0155906
X0148032
X0140158
X0132284
X012441
X0116535
X0108661
X0100787
X0092914
X008504
X0077165
X0069291
X0061417
X005748Y0049606
X0065354
X0073228
X0081103
X0088977
X0096851
X0104725
X0112599
X0120473
X0128347
X0136221
X0144095
X0151969
X0159843
X0167717
X0175591
X0183465
X0187402Y0041732
Y0025984
X02955Y0018
X02915Y004
Y0059
X0296686Y01135
X02745Y01133
X02595
X02646Y01311
X02651Y01385
X0268083Y01408
X02566Y01387
X02513Y01423
X0244Y01359
X02363Y01301
X02252
X0236Y01113
X0249987Y0155187
X02555Y01558
X02626Y01729
X0264469Y0184646
X02724Y0186
X02766Y01859
X02765Y01918
X02706Y01919
X02802Y01815
X02798Y01744
X02819Y01573
X0282Y0152136
X02818Y0146989
X0277756Y0136811
X0230709Y016998
X0225984Y0176378
X02177Y0173
X02144Y01768
X0221555Y0166732
X0260388Y0204882
X02111Y02122
X02021Y02099
X01942Y0209
X0198Y02033
X01983Y01984
X02017Y01938
X02045Y01861
X01996Y01733
X02016Y01602
X01984Y01522
Y01442
X0198Y01361
Y01311
X02036Y0131
X021Y01302
X0183465Y0128347
X0175591
X0167717
X0171654Y0120473
X0179528
X0187402
X0183465Y0112599
X0175591
X0167717
X01572Y01123
X01567Y01037
X016378Y0104725
X0171654
X0179528
X0187402
X0183465Y0096851
X0175591
X0167717
X0159843
X0151969
X0144095
X0136221
X0132284Y0088977
X0140158
X0148032
X0155906
X016378
X0171654
X0179528
X0187402
X0183465Y0081103
X0175591
X0167717
X0159843
X0151969
X0144095
X0136221
X0128347
X0120473
X0116535Y0088977
X0108661
X0100787
X0092914
X008504
X0081103Y0096851
X0088977
X0096851
X0104725
X0112599
X0108661Y0104725
X0100787
X0092914
X008504
X0081103Y0112599
X0088977
X0096851
X0104725
X0112599
X0108661Y0120473
X0100787
X0092914
X008504
Y0136221
X0077165
X0069291
X0061417
X0065354Y0128347
X0073228
X0061417Y0120473
X005748Y0096851
X0065354
X0061417Y0088977
X005748Y0081103
X0065354
X0073228
X0069291Y0073228
X0061417
X005748Y0065354
X0065354
X0073228
X0081103
X0077165Y005748
X0069291
X0061417
X008504
X0100787
X0108661
X0116535
X012441
X0132284
X0140158
X0148032
X0155906
X016378
X0171654
X0179528
X0187402
X0183465Y0065354
X0175591
X0167717
X0159843
X0151969
X0144095
X0136221
X0128347
X0120473
X0112599
X0104725
X0096851
X0077165Y0073228
X012441
X0132284
X0140158
X0148032
X0155906
X016378
X0171654
X0179528
X0187402
Y0136221
X0179528
X0183465Y0144095
X0171654Y0151969
X016378
X0155906
X0148032
X0140158
X0132284
X012441
X0116535
X0112599Y0144095
X0120473
X0128347
X0136221
X0144095
X0151969
X0159843
X0155906Y0136221
X0148032
X0140158
X0132284
X012441
X0116535
X0120473Y0128347
X0128347
X0136221
X0144095
X0151969
X0148032Y0120473
X0140158
X0132284
X0116535
Y0104725
X0112599Y0159843
X0120473
X0128347
X0136221
X0144095
X0151969
X0159843
X0167717
X0175591
X0171654Y0167717
X016378
X0155906
X0148032
X0140158
X0132284
X012441
X0116535
X0120473Y0175591
X0128347
X0136221
X0144095
X0151969
X0159843
X0167717
X0175591
X0183465
X0179528Y0167717
X0187402
Y0183465
X0179528
X0171654
X016378
X0155906
X0148032
X0140158
X0132284
X0108661
X0100787
X0092914
X008504
X0077165
X0069291
X0061417
X005748Y0175591
X0065354
X0073228
X0081103
X0088977
X0096851
X0104725
X0092914Y0167717
X008504
X0077165
X0069291
X0061417
X005748Y0159843
X0065354
X0073228
X0081103
X0088977
X0096851
X0081207Y01955
X0073261Y0195561
X00693Y01989
X00655Y02049
X00888Y02083
X01068Y02044
X01406Y02103
X01555Y02102
X00467Y02038
X0045669Y0183465
X0037795
X0029921
X0022047
X0014173
X0006299
X0002362Y0175591
X0010236
X001811
X0025984
X0033858
X0041732
X0049606
X0045669Y0167717
X0037795
X0029921
X0022047
X0014173
X0006299
X0002362Y0159843
X0010236
X001811
X0025984
X0033858
X0041732
X0049606
X0045669Y0151969
X0037795
X0029921
X0022047
X0014173
X0006299
X0002362Y0144095
X0010236
X001811
X0025984
X0033858
X0041732
X0049606
X0045669Y0136221
X0037795
X0029921
X0022047
X0014173
X0006299
X0002362Y0128347
X0010236
X001811
X0025984
X0033858
X0041732
X0049606
X0045669Y0120473
X0037795
X0029921
X0022047
X0014173
X0006299
X0002362Y0112599
X0010236
X001811
X0025984
X0033858
X0041732
X0049606
X0045669Y0104725
X0037795
X0029921
X0022047
X0014173
X0006299
X0002362Y0096851
X0010236
X001811
X0025984
X0033858
X0041732
X0049606
X0045669Y0088977
X0037795
X0029921
X0022047
X0014173
X0006299
X0002362Y0081103
X0010236
X001811
X0025984
X0033858
X0041732
X0049606
X0045669Y0073228
X0037795
X0029921
X0022047
X0014173
X0006299
X0002362Y0065354
X0010236
X001811
X0025984
X0033858
X0041732
X0049606
X0045669Y005748
X0037795
X0029921
X0022047
X0014173
X0006299
X0053543
Y0073228
Y0088977
Y0151969
Y0167717
Y0183465
X00268Y01977
X00251Y02044
X00218Y02074
X00119Y02077
X00123Y01961
X00191Y01988
X00118Y02158
X00167Y02265
X0028462Y02235
X00039Y02328
X00551Y02349
X0073457Y0230607
X00718Y02134
X0067Y0213
X00595
X0092Y0221
X00973Y02157
X01347Y02167
X0156332Y0217024
X01505Y02312
X01996Y02238
X02045Y02219
X02115Y0226
X01963Y02147
X02151Y02264
X0221Y02276
X02269Y02275
X02332Y02273
X02396Y02272
X0245Y02273
X02509Y02272
X025301Y023349
X02609Y0223
X02648Y02259
X0278Y02262
X0254579Y02127
X0241406Y021341
T03
X0018016Y0202453
Y0221547
T04
X0199592Y001284
Y0020714
Y0028588
Y0036462
Y0044336
Y005221
X0286206
Y0044336
Y0036462
Y0028588
Y0020714
Y001284
Y0060084
Y0067958
Y0075832
Y0083706
X0199592
Y0075832
Y0067958
Y0060084
T05
X0296Y00225
Y00325
Y00425
Y00525
Y00625
Y00725
X0120825Y0198225
X0112631Y0197831
Y0207832
X0038068Y0239
X0027Y0239389
X0017
X0007
X00666Y02352
X010463Y0213
X01602Y0238072
X0187
X0196535Y0232677
X0206535
X0216535
X0226535
X0236Y0238
T06
X0006205Y0198171
Y0225829
M30
