G04 Layer_Color=8388736*
%FSLAX25Y25*%
%MOIN*%
G70*
G01*
G75*
%ADD40C,0.01000*%
%ADD57R,0.02959X0.04534*%
%ADD58R,0.06400X0.04400*%
%ADD59R,0.04400X0.06400*%
%ADD60R,0.03747X0.03747*%
%ADD61R,0.01975X0.03550*%
%ADD62R,0.13786X0.07684*%
%ADD63R,0.03747X0.03747*%
%ADD64R,0.05321X0.04731*%
%ADD65R,0.11030X0.04337*%
%ADD66R,0.07487X0.06305*%
%ADD67R,0.06305X0.07487*%
%ADD68R,0.01800X0.06200*%
%ADD69R,0.02525X0.01344*%
G04:AMPARAMS|DCode=70|XSize=13.44mil|YSize=25.25mil|CornerRadius=4.26mil|HoleSize=0mil|Usage=FLASHONLY|Rotation=90.000|XOffset=0mil|YOffset=0mil|HoleType=Round|Shape=RoundedRectangle|*
%AMROUNDEDRECTD70*
21,1,0.01344,0.01673,0,0,90.0*
21,1,0.00492,0.02525,0,0,90.0*
1,1,0.00852,0.00837,0.00246*
1,1,0.00852,0.00837,-0.00246*
1,1,0.00852,-0.00837,-0.00246*
1,1,0.00852,-0.00837,0.00246*
%
%ADD70ROUNDEDRECTD70*%
G04:AMPARAMS|DCode=71|XSize=13.61mil|YSize=33.3mil|CornerRadius=3.85mil|HoleSize=0mil|Usage=FLASHONLY|Rotation=90.000|XOffset=0mil|YOffset=0mil|HoleType=Round|Shape=RoundedRectangle|*
%AMROUNDEDRECTD71*
21,1,0.01361,0.02559,0,0,90.0*
21,1,0.00591,0.03330,0,0,90.0*
1,1,0.00771,0.01279,0.00295*
1,1,0.00771,0.01279,-0.00295*
1,1,0.00771,-0.01279,-0.00295*
1,1,0.00771,-0.01279,0.00295*
%
%ADD71ROUNDEDRECTD71*%
G04:AMPARAMS|DCode=72|XSize=13.61mil|YSize=33.3mil|CornerRadius=3.85mil|HoleSize=0mil|Usage=FLASHONLY|Rotation=0.000|XOffset=0mil|YOffset=0mil|HoleType=Round|Shape=RoundedRectangle|*
%AMROUNDEDRECTD72*
21,1,0.01361,0.02559,0,0,0.0*
21,1,0.00591,0.03330,0,0,0.0*
1,1,0.00771,0.00295,-0.01279*
1,1,0.00771,-0.00295,-0.01279*
1,1,0.00771,-0.00295,0.01279*
1,1,0.00771,0.00295,0.01279*
%
%ADD72ROUNDEDRECTD72*%
%ADD73R,0.01361X0.03330*%
%ADD74R,0.01400X0.03400*%
G04:AMPARAMS|DCode=75|XSize=14mil|YSize=34mil|CornerRadius=4mil|HoleSize=0mil|Usage=FLASHONLY|Rotation=0.000|XOffset=0mil|YOffset=0mil|HoleType=Round|Shape=RoundedRectangle|*
%AMROUNDEDRECTD75*
21,1,0.01400,0.02600,0,0,0.0*
21,1,0.00600,0.03400,0,0,0.0*
1,1,0.00800,0.00300,-0.01300*
1,1,0.00800,-0.00300,-0.01300*
1,1,0.00800,-0.00300,0.01300*
1,1,0.00800,0.00300,0.01300*
%
%ADD75ROUNDEDRECTD75*%
G04:AMPARAMS|DCode=76|XSize=14mil|YSize=34mil|CornerRadius=4mil|HoleSize=0mil|Usage=FLASHONLY|Rotation=270.000|XOffset=0mil|YOffset=0mil|HoleType=Round|Shape=RoundedRectangle|*
%AMROUNDEDRECTD76*
21,1,0.01400,0.02600,0,0,270.0*
21,1,0.00600,0.03400,0,0,270.0*
1,1,0.00800,-0.01300,-0.00300*
1,1,0.00800,-0.01300,0.00300*
1,1,0.00800,0.01300,0.00300*
1,1,0.00800,0.01300,-0.00300*
%
%ADD76ROUNDEDRECTD76*%
%ADD77R,0.03543X0.03543*%
%ADD78R,0.05695X0.01955*%
%ADD79R,0.07880X0.07487*%
%ADD80R,0.11030X0.06699*%
%ADD81R,0.08400X0.06400*%
%ADD82R,0.17400X0.17400*%
%ADD83R,0.03546X0.01184*%
G04:AMPARAMS|DCode=84|XSize=12.24mil|YSize=35.86mil|CornerRadius=3.56mil|HoleSize=0mil|Usage=FLASHONLY|Rotation=90.000|XOffset=0mil|YOffset=0mil|HoleType=Round|Shape=RoundedRectangle|*
%AMROUNDEDRECTD84*
21,1,0.01224,0.02874,0,0,90.0*
21,1,0.00512,0.03586,0,0,90.0*
1,1,0.00712,0.01437,0.00256*
1,1,0.00712,0.01437,-0.00256*
1,1,0.00712,-0.01437,-0.00256*
1,1,0.00712,-0.01437,0.00256*
%
%ADD84ROUNDEDRECTD84*%
G04:AMPARAMS|DCode=85|XSize=12.24mil|YSize=35.86mil|CornerRadius=3.56mil|HoleSize=0mil|Usage=FLASHONLY|Rotation=0.000|XOffset=0mil|YOffset=0mil|HoleType=Round|Shape=RoundedRectangle|*
%AMROUNDEDRECTD85*
21,1,0.01224,0.02874,0,0,0.0*
21,1,0.00512,0.03586,0,0,0.0*
1,1,0.00712,0.00256,-0.01437*
1,1,0.00712,-0.00256,-0.01437*
1,1,0.00712,-0.00256,0.01437*
1,1,0.00712,0.00256,0.01437*
%
%ADD85ROUNDEDRECTD85*%
G04:AMPARAMS|DCode=86|XSize=11.94mil|YSize=35.56mil|CornerRadius=3.41mil|HoleSize=0mil|Usage=FLASHONLY|Rotation=0.000|XOffset=0mil|YOffset=0mil|HoleType=Round|Shape=RoundedRectangle|*
%AMROUNDEDRECTD86*
21,1,0.01194,0.02874,0,0,0.0*
21,1,0.00512,0.03556,0,0,0.0*
1,1,0.00682,0.00256,-0.01437*
1,1,0.00682,-0.00256,-0.01437*
1,1,0.00682,-0.00256,0.01437*
1,1,0.00682,0.00256,0.01437*
%
%ADD86ROUNDEDRECTD86*%
%ADD87C,0.06400*%
%ADD88C,0.02762*%
%ADD89C,0.04731*%
%ADD90C,0.04534*%
%ADD91O,0.07880X0.04140*%
%ADD92C,0.02368*%
G36*
X20870Y199992D02*
X15160D01*
Y204907D01*
X20870D01*
Y199992D01*
D02*
G37*
G36*
X10339Y193102D02*
X2058D01*
Y202149D01*
X10339D01*
Y193102D01*
D02*
G37*
G36*
Y221843D02*
X2068D01*
Y230901D01*
X10339D01*
Y221843D01*
D02*
G37*
G36*
X20870Y219087D02*
X15161D01*
Y224013D01*
X20870D01*
Y219087D01*
D02*
G37*
D40*
X0Y0D02*
X301181D01*
Y244100D01*
X0D02*
X301181D01*
X0Y0D02*
Y244100D01*
D57*
X295640Y141769D02*
D03*
Y125431D02*
D03*
X287175Y141769D02*
D03*
Y125431D02*
D03*
X282776Y213850D02*
D03*
Y230188D02*
D03*
X291240Y213850D02*
D03*
Y230188D02*
D03*
D58*
X66961Y217000D02*
D03*
Y225000D02*
D03*
X121339Y217800D02*
D03*
Y225800D02*
D03*
X130140D02*
D03*
Y217800D02*
D03*
D59*
X100883Y204131D02*
D03*
X92883D02*
D03*
X201900Y136200D02*
D03*
X209900D02*
D03*
X201900Y144200D02*
D03*
X209900D02*
D03*
X201900Y152200D02*
D03*
X209900D02*
D03*
X137941Y230196D02*
D03*
X145941D02*
D03*
X50353Y198898D02*
D03*
X42353D02*
D03*
X65154D02*
D03*
X57154D02*
D03*
D60*
X153339Y218749D02*
D03*
Y224851D02*
D03*
X113418Y224505D02*
D03*
Y218402D02*
D03*
X91568Y225950D02*
D03*
Y232052D02*
D03*
X96946Y220024D02*
D03*
Y226127D02*
D03*
X85438Y225950D02*
D03*
Y232052D02*
D03*
X103076Y220024D02*
D03*
Y226127D02*
D03*
X73261Y199505D02*
D03*
Y205607D02*
D03*
X76946Y232127D02*
D03*
Y226024D02*
D03*
X59425Y216749D02*
D03*
Y222851D02*
D03*
X231713Y151949D02*
D03*
Y158051D02*
D03*
X224600Y151949D02*
D03*
Y158051D02*
D03*
X296500Y97051D02*
D03*
Y90949D02*
D03*
Y103449D02*
D03*
Y109551D02*
D03*
X227185Y217146D02*
D03*
Y223248D02*
D03*
X221185Y217146D02*
D03*
Y223248D02*
D03*
X215185Y217146D02*
D03*
Y223248D02*
D03*
X209185Y217146D02*
D03*
Y223248D02*
D03*
X222516Y176575D02*
D03*
Y170472D02*
D03*
X268179Y232172D02*
D03*
Y226070D02*
D03*
X209906Y120901D02*
D03*
Y127003D02*
D03*
X203906Y120901D02*
D03*
Y127003D02*
D03*
X197956Y120901D02*
D03*
Y127003D02*
D03*
X274309Y232172D02*
D03*
Y226070D02*
D03*
X90000Y54489D02*
D03*
Y60591D02*
D03*
X96130Y54489D02*
D03*
Y60591D02*
D03*
X250984Y217083D02*
D03*
Y223186D02*
D03*
X256791Y217083D02*
D03*
Y223186D02*
D03*
X245079Y217083D02*
D03*
Y223186D02*
D03*
X233185Y217146D02*
D03*
Y223248D02*
D03*
X239185Y217146D02*
D03*
Y223248D02*
D03*
D61*
X25021Y209241D02*
D03*
Y214359D02*
D03*
D62*
X171477Y200000D02*
D03*
Y229134D02*
D03*
D63*
X65451Y208700D02*
D03*
X59349D02*
D03*
X81306Y198619D02*
D03*
X87409D02*
D03*
X275951Y181213D02*
D03*
X269849D02*
D03*
X245963Y167409D02*
D03*
X252065D02*
D03*
X257213D02*
D03*
X263315D02*
D03*
X201498Y189700D02*
D03*
X207600D02*
D03*
X204649Y182297D02*
D03*
X210751D02*
D03*
X208151Y197400D02*
D03*
X202049D02*
D03*
X208166Y203109D02*
D03*
X202064D02*
D03*
X278366Y140858D02*
D03*
X272264D02*
D03*
X153454Y112300D02*
D03*
X147351D02*
D03*
X264559Y189012D02*
D03*
X270661D02*
D03*
X264559Y195012D02*
D03*
X270661D02*
D03*
X282661Y189012D02*
D03*
X276559D02*
D03*
X282661Y195012D02*
D03*
X276559D02*
D03*
X272264Y152136D02*
D03*
X278366D02*
D03*
X272264Y146989D02*
D03*
X278366D02*
D03*
X272342Y157283D02*
D03*
X278445D02*
D03*
X104724Y152854D02*
D03*
X98622D02*
D03*
X276575Y201142D02*
D03*
X282677D02*
D03*
X270669D02*
D03*
X264567D02*
D03*
X263315Y160297D02*
D03*
X257213D02*
D03*
X252065D02*
D03*
X245963D02*
D03*
X153351Y103900D02*
D03*
X147249D02*
D03*
X213314Y203109D02*
D03*
X219416D02*
D03*
X213299Y195997D02*
D03*
X219401D02*
D03*
X266051Y117500D02*
D03*
X259949D02*
D03*
X281051Y118000D02*
D03*
X274949D02*
D03*
X275851Y174100D02*
D03*
X269749D02*
D03*
D64*
X261014Y233490D02*
D03*
X248810D02*
D03*
X236398Y117500D02*
D03*
X248602D02*
D03*
D65*
X268529Y219587D02*
D03*
Y209350D02*
D03*
D66*
X72047Y119272D02*
D03*
Y111791D02*
D03*
Y104311D02*
D03*
Y96831D02*
D03*
Y89350D02*
D03*
X124016D02*
D03*
Y96831D02*
D03*
Y104311D02*
D03*
Y111791D02*
D03*
Y119272D02*
D03*
D67*
X83071Y78327D02*
D03*
X90551D02*
D03*
X98032D02*
D03*
X105512D02*
D03*
X112992D02*
D03*
Y130295D02*
D03*
X105512D02*
D03*
X98032D02*
D03*
X90551D02*
D03*
X83071D02*
D03*
D68*
X45169Y232500D02*
D03*
X47669D02*
D03*
X50269D02*
D03*
X52769D02*
D03*
Y209500D02*
D03*
X50269D02*
D03*
X47669D02*
D03*
X45169D02*
D03*
D69*
X138713Y223032D02*
D03*
D70*
Y221063D02*
D03*
Y219095D02*
D03*
Y217126D02*
D03*
X144028Y223032D02*
D03*
Y221063D02*
D03*
Y219095D02*
D03*
Y217126D02*
D03*
D71*
X266335Y147812D02*
D03*
Y145843D02*
D03*
Y149780D02*
D03*
X256295Y147812D02*
D03*
Y149780D02*
D03*
Y145843D02*
D03*
D72*
X265252Y142792D02*
D03*
X263283D02*
D03*
X261315D02*
D03*
X259347D02*
D03*
X257378D02*
D03*
X261315Y152831D02*
D03*
X263283D02*
D03*
X259347D02*
D03*
X257378D02*
D03*
D73*
X265252D02*
D03*
D74*
X79700Y210000D02*
D03*
D75*
X81700D02*
D03*
X83700D02*
D03*
X85700D02*
D03*
Y221600D02*
D03*
X83700D02*
D03*
X81700D02*
D03*
X79700D02*
D03*
D76*
X88500Y212800D02*
D03*
Y214800D02*
D03*
Y216800D02*
D03*
Y218800D02*
D03*
X76900D02*
D03*
Y216800D02*
D03*
Y214800D02*
D03*
Y212800D02*
D03*
D77*
X81420Y214521D02*
D03*
Y217079D02*
D03*
X83979D02*
D03*
Y214521D02*
D03*
D78*
X16736Y212000D02*
D03*
Y214559D02*
D03*
Y209441D02*
D03*
Y217118D02*
D03*
Y206882D02*
D03*
D79*
X6205Y216528D02*
D03*
Y207472D02*
D03*
D80*
X133842Y210312D02*
D03*
Y199288D02*
D03*
X148842Y210312D02*
D03*
Y199288D02*
D03*
D81*
X33382Y209900D02*
D03*
Y198900D02*
D03*
X33595Y229710D02*
D03*
Y218709D02*
D03*
D82*
X243701Y191800D02*
D03*
D83*
X230177Y202627D02*
D03*
D84*
Y200658D02*
D03*
Y198690D02*
D03*
Y196721D02*
D03*
Y194753D02*
D03*
Y192784D02*
D03*
Y190816D02*
D03*
Y188847D02*
D03*
Y186879D02*
D03*
Y184910D02*
D03*
Y182942D02*
D03*
Y180973D02*
D03*
X257224D02*
D03*
Y182942D02*
D03*
Y184910D02*
D03*
Y186879D02*
D03*
Y188847D02*
D03*
Y190816D02*
D03*
Y192784D02*
D03*
Y194753D02*
D03*
Y196721D02*
D03*
Y198690D02*
D03*
Y200658D02*
D03*
Y202627D02*
D03*
D85*
X232874Y178276D02*
D03*
X234842D02*
D03*
X236811D02*
D03*
X238779D02*
D03*
X240748D02*
D03*
X242717D02*
D03*
X244685D02*
D03*
X246654D02*
D03*
X248622D02*
D03*
X250591D02*
D03*
X252559D02*
D03*
X254528D02*
D03*
Y205324D02*
D03*
X252559D02*
D03*
X250591D02*
D03*
X248622D02*
D03*
X246654D02*
D03*
X244685D02*
D03*
X242717D02*
D03*
X240748D02*
D03*
X238779D02*
D03*
X236811D02*
D03*
X234842D02*
D03*
D86*
X232874D02*
D03*
D87*
X296000Y22500D02*
D03*
Y32500D02*
D03*
Y42500D02*
D03*
Y52500D02*
D03*
Y62500D02*
D03*
Y72500D02*
D03*
X112631Y207832D02*
D03*
Y197831D02*
D03*
X17000Y239389D02*
D03*
X27000D02*
D03*
X120825Y198225D02*
D03*
X66600Y235200D02*
D03*
X7000Y239389D02*
D03*
X38068Y239000D02*
D03*
X104630Y213000D02*
D03*
X187000Y238072D02*
D03*
X236000Y238000D02*
D03*
X160200Y238072D02*
D03*
X226535Y232677D02*
D03*
X216535D02*
D03*
X206535D02*
D03*
X196535D02*
D03*
D88*
X267789Y162800D02*
D03*
X242400Y154659D02*
D03*
X238500Y163500D02*
D03*
X142594Y103800D02*
D03*
X142696Y112000D02*
D03*
X224400Y146700D02*
D03*
X231800Y146600D02*
D03*
D89*
X199592Y83706D02*
D03*
Y75832D02*
D03*
Y67958D02*
D03*
Y60084D02*
D03*
Y52210D02*
D03*
Y44336D02*
D03*
Y36462D02*
D03*
Y28588D02*
D03*
Y20714D02*
D03*
Y12840D02*
D03*
X286206D02*
D03*
Y20714D02*
D03*
Y28588D02*
D03*
Y36462D02*
D03*
Y44336D02*
D03*
Y52210D02*
D03*
Y60084D02*
D03*
Y67958D02*
D03*
Y75832D02*
D03*
Y83706D02*
D03*
D90*
X18016Y221547D02*
D03*
Y202453D02*
D03*
D91*
X6205Y225829D02*
D03*
Y198171D02*
D03*
D92*
X236701Y191800D02*
D03*
Y198800D02*
D03*
Y184800D02*
D03*
X243701D02*
D03*
Y198800D02*
D03*
X250701D02*
D03*
Y191800D02*
D03*
Y184800D02*
D03*
X243701Y191800D02*
D03*
M02*
