G04 Layer_Color=16711935*
%FSLAX25Y25*%
%MOIN*%
G70*
G01*
G75*
%ADD38C,0.01000*%
%ADD82C,0.04534*%
%ADD83O,0.07880X0.04140*%
%ADD84C,0.06400*%
%ADD85C,0.02762*%
%ADD86C,0.04731*%
%ADD87C,0.02368*%
G36*
X20870Y199992D02*
X15160D01*
Y204907D01*
X20870D01*
Y199992D01*
D02*
G37*
G36*
X10339Y193102D02*
X2058D01*
Y202149D01*
X10339D01*
Y193102D01*
D02*
G37*
G36*
Y221843D02*
X2068D01*
Y230901D01*
X10339D01*
Y221843D01*
D02*
G37*
G36*
X20870Y219087D02*
X15161D01*
Y224013D01*
X20870D01*
Y219087D01*
D02*
G37*
D38*
X0Y0D02*
X301181D01*
Y244100D01*
X0D02*
X301181D01*
X0Y0D02*
Y244100D01*
D82*
X18016Y221547D02*
D03*
Y202453D02*
D03*
D83*
X6205Y225829D02*
D03*
Y198171D02*
D03*
D84*
X296000Y22500D02*
D03*
Y32500D02*
D03*
Y42500D02*
D03*
Y52500D02*
D03*
Y62500D02*
D03*
Y72500D02*
D03*
X112631Y207832D02*
D03*
Y197831D02*
D03*
X17000Y239389D02*
D03*
X27000D02*
D03*
X120825Y198225D02*
D03*
X66600Y235200D02*
D03*
X7000Y239389D02*
D03*
X38068Y239000D02*
D03*
X104630Y213000D02*
D03*
X187000Y238072D02*
D03*
X236000Y238000D02*
D03*
X160200Y238072D02*
D03*
X226535Y232677D02*
D03*
X216535D02*
D03*
X206535D02*
D03*
X196535D02*
D03*
D85*
X267789Y162800D02*
D03*
X242400Y154659D02*
D03*
X238500Y163500D02*
D03*
X142594Y103800D02*
D03*
X142696Y112000D02*
D03*
X224400Y146700D02*
D03*
X231800Y146600D02*
D03*
D86*
X199592Y83706D02*
D03*
Y75832D02*
D03*
Y67958D02*
D03*
Y60084D02*
D03*
Y52210D02*
D03*
Y44336D02*
D03*
Y36462D02*
D03*
Y28588D02*
D03*
Y20714D02*
D03*
Y12840D02*
D03*
X286206D02*
D03*
Y20714D02*
D03*
Y28588D02*
D03*
Y36462D02*
D03*
Y44336D02*
D03*
Y52210D02*
D03*
Y60084D02*
D03*
Y67958D02*
D03*
Y75832D02*
D03*
Y83706D02*
D03*
D87*
X243701Y191800D02*
D03*
X250701Y184800D02*
D03*
Y191800D02*
D03*
Y198800D02*
D03*
X243701D02*
D03*
Y184800D02*
D03*
X236701D02*
D03*
Y198800D02*
D03*
Y191800D02*
D03*
M02*
