G04 Layer_Color=65535*
%FSLAX25Y25*%
%MOIN*%
G70*
G01*
G75*
%ADD40C,0.01000*%
%ADD42C,0.01200*%
%ADD49C,0.00787*%
%ADD50C,0.00394*%
%ADD51C,0.00000*%
%ADD52C,0.00500*%
%ADD53C,0.00984*%
%ADD54C,0.00600*%
%ADD55C,0.00800*%
%ADD56C,0.00700*%
D40*
X80107Y206351D02*
G03*
X80107Y206351I-557J0D01*
G01*
X187500Y0D02*
X194000Y6500D01*
X0Y187500D02*
X4500Y192000D01*
X194000Y6500D02*
Y192000D01*
X4500D02*
X194000D01*
X184863Y196063D02*
Y233071D01*
X158091Y196063D02*
Y233071D01*
X261442Y208169D02*
Y220768D01*
X275615Y208169D02*
Y220768D01*
X0Y0D02*
X301181D01*
Y244100D01*
X0D02*
X301181D01*
X0Y0D02*
Y244100D01*
D42*
X64501Y220999D02*
X69422D01*
X96884Y201670D02*
Y206591D01*
X205899Y133739D02*
Y138661D01*
Y141739D02*
Y146660D01*
Y149740D02*
Y154660D01*
D49*
X287470Y121395D02*
G03*
X287470Y121395I-394J0D01*
G01*
X291732Y234224D02*
G03*
X291732Y234224I-394J0D01*
G01*
X195922Y88265D02*
G03*
X195922Y88265I-523J0D01*
G01*
X65748Y118878D02*
G03*
X65748Y119665I0J394D01*
G01*
D02*
G03*
X65748Y118878I0J-394D01*
G01*
X14193Y229921D02*
G03*
X14193Y229921I-394J0D01*
G01*
X248810Y229553D02*
X261014D01*
X248810Y237427D02*
X261014D01*
Y229553D02*
Y230143D01*
X248810Y229553D02*
Y230143D01*
X261014Y236836D02*
Y237427D01*
X248810Y236836D02*
Y237427D01*
X194907Y2564D02*
Y85557D01*
X208492Y95765D01*
X277306D01*
X290891Y85557D01*
Y2564D02*
Y85557D01*
X194907Y2564D02*
X290891D01*
X236398Y120846D02*
Y121437D01*
X248602Y120846D02*
Y121437D01*
X236398Y113563D02*
Y114154D01*
X248602Y113563D02*
Y114154D01*
X236398Y121437D02*
X248602D01*
X236398Y113563D02*
X248602D01*
X229134Y204713D02*
Y206367D01*
X230787D01*
X256614D02*
X258268D01*
Y204713D02*
Y206367D01*
Y177233D02*
Y178887D01*
X256614Y177233D02*
X258268D01*
X229134D02*
Y178887D01*
Y177233D02*
X230787D01*
D50*
X23249Y208060D02*
G03*
X23249Y208060I-197J0D01*
G01*
X263278Y230143D02*
G03*
X263278Y230143I-197J0D01*
G01*
X250866Y114154D02*
G03*
X250866Y114154I-197J0D01*
G01*
X136843Y224803D02*
G03*
X136843Y224803I-197J0D01*
G01*
X67520Y134823D02*
X128543D01*
Y73799D02*
Y134823D01*
X67520Y73799D02*
X128543D01*
X67520D02*
Y134823D01*
D51*
X42869Y219800D02*
G03*
X42869Y222200I0J1200D01*
G01*
D52*
X265646Y155686D02*
G03*
X265646Y155686I-394J0D01*
G01*
X289439Y141868D02*
X293376D01*
X289439Y125332D02*
X293376D01*
X297785D02*
Y141868D01*
X285029Y125332D02*
Y141868D01*
X285039Y213751D02*
X288976D01*
X285039Y230287D02*
X288976D01*
X280630Y213751D02*
Y230287D01*
X293386Y213751D02*
Y230287D01*
X138221Y224803D02*
X138831D01*
X143910D02*
X144520D01*
X138221Y215354D02*
X138831D01*
X143910D02*
X144520D01*
X17622Y224992D02*
Y226764D01*
Y197236D02*
Y199008D01*
X11323Y197236D02*
X17622D01*
X11323Y226764D02*
X17622D01*
X496D02*
X1087D01*
X496Y197236D02*
X1087D01*
X496D02*
Y226764D01*
X117839Y228800D02*
X124839D01*
X117839Y214800D02*
X124839D01*
X126640D02*
X133640D01*
X126640Y228800D02*
X133640D01*
X148941Y226696D02*
Y233697D01*
X134941Y226696D02*
Y233697D01*
X39353Y195398D02*
Y202398D01*
X53353Y195398D02*
Y202398D01*
X54154Y195398D02*
Y202398D01*
X68154Y195398D02*
Y202398D01*
X127444Y196434D02*
Y213166D01*
X140239Y196434D02*
Y213166D01*
X142444Y196434D02*
Y213166D01*
X155239Y196434D02*
Y213166D01*
X28882Y213900D02*
X37882D01*
X28882Y194900D02*
X37882D01*
X29095Y233710D02*
X38095D01*
X29095Y214709D02*
X38095D01*
X250634Y210533D02*
X250301Y210200D01*
Y209533D01*
X250634Y209200D01*
X251967D01*
X252300Y209533D01*
Y210200D01*
X251967Y210533D01*
X252300Y211199D02*
Y211866D01*
Y211533D01*
X250301D01*
X250634Y211199D01*
X251967Y212865D02*
X252300Y213199D01*
Y213865D01*
X251967Y214198D01*
X250634D01*
X250301Y213865D01*
Y213199D01*
X250634Y212865D01*
X250967D01*
X251300Y213199D01*
Y214198D01*
D53*
X226870Y204202D02*
G03*
X226870Y204202I-492J0D01*
G01*
D54*
X151765Y221799D02*
X154914D01*
X111843Y221454D02*
X114993D01*
X89993Y229001D02*
X93142D01*
X95371Y223076D02*
X98520D01*
X57676Y211456D02*
X67124D01*
X57676Y205944D02*
X67124D01*
X88194Y224277D02*
Y233725D01*
X82682Y224277D02*
Y233725D01*
X105832Y218351D02*
Y227800D01*
X100320Y218351D02*
Y227800D01*
X76016Y197831D02*
Y207280D01*
X70505Y197831D02*
Y207280D01*
X74190Y224351D02*
Y233800D01*
X79702Y224351D02*
Y233800D01*
X62182Y215076D02*
Y224524D01*
X56670Y215076D02*
Y224524D01*
X79633Y195863D02*
X89082D01*
X79633Y201375D02*
X89082D01*
X268176Y183969D02*
X277624D01*
X268176Y178457D02*
X277624D01*
X234469Y150276D02*
Y159724D01*
X228957Y150276D02*
Y159724D01*
X227356Y150276D02*
Y159724D01*
X221844Y150276D02*
Y159724D01*
X244290Y164654D02*
X253738D01*
X244290Y170165D02*
X253738D01*
X255539Y164654D02*
X264988D01*
X255539Y170165D02*
X264988D01*
X199824Y186944D02*
X209273D01*
X199824Y192456D02*
X209273D01*
X202976Y179541D02*
X212424D01*
X202976Y185053D02*
X212424D01*
X293744Y89276D02*
Y98724D01*
X299256Y89276D02*
Y98724D01*
X294925Y106500D02*
X298075D01*
X205100Y195825D02*
Y198975D01*
X205115Y201535D02*
Y204684D01*
X270590Y143614D02*
X280039D01*
X270590Y138102D02*
X280039D01*
X145678Y115056D02*
X155127D01*
X145678Y109544D02*
X155127D01*
X225610Y220196D02*
X228760D01*
X219611D02*
X222760D01*
X213611D02*
X216760D01*
X207611D02*
X210760D01*
X267610Y187437D02*
Y190586D01*
Y193437D02*
Y196586D01*
X220941Y173524D02*
X224091D01*
X279611Y187437D02*
Y190587D01*
Y193437D02*
Y196587D01*
X266604Y229122D02*
X269754D01*
X275314Y150561D02*
Y153711D01*
Y145414D02*
Y148563D01*
X275393Y155709D02*
Y158858D01*
X101674Y151280D02*
Y154429D01*
X208331Y123952D02*
X211481D01*
X202331D02*
X205481D01*
X196381D02*
X199531D01*
X274902Y198386D02*
X284350D01*
X274902Y203898D02*
X284350D01*
X262894D02*
X272342D01*
X262894Y198386D02*
X272342D01*
X271553Y224397D02*
Y233846D01*
X277065Y224397D02*
Y233846D01*
X255539Y163052D02*
X264988D01*
X255539Y157541D02*
X264988D01*
X244290Y163052D02*
X253738D01*
X244290Y157541D02*
X253738D01*
X145576Y106656D02*
X155024D01*
X145576Y101144D02*
X155024D01*
X211640Y200354D02*
X221089D01*
X211640Y205865D02*
X221089D01*
X211625Y193241D02*
X221074D01*
X211625Y198752D02*
X221074D01*
X92756Y52816D02*
Y62264D01*
X87244Y52816D02*
Y62264D01*
X94556Y57539D02*
X97705D01*
X263000Y115925D02*
Y119075D01*
X273276Y120756D02*
X282724D01*
X273276Y115244D02*
X282724D01*
X268076Y176856D02*
X277524D01*
X268076Y171344D02*
X277524D01*
X42869Y212100D02*
Y219800D01*
Y222200D01*
Y229900D01*
X55069Y212100D02*
Y229900D01*
X76500Y222000D02*
X77800D01*
X88900Y220700D02*
Y222000D01*
X76500Y209600D02*
Y210900D01*
X88900Y209600D02*
Y210900D01*
X87600Y222000D02*
X88900D01*
X76500Y220700D02*
Y222000D01*
Y209600D02*
X77800D01*
X87600D02*
X88900D01*
X249410Y220134D02*
X252559D01*
X255217D02*
X258366D01*
X243504D02*
X246654D01*
X231610Y220196D02*
X234760D01*
X237611D02*
X240760D01*
X294566Y147383D02*
X294150Y147799D01*
X293317D01*
X292900Y147383D01*
Y146966D01*
X293317Y146550D01*
X294150D01*
X294566Y146133D01*
Y145717D01*
X294150Y145300D01*
X293317D01*
X292900Y145717D01*
X295399Y147799D02*
Y145300D01*
X296232Y146133D01*
X297065Y145300D01*
Y147799D01*
X299565Y145300D02*
X297898D01*
X299565Y146966D01*
Y147383D01*
X299148Y147799D01*
X298315D01*
X297898Y147383D01*
X293100Y78600D02*
Y81099D01*
X294350D01*
X294766Y80683D01*
Y79850D01*
X294350Y79433D01*
X293100D01*
X297265Y81099D02*
X295599D01*
Y79850D01*
X296432Y80266D01*
X296849D01*
X297265Y79850D01*
Y79017D01*
X296849Y78600D01*
X296016D01*
X295599Y79017D01*
X5500Y187300D02*
Y189799D01*
X6750D01*
X7166Y189383D01*
Y188550D01*
X6750Y188133D01*
X5500D01*
X7999Y189383D02*
X8416Y189799D01*
X9249D01*
X9665Y189383D01*
Y188966D01*
X9249Y188550D01*
X8832D01*
X9249D01*
X9665Y188133D01*
Y187716D01*
X9249Y187300D01*
X8416D01*
X7999Y187716D01*
X92100Y212899D02*
Y210817D01*
X92516Y210400D01*
X93350D01*
X93766Y210817D01*
Y212899D01*
X96265Y210400D02*
X94599D01*
X96265Y212066D01*
Y212483D01*
X95849Y212899D01*
X95016D01*
X94599Y212483D01*
X32566Y189683D02*
X32150Y190099D01*
X31317D01*
X30900Y189683D01*
Y188016D01*
X31317Y187600D01*
X32150D01*
X32566Y188016D01*
X33399Y187600D02*
X34232D01*
X33816D01*
Y190099D01*
X33399Y189683D01*
X24166Y229083D02*
X23750Y229499D01*
X22917D01*
X22500Y229083D01*
Y227416D01*
X22917Y227000D01*
X23750D01*
X24166Y227416D01*
X26665Y227000D02*
X24999D01*
X26665Y228666D01*
Y229083D01*
X26249Y229499D01*
X25416D01*
X24999Y229083D01*
X68566Y230083D02*
X68150Y230499D01*
X67317D01*
X66900Y230083D01*
Y228416D01*
X67317Y228000D01*
X68150D01*
X68566Y228416D01*
X69399Y230083D02*
X69816Y230499D01*
X70649D01*
X71065Y230083D01*
Y229666D01*
X70649Y229250D01*
X70232D01*
X70649D01*
X71065Y228833D01*
Y228416D01*
X70649Y228000D01*
X69816D01*
X69399Y228416D01*
X96366Y198983D02*
X95950Y199399D01*
X95117D01*
X94700Y198983D01*
Y197317D01*
X95117Y196900D01*
X95950D01*
X96366Y197317D01*
X98449Y196900D02*
Y199399D01*
X97199Y198150D01*
X98865D01*
X153766Y230083D02*
X153350Y230499D01*
X152516D01*
X152100Y230083D01*
Y228416D01*
X152516Y228000D01*
X153350D01*
X153766Y228416D01*
X156265Y230499D02*
X154599D01*
Y229250D01*
X155432Y229666D01*
X155849D01*
X156265Y229250D01*
Y228416D01*
X155849Y228000D01*
X155016D01*
X154599Y228416D01*
X112766Y229483D02*
X112350Y229899D01*
X111516D01*
X111100Y229483D01*
Y227817D01*
X111516Y227400D01*
X112350D01*
X112766Y227817D01*
X115265Y229899D02*
X114432Y229483D01*
X113599Y228650D01*
Y227817D01*
X114016Y227400D01*
X114849D01*
X115265Y227817D01*
Y228233D01*
X114849Y228650D01*
X113599D01*
X133166Y189583D02*
X132750Y189999D01*
X131916D01*
X131500Y189583D01*
Y187917D01*
X131916Y187500D01*
X132750D01*
X133166Y187917D01*
X133999Y189999D02*
X135665D01*
Y189583D01*
X133999Y187917D01*
Y187500D01*
X148666Y189583D02*
X148250Y189999D01*
X147416D01*
X147000Y189583D01*
Y187917D01*
X147416Y187500D01*
X148250D01*
X148666Y187917D01*
X149499Y189583D02*
X149916Y189999D01*
X150749D01*
X151165Y189583D01*
Y189166D01*
X150749Y188750D01*
X151165Y188333D01*
Y187917D01*
X150749Y187500D01*
X149916D01*
X149499Y187917D01*
Y188333D01*
X149916Y188750D01*
X149499Y189166D01*
Y189583D01*
X149916Y188750D02*
X150749D01*
X90600Y237899D02*
Y235400D01*
X91850D01*
X92266Y235817D01*
Y237483D01*
X91850Y237899D01*
X90600D01*
X93099Y235400D02*
X93932D01*
X93516D01*
Y237899D01*
X93099Y237483D01*
X94800Y231699D02*
Y229200D01*
X96050D01*
X96466Y229616D01*
Y231283D01*
X96050Y231699D01*
X94800D01*
X98965Y229200D02*
X97299D01*
X98965Y230866D01*
Y231283D01*
X98549Y231699D01*
X97716D01*
X97299Y231283D01*
X24866Y220499D02*
X23200D01*
Y218000D01*
X24866D01*
X23200Y219250D02*
X24033D01*
X25699Y218000D02*
X26532D01*
X26116D01*
Y220499D01*
X25699Y220083D01*
X167356Y236988D02*
Y234489D01*
X169022D01*
X169855D02*
X170688D01*
X170272D01*
Y236988D01*
X169855Y236571D01*
X103600Y197000D02*
Y199499D01*
X104850D01*
X105266Y199083D01*
Y198250D01*
X104850Y197833D01*
X103600D01*
X106099Y197000D02*
X106932D01*
X106516D01*
Y199499D01*
X106099Y199083D01*
X20200Y232100D02*
Y234599D01*
X21450D01*
X21866Y234183D01*
Y233350D01*
X21450Y232933D01*
X20200D01*
X24365Y232100D02*
X22699D01*
X24365Y233766D01*
Y234183D01*
X23949Y234599D01*
X23116D01*
X22699Y234183D01*
X44000Y187300D02*
Y189799D01*
X45250D01*
X45666Y189383D01*
Y188550D01*
X45250Y188133D01*
X44000D01*
X44833D02*
X45666Y187300D01*
X46499D02*
X47332D01*
X46916D01*
Y189799D01*
X46499Y189383D01*
X58900Y187300D02*
Y189799D01*
X60150D01*
X60566Y189383D01*
Y188550D01*
X60150Y188133D01*
X58900D01*
X59733D02*
X60566Y187300D01*
X63065D02*
X61399D01*
X63065Y188966D01*
Y189383D01*
X62649Y189799D01*
X61816D01*
X61399Y189383D01*
X69500Y209500D02*
Y211999D01*
X70750D01*
X71166Y211583D01*
Y210750D01*
X70750Y210333D01*
X69500D01*
X70333D02*
X71166Y209500D01*
X71999Y211583D02*
X72416Y211999D01*
X73249D01*
X73665Y211583D01*
Y211166D01*
X73249Y210750D01*
X72832D01*
X73249D01*
X73665Y210333D01*
Y209916D01*
X73249Y209500D01*
X72416D01*
X71999Y209916D01*
X83300Y235600D02*
Y238099D01*
X84550D01*
X84966Y237683D01*
Y236850D01*
X84550Y236433D01*
X83300D01*
X84133D02*
X84966Y235600D01*
X87049D02*
Y238099D01*
X85799Y236850D01*
X87465D01*
X101400Y229400D02*
Y231899D01*
X102650D01*
X103066Y231483D01*
Y230650D01*
X102650Y230233D01*
X101400D01*
X102233D02*
X103066Y229400D01*
X105565Y231899D02*
X103899D01*
Y230650D01*
X104732Y231066D01*
X105149D01*
X105565Y230650D01*
Y229817D01*
X105149Y229400D01*
X104316D01*
X103899Y229817D01*
X70800Y187700D02*
Y190199D01*
X72050D01*
X72466Y189783D01*
Y188950D01*
X72050Y188533D01*
X70800D01*
X71633D02*
X72466Y187700D01*
X74965Y190199D02*
X74132Y189783D01*
X73299Y188950D01*
Y188117D01*
X73716Y187700D01*
X74549D01*
X74965Y188117D01*
Y188533D01*
X74549Y188950D01*
X73299D01*
X75000Y235400D02*
Y237899D01*
X76250D01*
X76666Y237483D01*
Y236650D01*
X76250Y236233D01*
X75000D01*
X75833D02*
X76666Y235400D01*
X77499Y237899D02*
X79165D01*
Y237483D01*
X77499Y235817D01*
Y235400D01*
X57600Y227100D02*
Y229599D01*
X58850D01*
X59266Y229183D01*
Y228350D01*
X58850Y227933D01*
X57600D01*
X58433D02*
X59266Y227100D01*
X60099Y229183D02*
X60516Y229599D01*
X61349D01*
X61765Y229183D01*
Y228766D01*
X61349Y228350D01*
X61765Y227933D01*
Y227517D01*
X61349Y227100D01*
X60516D01*
X60099Y227517D01*
Y227933D01*
X60516Y228350D01*
X60099Y228766D01*
Y229183D01*
X60516Y228350D02*
X61349D01*
X81900Y187300D02*
Y189799D01*
X83150D01*
X83566Y189383D01*
Y188550D01*
X83150Y188133D01*
X81900D01*
X82733D02*
X83566Y187300D01*
X84399Y187716D02*
X84816Y187300D01*
X85649D01*
X86065Y187716D01*
Y189383D01*
X85649Y189799D01*
X84816D01*
X84399Y189383D01*
Y188966D01*
X84816Y188550D01*
X86065D01*
X137900Y235700D02*
Y238199D01*
X139150D01*
X139566Y237783D01*
Y236950D01*
X139150Y236533D01*
X137900D01*
X138733D02*
X139566Y235700D01*
X140399D02*
X141232D01*
X140816D01*
Y238199D01*
X140399Y237783D01*
X142482D02*
X142898Y238199D01*
X143731D01*
X144148Y237783D01*
Y236117D01*
X143731Y235700D01*
X142898D01*
X142482Y236117D01*
Y237783D01*
X118200Y231400D02*
Y233899D01*
X119450D01*
X119866Y233483D01*
Y232650D01*
X119450Y232233D01*
X118200D01*
X119033D02*
X119866Y231400D01*
X120699D02*
X121532D01*
X121116D01*
Y233899D01*
X120699Y233483D01*
X122782Y231400D02*
X123615D01*
X123198D01*
Y233899D01*
X122782Y233483D01*
X126400Y231300D02*
Y233799D01*
X127650D01*
X128066Y233383D01*
Y232550D01*
X127650Y232133D01*
X126400D01*
X127233D02*
X128066Y231300D01*
X128899D02*
X129732D01*
X129316D01*
Y233799D01*
X128899Y233383D01*
X132648Y231300D02*
X130982D01*
X132648Y232966D01*
Y233383D01*
X132231Y233799D01*
X131398D01*
X130982Y233383D01*
X119300Y206699D02*
X120966D01*
X120133D01*
Y204200D01*
X121799D02*
X122632D01*
X122216D01*
Y206699D01*
X121799Y206283D01*
X57300Y236299D02*
X58966D01*
X58133D01*
Y233800D01*
X61465D02*
X59799D01*
X61465Y235466D01*
Y235883D01*
X61049Y236299D01*
X60216D01*
X59799Y235883D01*
X7700Y234899D02*
X9366D01*
X8533D01*
Y232400D01*
X10199Y234483D02*
X10616Y234899D01*
X11449D01*
X11865Y234483D01*
Y234066D01*
X11449Y233650D01*
X11032D01*
X11449D01*
X11865Y233233D01*
Y232817D01*
X11449Y232400D01*
X10616D01*
X10199Y232817D01*
X42000Y241499D02*
X43666D01*
X42833D01*
Y239000D01*
X45749D02*
Y241499D01*
X44499Y240250D01*
X46165D01*
X110000Y215299D02*
X111666D01*
X110833D01*
Y212800D01*
X114165Y215299D02*
X112499D01*
Y214050D01*
X113332Y214466D01*
X113749D01*
X114165Y214050D01*
Y213216D01*
X113749Y212800D01*
X112916D01*
X112499Y213216D01*
X177500Y238999D02*
X179166D01*
X178333D01*
Y236500D01*
X181665Y238999D02*
X180832Y238583D01*
X179999Y237750D01*
Y236916D01*
X180416Y236500D01*
X181249D01*
X181665Y236916D01*
Y237333D01*
X181249Y237750D01*
X179999D01*
X228611Y242209D02*
X230277D01*
X229444D01*
Y239710D01*
X231110Y242209D02*
X232776D01*
Y241793D01*
X231110Y240127D01*
Y239710D01*
X148000Y238999D02*
X149666D01*
X148833D01*
Y236500D01*
X150499D02*
X151332D01*
X150916D01*
Y238999D01*
X150499Y238583D01*
X154248Y238999D02*
X152582D01*
Y237750D01*
X153415Y238166D01*
X153831D01*
X154248Y237750D01*
Y236916D01*
X153831Y236500D01*
X152998D01*
X152582Y236916D01*
X147501Y218800D02*
X149583D01*
X150000Y219216D01*
Y220050D01*
X149583Y220466D01*
X147501D01*
X147917Y221299D02*
X147501Y221716D01*
Y222549D01*
X147917Y222965D01*
X148334D01*
X148750Y222549D01*
Y222132D01*
Y222549D01*
X149167Y222965D01*
X149583D01*
X150000Y222549D01*
Y221716D01*
X149583Y221299D01*
X295817Y219766D02*
X295401Y219350D01*
Y218516D01*
X295817Y218100D01*
X296234D01*
X296650Y218516D01*
Y219350D01*
X297067Y219766D01*
X297483D01*
X297900Y219350D01*
Y218516D01*
X297483Y218100D01*
X295401Y220599D02*
X297900D01*
X297067Y221432D01*
X297900Y222265D01*
X295401D01*
X297900Y223098D02*
Y223931D01*
Y223515D01*
X295401D01*
X295817Y223098D01*
X241066Y235099D02*
X239400D01*
Y232600D01*
X241066D01*
X239400Y233850D02*
X240233D01*
X243565Y232600D02*
X241899D01*
X243565Y234266D01*
Y234683D01*
X243149Y235099D01*
X242316D01*
X241899Y234683D01*
X282965Y179932D02*
Y182432D01*
X284215D01*
X284631Y182015D01*
Y181182D01*
X284215Y180766D01*
X282965D01*
X283798D02*
X284631Y179932D01*
X285465D02*
X286298D01*
X285881D01*
Y182432D01*
X285465Y182015D01*
X289213Y182432D02*
X287547D01*
Y181182D01*
X288380Y181599D01*
X288797D01*
X289213Y181182D01*
Y180349D01*
X288797Y179932D01*
X287964D01*
X287547Y180349D01*
X227900Y161900D02*
Y164399D01*
X229150D01*
X229566Y163983D01*
Y163150D01*
X229150Y162733D01*
X227900D01*
X228733D02*
X229566Y161900D01*
X230399Y163983D02*
X230816Y164399D01*
X231649D01*
X232065Y163983D01*
Y163566D01*
X231649Y163150D01*
X231232D01*
X231649D01*
X232065Y162733D01*
Y162317D01*
X231649Y161900D01*
X230816D01*
X230399Y162317D01*
X232898Y163983D02*
X233315Y164399D01*
X234148D01*
X234564Y163983D01*
Y162317D01*
X234148Y161900D01*
X233315D01*
X232898Y162317D01*
Y163983D01*
X219000Y161800D02*
Y164299D01*
X220250D01*
X220666Y163883D01*
Y163050D01*
X220250Y162633D01*
X219000D01*
X219833D02*
X220666Y161800D01*
X223165D02*
X221499D01*
X223165Y163466D01*
Y163883D01*
X222749Y164299D01*
X221916D01*
X221499Y163883D01*
X223998Y162216D02*
X224415Y161800D01*
X225248D01*
X225664Y162216D01*
Y163883D01*
X225248Y164299D01*
X224415D01*
X223998Y163883D01*
Y163466D01*
X224415Y163050D01*
X225664D01*
X241500Y171900D02*
Y174399D01*
X242750D01*
X243166Y173983D01*
Y173150D01*
X242750Y172733D01*
X241500D01*
X242333D02*
X243166Y171900D01*
X245665D02*
X243999D01*
X245665Y173566D01*
Y173983D01*
X245249Y174399D01*
X244416D01*
X243999Y173983D01*
X248165Y174399D02*
X246498D01*
Y173150D01*
X247331Y173566D01*
X247748D01*
X248165Y173150D01*
Y172317D01*
X247748Y171900D01*
X246915D01*
X246498Y172317D01*
X251800Y172100D02*
Y174599D01*
X253050D01*
X253466Y174183D01*
Y173350D01*
X253050Y172933D01*
X251800D01*
X252633D02*
X253466Y172100D01*
X255965D02*
X254299D01*
X255965Y173766D01*
Y174183D01*
X255549Y174599D01*
X254716D01*
X254299Y174183D01*
X258048Y172100D02*
Y174599D01*
X256798Y173350D01*
X258465D01*
X199000Y179600D02*
X196501D01*
Y180850D01*
X196917Y181266D01*
X197750D01*
X198167Y180850D01*
Y179600D01*
Y180433D02*
X199000Y181266D01*
Y182099D02*
Y182932D01*
Y182516D01*
X196501D01*
X196917Y182099D01*
Y184182D02*
X196501Y184598D01*
Y185431D01*
X196917Y185848D01*
X197334D01*
X197750Y185431D01*
X198167Y185848D01*
X198583D01*
X199000Y185431D01*
Y184598D01*
X198583Y184182D01*
X198167D01*
X197750Y184598D01*
X197334Y184182D01*
X196917D01*
X197750Y184598D02*
Y185431D01*
X203500Y175400D02*
Y177899D01*
X204750D01*
X205166Y177483D01*
Y176650D01*
X204750Y176233D01*
X203500D01*
X204333D02*
X205166Y175400D01*
X205999D02*
X206832D01*
X206416D01*
Y177899D01*
X205999Y177483D01*
X208082Y177899D02*
X209748D01*
Y177483D01*
X208082Y175817D01*
Y175400D01*
X289200Y101200D02*
X291699D01*
Y99950D01*
X291283Y99534D01*
X290450D01*
X290033Y99950D01*
Y101200D01*
Y100367D02*
X289200Y99534D01*
X291283Y98701D02*
X291699Y98284D01*
Y97451D01*
X291283Y97035D01*
X290866D01*
X290450Y97451D01*
Y97868D01*
Y97451D01*
X290033Y97035D01*
X289616D01*
X289200Y97451D01*
Y98284D01*
X289616Y98701D01*
X289200Y96202D02*
Y95369D01*
Y95785D01*
X291699D01*
X291283Y96202D01*
X291899Y108100D02*
X289400D01*
Y106850D01*
X289816Y106434D01*
X291483D01*
X291899Y106850D01*
Y108100D01*
Y103935D02*
X291483Y104768D01*
X290650Y105601D01*
X289816D01*
X289400Y105184D01*
Y104351D01*
X289816Y103935D01*
X290233D01*
X290650Y104351D01*
Y105601D01*
X190900Y198499D02*
Y196000D01*
X192150D01*
X192566Y196416D01*
Y198083D01*
X192150Y198499D01*
X190900D01*
X194649Y196000D02*
Y198499D01*
X193399Y197250D01*
X195065D01*
X191100Y204399D02*
Y201900D01*
X192350D01*
X192766Y202316D01*
Y203983D01*
X192350Y204399D01*
X191100D01*
X193599Y203983D02*
X194016Y204399D01*
X194849D01*
X195265Y203983D01*
Y203566D01*
X194849Y203150D01*
X194432D01*
X194849D01*
X195265Y202733D01*
Y202316D01*
X194849Y201900D01*
X194016D01*
X193599Y202316D01*
X271500Y132000D02*
Y134499D01*
X272750D01*
X273166Y134083D01*
Y133250D01*
X272750Y132833D01*
X271500D01*
X272333D02*
X273166Y132000D01*
X275665D02*
X273999D01*
X275665Y133666D01*
Y134083D01*
X275249Y134499D01*
X274416D01*
X273999Y134083D01*
X276498Y132000D02*
X277331D01*
X276915D01*
Y134499D01*
X276498Y134083D01*
X151200Y117400D02*
Y119899D01*
X152450D01*
X152866Y119483D01*
Y118650D01*
X152450Y118233D01*
X151200D01*
X152033D02*
X152866Y117400D01*
X155365D02*
X153699D01*
X155365Y119066D01*
Y119483D01*
X154949Y119899D01*
X154116D01*
X153699Y119483D01*
X156198Y119899D02*
X157864D01*
Y119483D01*
X156198Y117816D01*
Y117400D01*
X238034Y210433D02*
X237701Y210100D01*
Y209433D01*
X238034Y209100D01*
X239367D01*
X239700Y209433D01*
Y210100D01*
X239367Y210433D01*
Y211099D02*
X239700Y211433D01*
Y212099D01*
X239367Y212432D01*
X238034D01*
X237701Y212099D01*
Y211433D01*
X238034Y211099D01*
X238367D01*
X238700Y211433D01*
Y212432D01*
X232834Y209833D02*
X232501Y209500D01*
Y208833D01*
X232834Y208500D01*
X234167D01*
X234500Y208833D01*
Y209500D01*
X234167Y209833D01*
X234500Y210499D02*
Y211166D01*
Y210833D01*
X232501D01*
X232834Y210499D01*
Y212165D02*
X232501Y212499D01*
Y213165D01*
X232834Y213498D01*
X234167D01*
X234500Y213165D01*
Y212499D01*
X234167Y212165D01*
X232834D01*
X226317Y210366D02*
X225901Y209950D01*
Y209117D01*
X226317Y208700D01*
X227983D01*
X228400Y209117D01*
Y209950D01*
X227983Y210366D01*
X228400Y211199D02*
Y212032D01*
Y211616D01*
X225901D01*
X226317Y211199D01*
X228400Y213282D02*
Y214115D01*
Y213698D01*
X225901D01*
X226317Y213282D01*
X220417Y209566D02*
X220001Y209150D01*
Y208316D01*
X220417Y207900D01*
X222083D01*
X222500Y208316D01*
Y209150D01*
X222083Y209566D01*
X222500Y210399D02*
Y211232D01*
Y210816D01*
X220001D01*
X220417Y210399D01*
X222500Y214148D02*
Y212482D01*
X220834Y214148D01*
X220417D01*
X220001Y213731D01*
Y212898D01*
X220417Y212482D01*
X214317Y209666D02*
X213901Y209250D01*
Y208417D01*
X214317Y208000D01*
X215984D01*
X216400Y208417D01*
Y209250D01*
X215984Y209666D01*
X216400Y210499D02*
Y211332D01*
Y210916D01*
X213901D01*
X214317Y210499D01*
Y212582D02*
X213901Y212998D01*
Y213831D01*
X214317Y214248D01*
X214734D01*
X215150Y213831D01*
Y213415D01*
Y213831D01*
X215567Y214248D01*
X215984D01*
X216400Y213831D01*
Y212998D01*
X215984Y212582D01*
X200566Y216483D02*
X200150Y216899D01*
X199317D01*
X198900Y216483D01*
Y214816D01*
X199317Y214400D01*
X200150D01*
X200566Y214816D01*
X201399Y214400D02*
X202232D01*
X201816D01*
Y216899D01*
X201399Y216483D01*
X204731Y214400D02*
Y216899D01*
X203482Y215650D01*
X205148D01*
X287766Y190983D02*
X287350Y191399D01*
X286516D01*
X286100Y190983D01*
Y189316D01*
X286516Y188900D01*
X287350D01*
X287766Y189316D01*
X288599Y188900D02*
X289432D01*
X289016D01*
Y191399D01*
X288599Y190983D01*
X292348Y191399D02*
X290682D01*
Y190150D01*
X291515Y190566D01*
X291931D01*
X292348Y190150D01*
Y189316D01*
X291931Y188900D01*
X291098D01*
X290682Y189316D01*
X287966Y198683D02*
X287550Y199099D01*
X286717D01*
X286300Y198683D01*
Y197017D01*
X286717Y196600D01*
X287550D01*
X287966Y197017D01*
X288799Y196600D02*
X289632D01*
X289216D01*
Y199099D01*
X288799Y198683D01*
X292548Y199099D02*
X291715Y198683D01*
X290882Y197850D01*
Y197017D01*
X291298Y196600D01*
X292131D01*
X292548Y197017D01*
Y197433D01*
X292131Y197850D01*
X290882D01*
X214966Y169883D02*
X214550Y170299D01*
X213717D01*
X213300Y169883D01*
Y168217D01*
X213717Y167800D01*
X214550D01*
X214966Y168217D01*
X215799Y167800D02*
X216632D01*
X216216D01*
Y170299D01*
X215799Y169883D01*
X217882Y170299D02*
X219548D01*
Y169883D01*
X217882Y168217D01*
Y167800D01*
X245034Y210133D02*
X244701Y209800D01*
Y209133D01*
X245034Y208800D01*
X246367D01*
X246700Y209133D01*
Y209800D01*
X246367Y210133D01*
X246700Y212132D02*
Y210799D01*
X245367Y212132D01*
X245034D01*
X244701Y211799D01*
Y211133D01*
X245034Y210799D01*
X246700Y214132D02*
Y212799D01*
X245367Y214132D01*
X245034D01*
X244701Y213798D01*
Y213132D01*
X245034Y212799D01*
X257334Y210033D02*
X257001Y209700D01*
Y209033D01*
X257334Y208700D01*
X258667D01*
X259000Y209033D01*
Y209700D01*
X258667Y210033D01*
X259000Y210699D02*
Y211366D01*
Y211033D01*
X257001D01*
X257334Y210699D01*
Y212366D02*
X257001Y212699D01*
Y213365D01*
X257334Y213698D01*
X257667D01*
X258000Y213365D01*
X258334Y213698D01*
X258667D01*
X259000Y213365D01*
Y212699D01*
X258667Y212366D01*
X258334D01*
X258000Y212699D01*
X257667Y212366D01*
X257334D01*
X258000Y212699D02*
Y213365D01*
X294566Y186883D02*
X294150Y187299D01*
X293317D01*
X292900Y186883D01*
Y185216D01*
X293317Y184800D01*
X294150D01*
X294566Y185216D01*
X297065Y184800D02*
X295399D01*
X297065Y186466D01*
Y186883D01*
X296649Y187299D01*
X295816D01*
X295399Y186883D01*
X297898D02*
X298315Y187299D01*
X299148D01*
X299565Y186883D01*
Y185216D01*
X299148Y184800D01*
X298315D01*
X297898Y185216D01*
Y186883D01*
X295166Y194783D02*
X294750Y195199D01*
X293917D01*
X293500Y194783D01*
Y193116D01*
X293917Y192700D01*
X294750D01*
X295166Y193116D01*
X297665Y192700D02*
X295999D01*
X297665Y194366D01*
Y194783D01*
X297249Y195199D01*
X296416D01*
X295999Y194783D01*
X298498Y192700D02*
X299331D01*
X298915D01*
Y195199D01*
X298498Y194783D01*
X266266Y238283D02*
X265850Y238699D01*
X265017D01*
X264600Y238283D01*
Y236616D01*
X265017Y236200D01*
X265850D01*
X266266Y236616D01*
X268765Y236200D02*
X267099D01*
X268765Y237866D01*
Y238283D01*
X268349Y238699D01*
X267516D01*
X267099Y238283D01*
X269598D02*
X270015Y238699D01*
X270848D01*
X271265Y238283D01*
Y237866D01*
X270848Y237450D01*
X270431D01*
X270848D01*
X271265Y237033D01*
Y236616D01*
X270848Y236200D01*
X270015D01*
X269598Y236616D01*
X285666Y152583D02*
X285250Y152999D01*
X284417D01*
X284000Y152583D01*
Y150917D01*
X284417Y150500D01*
X285250D01*
X285666Y150917D01*
X288165Y150500D02*
X286499D01*
X288165Y152166D01*
Y152583D01*
X287749Y152999D01*
X286916D01*
X286499Y152583D01*
X290248Y150500D02*
Y152999D01*
X288998Y151750D01*
X290665D01*
X285666Y147583D02*
X285250Y147999D01*
X284417D01*
X284000Y147583D01*
Y145916D01*
X284417Y145500D01*
X285250D01*
X285666Y145916D01*
X288165Y145500D02*
X286499D01*
X288165Y147166D01*
Y147583D01*
X287749Y147999D01*
X286916D01*
X286499Y147583D01*
X290665Y147999D02*
X288998D01*
Y146750D01*
X289831Y147166D01*
X290248D01*
X290665Y146750D01*
Y145916D01*
X290248Y145500D01*
X289415D01*
X288998Y145916D01*
X285666Y157583D02*
X285250Y157999D01*
X284417D01*
X284000Y157583D01*
Y155917D01*
X284417Y155500D01*
X285250D01*
X285666Y155917D01*
X288165Y155500D02*
X286499D01*
X288165Y157166D01*
Y157583D01*
X287749Y157999D01*
X286916D01*
X286499Y157583D01*
X290665Y157999D02*
X289831Y157583D01*
X288998Y156750D01*
Y155917D01*
X289415Y155500D01*
X290248D01*
X290665Y155917D01*
Y156333D01*
X290248Y156750D01*
X288998D01*
X101866Y158383D02*
X101450Y158799D01*
X100617D01*
X100200Y158383D01*
Y156717D01*
X100617Y156300D01*
X101450D01*
X101866Y156717D01*
X104365Y156300D02*
X102699D01*
X104365Y157966D01*
Y158383D01*
X103949Y158799D01*
X103116D01*
X102699Y158383D01*
X105198Y158799D02*
X106865D01*
Y158383D01*
X105198Y156717D01*
Y156300D01*
X216166Y137083D02*
X215750Y137499D01*
X214916D01*
X214500Y137083D01*
Y135416D01*
X214916Y135000D01*
X215750D01*
X216166Y135416D01*
X218665Y135000D02*
X216999D01*
X218665Y136666D01*
Y137083D01*
X218249Y137499D01*
X217416D01*
X216999Y137083D01*
X219498D02*
X219915Y137499D01*
X220748D01*
X221164Y137083D01*
Y136666D01*
X220748Y136250D01*
X221164Y135833D01*
Y135416D01*
X220748Y135000D01*
X219915D01*
X219498Y135416D01*
Y135833D01*
X219915Y136250D01*
X219498Y136666D01*
Y137083D01*
X219915Y136250D02*
X220748D01*
X209417Y112166D02*
X209001Y111750D01*
Y110916D01*
X209417Y110500D01*
X211084D01*
X211500Y110916D01*
Y111750D01*
X211084Y112166D01*
X209417Y112999D02*
X209001Y113416D01*
Y114249D01*
X209417Y114665D01*
X209834D01*
X210250Y114249D01*
Y113832D01*
Y114249D01*
X210667Y114665D01*
X211084D01*
X211500Y114249D01*
Y113416D01*
X211084Y112999D01*
X211500Y115498D02*
Y116331D01*
Y115915D01*
X209001D01*
X209417Y115498D01*
X203417Y111166D02*
X203001Y110750D01*
Y109916D01*
X203417Y109500D01*
X205083D01*
X205500Y109916D01*
Y110750D01*
X205083Y111166D01*
X203417Y111999D02*
X203001Y112416D01*
Y113249D01*
X203417Y113665D01*
X203834D01*
X204250Y113249D01*
Y112832D01*
Y113249D01*
X204667Y113665D01*
X205083D01*
X205500Y113249D01*
Y112416D01*
X205083Y111999D01*
X205500Y116165D02*
Y114498D01*
X203834Y116165D01*
X203417D01*
X203001Y115748D01*
Y114915D01*
X203417Y114498D01*
X197417Y111166D02*
X197001Y110750D01*
Y109916D01*
X197417Y109500D01*
X199083D01*
X199500Y109916D01*
Y110750D01*
X199083Y111166D01*
X197417Y111999D02*
X197001Y112416D01*
Y113249D01*
X197417Y113665D01*
X197834D01*
X198250Y113249D01*
Y112832D01*
Y113249D01*
X198667Y113665D01*
X199083D01*
X199500Y113249D01*
Y112416D01*
X199083Y111999D01*
X197417Y114498D02*
X197001Y114915D01*
Y115748D01*
X197417Y116165D01*
X197834D01*
X198250Y115748D01*
Y115331D01*
Y115748D01*
X198667Y116165D01*
X199083D01*
X199500Y115748D01*
Y114915D01*
X199083Y114498D01*
X294200Y203499D02*
Y201000D01*
X295866D01*
X298365D02*
X296699D01*
X298365Y202666D01*
Y203083D01*
X297949Y203499D01*
X297116D01*
X296699Y203083D01*
X278100Y210099D02*
Y207600D01*
X279766D01*
X280599Y209683D02*
X281016Y210099D01*
X281849D01*
X282265Y209683D01*
Y209266D01*
X281849Y208850D01*
X281432D01*
X281849D01*
X282265Y208433D01*
Y208016D01*
X281849Y207600D01*
X281016D01*
X280599Y208016D01*
X195000Y238000D02*
Y240499D01*
X196250D01*
X196666Y240083D01*
Y239250D01*
X196250Y238833D01*
X195000D01*
X198749Y238000D02*
Y240499D01*
X197499Y239250D01*
X199165D01*
X286300Y204800D02*
Y207299D01*
X287550D01*
X287966Y206883D01*
Y206050D01*
X287550Y205633D01*
X286300D01*
X287133D02*
X287966Y204800D01*
X288799D02*
X289632D01*
X289216D01*
Y207299D01*
X288799Y206883D01*
X290882Y205217D02*
X291298Y204800D01*
X292131D01*
X292548Y205217D01*
Y206883D01*
X292131Y207299D01*
X291298D01*
X290882Y206883D01*
Y206466D01*
X291298Y206050D01*
X292548D01*
X273100Y236200D02*
Y238699D01*
X274350D01*
X274766Y238283D01*
Y237450D01*
X274350Y237033D01*
X273100D01*
X273933D02*
X274766Y236200D01*
X277265D02*
X275599D01*
X277265Y237866D01*
Y238283D01*
X276849Y238699D01*
X276016D01*
X275599Y238283D01*
X278098D02*
X278515Y238699D01*
X279348D01*
X279765Y238283D01*
Y236616D01*
X279348Y236200D01*
X278515D01*
X278098Y236616D01*
Y238283D01*
X272600Y161800D02*
Y164299D01*
X273850D01*
X274266Y163883D01*
Y163050D01*
X273850Y162633D01*
X272600D01*
X273433D02*
X274266Y161800D01*
X276765D02*
X275099D01*
X276765Y163466D01*
Y163883D01*
X276349Y164299D01*
X275516D01*
X275099Y163883D01*
X279264Y161800D02*
X277598D01*
X279264Y163466D01*
Y163883D01*
X278848Y164299D01*
X278015D01*
X277598Y163883D01*
X236200Y157900D02*
Y160399D01*
X237450D01*
X237866Y159983D01*
Y159150D01*
X237450Y158733D01*
X236200D01*
X237033D02*
X237866Y157900D01*
X240365D02*
X238699D01*
X240365Y159566D01*
Y159983D01*
X239949Y160399D01*
X239116D01*
X238699Y159983D01*
X241198D02*
X241615Y160399D01*
X242448D01*
X242864Y159983D01*
Y159566D01*
X242448Y159150D01*
X242031D01*
X242448D01*
X242864Y158733D01*
Y158317D01*
X242448Y157900D01*
X241615D01*
X241198Y158317D01*
X146100Y92900D02*
Y95399D01*
X147350D01*
X147766Y94983D01*
Y94150D01*
X147350Y93733D01*
X146100D01*
X146933D02*
X147766Y92900D01*
X150265D02*
X148599D01*
X150265Y94566D01*
Y94983D01*
X149849Y95399D01*
X149016D01*
X148599Y94983D01*
X152764Y95399D02*
X151931Y94983D01*
X151098Y94150D01*
Y93317D01*
X151515Y92900D01*
X152348D01*
X152764Y93317D01*
Y93733D01*
X152348Y94150D01*
X151098D01*
X267000Y168999D02*
X268666D01*
X267833D01*
Y166500D01*
X269499Y168583D02*
X269916Y168999D01*
X270749D01*
X271165Y168583D01*
Y168166D01*
X270749Y167750D01*
X271165Y167333D01*
Y166917D01*
X270749Y166500D01*
X269916D01*
X269499Y166917D01*
Y167333D01*
X269916Y167750D01*
X269499Y168166D01*
Y168583D01*
X269916Y167750D02*
X270749D01*
X240100Y151999D02*
X241766D01*
X240933D01*
Y149500D01*
X242599Y149917D02*
X243016Y149500D01*
X243849D01*
X244265Y149917D01*
Y151583D01*
X243849Y151999D01*
X243016D01*
X242599Y151583D01*
Y151166D01*
X243016Y150750D01*
X244265D01*
X234500Y170799D02*
X236166D01*
X235333D01*
Y168300D01*
X236999D02*
X237832D01*
X237416D01*
Y170799D01*
X236999Y170383D01*
X239082D02*
X239498Y170799D01*
X240331D01*
X240748Y170383D01*
Y168717D01*
X240331Y168300D01*
X239498D01*
X239082Y168717D01*
Y170383D01*
X132500Y105199D02*
X134166D01*
X133333D01*
Y102700D01*
X134999D02*
X135832D01*
X135416D01*
Y105199D01*
X134999Y104783D01*
X137082Y102700D02*
X137915D01*
X137498D01*
Y105199D01*
X137082Y104783D01*
X131200Y113099D02*
X132866D01*
X132033D01*
Y110600D01*
X133699D02*
X134532D01*
X134116D01*
Y113099D01*
X133699Y112683D01*
X137448Y110600D02*
X135782D01*
X137448Y112266D01*
Y112683D01*
X137031Y113099D01*
X136198D01*
X135782Y112683D01*
X221500Y142499D02*
X223166D01*
X222333D01*
Y140000D01*
X223999D02*
X224832D01*
X224416D01*
Y142499D01*
X223999Y142083D01*
X226082D02*
X226498Y142499D01*
X227331D01*
X227748Y142083D01*
Y141666D01*
X227331Y141250D01*
X226915D01*
X227331D01*
X227748Y140833D01*
Y140417D01*
X227331Y140000D01*
X226498D01*
X226082Y140417D01*
X231800Y142999D02*
X233466D01*
X232633D01*
Y140500D01*
X234299D02*
X235132D01*
X234716D01*
Y142999D01*
X234299Y142583D01*
X237631Y140500D02*
Y142999D01*
X236382Y141750D01*
X238048D01*
X250000Y139199D02*
Y137117D01*
X250416Y136700D01*
X251250D01*
X251666Y137117D01*
Y139199D01*
X254165D02*
X252499D01*
Y137950D01*
X253332Y138366D01*
X253749D01*
X254165Y137950D01*
Y137117D01*
X253749Y136700D01*
X252916D01*
X252499Y137117D01*
X226800Y194800D02*
X224301D01*
Y196050D01*
X224717Y196466D01*
X225550D01*
X225967Y196050D01*
Y194800D01*
Y195633D02*
X226800Y196466D01*
Y197299D02*
Y198132D01*
Y197716D01*
X224301D01*
X224717Y197299D01*
Y199382D02*
X224301Y199798D01*
Y200631D01*
X224717Y201048D01*
X225134D01*
X225550Y200631D01*
Y200215D01*
Y200631D01*
X225967Y201048D01*
X226383D01*
X226800Y200631D01*
Y199798D01*
X226383Y199382D01*
X212900Y188200D02*
Y190699D01*
X214150D01*
X214566Y190283D01*
Y189450D01*
X214150Y189033D01*
X212900D01*
X213733D02*
X214566Y188200D01*
X215399D02*
X216232D01*
X215816D01*
Y190699D01*
X215399Y190283D01*
X218731Y188200D02*
Y190699D01*
X217482Y189450D01*
X219148D01*
X77500Y59800D02*
Y62299D01*
X78750D01*
X79166Y61883D01*
Y61050D01*
X78750Y60633D01*
X77500D01*
X78333D02*
X79166Y59800D01*
X81665D02*
X79999D01*
X81665Y61466D01*
Y61883D01*
X81249Y62299D01*
X80416D01*
X79999Y61883D01*
X82498D02*
X82915Y62299D01*
X83748D01*
X84165Y61883D01*
Y61466D01*
X83748Y61050D01*
X84165Y60633D01*
Y60216D01*
X83748Y59800D01*
X82915D01*
X82498Y60216D01*
Y60633D01*
X82915Y61050D01*
X82498Y61466D01*
Y61883D01*
X82915Y61050D02*
X83748D01*
X99400Y61999D02*
Y59500D01*
X100650D01*
X101066Y59917D01*
Y61583D01*
X100650Y61999D01*
X99400D01*
X103565D02*
X101899D01*
Y60750D01*
X102732Y61166D01*
X103149D01*
X103565Y60750D01*
Y59917D01*
X103149Y59500D01*
X102316D01*
X101899Y59917D01*
X196899Y99373D02*
Y97290D01*
X197316Y96874D01*
X198149D01*
X198565Y97290D01*
Y99373D01*
X199398D02*
X201064D01*
Y98957D01*
X199398Y97290D01*
Y96874D01*
X215266Y146583D02*
X214850Y146999D01*
X214017D01*
X213600Y146583D01*
Y144916D01*
X214017Y144500D01*
X214850D01*
X215266Y144916D01*
X217765Y144500D02*
X216099D01*
X217765Y146166D01*
Y146583D01*
X217349Y146999D01*
X216516D01*
X216099Y146583D01*
X218598Y144916D02*
X219015Y144500D01*
X219848D01*
X220265Y144916D01*
Y146583D01*
X219848Y146999D01*
X219015D01*
X218598Y146583D01*
Y146166D01*
X219015Y145750D01*
X220265D01*
X203766Y159283D02*
X203350Y159699D01*
X202517D01*
X202100Y159283D01*
Y157616D01*
X202517Y157200D01*
X203350D01*
X203766Y157616D01*
X204599Y159283D02*
X205016Y159699D01*
X205849D01*
X206265Y159283D01*
Y158866D01*
X205849Y158450D01*
X205432D01*
X205849D01*
X206265Y158033D01*
Y157616D01*
X205849Y157200D01*
X205016D01*
X204599Y157616D01*
X207098Y159283D02*
X207515Y159699D01*
X208348D01*
X208765Y159283D01*
Y157616D01*
X208348Y157200D01*
X207515D01*
X207098Y157616D01*
Y159283D01*
X260066Y123283D02*
X259650Y123699D01*
X258817D01*
X258400Y123283D01*
Y121616D01*
X258817Y121200D01*
X259650D01*
X260066Y121616D01*
X260899Y123283D02*
X261316Y123699D01*
X262149D01*
X262565Y123283D01*
Y122866D01*
X262149Y122450D01*
X261732D01*
X262149D01*
X262565Y122033D01*
Y121616D01*
X262149Y121200D01*
X261316D01*
X260899Y121616D01*
X264648Y121200D02*
Y123699D01*
X263398Y122450D01*
X265065D01*
X241766Y126199D02*
X240100D01*
Y123700D01*
X241766D01*
X240100Y124950D02*
X240933D01*
X242599Y125783D02*
X243016Y126199D01*
X243849D01*
X244265Y125783D01*
Y125366D01*
X243849Y124950D01*
X243432D01*
X243849D01*
X244265Y124533D01*
Y124117D01*
X243849Y123700D01*
X243016D01*
X242599Y124117D01*
X272700Y122600D02*
Y125099D01*
X273950D01*
X274366Y124683D01*
Y123850D01*
X273950Y123433D01*
X272700D01*
X273533D02*
X274366Y122600D01*
X275199Y124683D02*
X275616Y125099D01*
X276449D01*
X276865Y124683D01*
Y124266D01*
X276449Y123850D01*
X276032D01*
X276449D01*
X276865Y123433D01*
Y123017D01*
X276449Y122600D01*
X275616D01*
X275199Y123017D01*
X279364Y122600D02*
X277698D01*
X279364Y124266D01*
Y124683D01*
X278948Y125099D01*
X278115D01*
X277698Y124683D01*
X282865Y173433D02*
Y175932D01*
X284115D01*
X284531Y175515D01*
Y174682D01*
X284115Y174266D01*
X282865D01*
X283698D02*
X284531Y173433D01*
X285365D02*
X286198D01*
X285781D01*
Y175932D01*
X285365Y175515D01*
X289113Y175932D02*
X288280Y175515D01*
X287447Y174682D01*
Y173849D01*
X287864Y173433D01*
X288697D01*
X289113Y173849D01*
Y174266D01*
X288697Y174682D01*
X287447D01*
X62300Y140499D02*
Y138417D01*
X62717Y138000D01*
X63550D01*
X63966Y138417D01*
Y140499D01*
X66465D02*
X65632Y140083D01*
X64799Y139250D01*
Y138417D01*
X65216Y138000D01*
X66049D01*
X66465Y138417D01*
Y138833D01*
X66049Y139250D01*
X64799D01*
X49700Y240499D02*
Y238417D01*
X50116Y238000D01*
X50950D01*
X51366Y238417D01*
Y240499D01*
X52199Y238000D02*
X53032D01*
X52616D01*
Y240499D01*
X52199Y240083D01*
X261600Y180699D02*
Y178616D01*
X262017Y178200D01*
X262850D01*
X263266Y178616D01*
Y180699D01*
X265349Y178200D02*
Y180699D01*
X264099Y179450D01*
X265765D01*
D55*
X264988Y157541D02*
X266841D01*
X270200Y160900D01*
X270900D01*
D56*
X267220Y151749D02*
Y153717D01*
Y141906D02*
Y143875D01*
X255410Y151749D02*
Y153717D01*
Y141906D02*
Y143875D01*
M02*
